<svg width="90" height="43" viewBox="0 0 90 43" fill="none" xmlns="http://www.w3.org/2000/svg">
<rect x="0.5" y="0.5" width="89" height="41.9305" rx="20.9652" fill="#040022"/>
<rect x="0.5" y="0.5" width="89" height="41.9305" rx="20.9652" stroke="#0080FF"/>
<path d="M18.1328 15.7153C18.1328 15.1186 18.3699 14.5463 18.7918 14.1243C19.2138 13.7024 19.7861 13.4653 20.3828 13.4653H31.8828C32.1783 13.4653 32.4709 13.5235 32.7439 13.6366C33.0168 13.7497 33.2649 13.9154 33.4738 14.1243C33.6827 14.3333 33.8485 14.5813 33.9615 14.8543C34.0746 15.1273 34.1328 15.4199 34.1328 15.7153V29.2153C34.1328 29.5108 34.0746 29.8034 33.9615 30.0764C33.8485 30.3494 33.6827 30.5974 33.4738 30.8063C33.2649 31.0153 33.0168 31.181 32.7439 31.2941C32.4709 31.4071 32.1783 31.4653 31.8828 31.4653H20.3828C19.7861 31.4653 19.2138 31.2283 18.7918 30.8063C18.3699 30.3844 18.1328 29.8121 18.1328 29.2153V15.7153Z" fill="url(#paint0_linear_2402_2135)"/>
<path d="M18.1328 15.7153C18.1328 15.1186 18.3699 14.5463 18.7918 14.1243C19.2138 13.7024 19.7861 13.4653 20.3828 13.4653H31.8828C32.1783 13.4653 32.4709 13.5235 32.7439 13.6366C33.0168 13.7497 33.2649 13.9154 33.4738 14.1243C33.6827 14.3333 33.8485 14.5813 33.9615 14.8543C34.0746 15.1273 34.1328 15.4199 34.1328 15.7153V29.2153C34.1328 29.5108 34.0746 29.8034 33.9615 30.0764C33.8485 30.3494 33.6827 30.5974 33.4738 30.8063C33.2649 31.0153 33.0168 31.181 32.7439 31.2941C32.4709 31.4071 32.1783 31.4653 31.8828 31.4653H20.3828C19.7861 31.4653 19.2138 31.2283 18.7918 30.8063C18.3699 30.3844 18.1328 29.8121 18.1328 29.2153V15.7153Z" fill="url(#paint1_radial_2402_2135)" fill-opacity="0.7"/>
<path d="M18.1328 15.7153C18.1328 15.1186 18.3699 14.5463 18.7918 14.1243C19.2138 13.7024 19.7861 13.4653 20.3828 13.4653H31.8828C32.1783 13.4653 32.4709 13.5235 32.7439 13.6366C33.0168 13.7497 33.2649 13.9154 33.4738 14.1243C33.6827 14.3333 33.8485 14.5813 33.9615 14.8543C34.0746 15.1273 34.1328 15.4199 34.1328 15.7153V29.2153C34.1328 29.5108 34.0746 29.8034 33.9615 30.0764C33.8485 30.3494 33.6827 30.5974 33.4738 30.8063C33.2649 31.0153 33.0168 31.181 32.7439 31.2941C32.4709 31.4071 32.1783 31.4653 31.8828 31.4653H20.3828C19.7861 31.4653 19.2138 31.2283 18.7918 30.8063C18.3699 30.3844 18.1328 29.8121 18.1328 29.2153V15.7153Z" fill="url(#paint2_radial_2402_2135)" fill-opacity="0.4"/>
<path d="M22.1328 13.7153C22.1328 14.3121 22.3699 14.8844 22.7918 15.3063C23.2138 15.7283 23.7861 15.9653 24.3828 15.9653H27.8828C28.4795 15.9653 29.0518 15.7283 29.4738 15.3063C29.8958 14.8844 30.1328 14.3121 30.1328 13.7153C30.1328 13.1186 29.8958 12.5463 29.4738 12.1243C29.0518 11.7024 28.4795 11.4653 27.8828 11.4653H24.3828C23.7861 11.4653 23.2138 11.7024 22.7918 12.1243C22.3699 12.5463 22.1328 13.1186 22.1328 13.7153Z" fill="url(#paint3_linear_2402_2135)"/>
<path d="M31.1636 20.4952C31.2373 20.4266 31.2964 20.3438 31.3374 20.2518C31.3784 20.1598 31.4004 20.0605 31.4022 19.9598C31.404 19.8591 31.3855 19.759 31.3478 19.6656C31.31 19.5723 31.2539 19.4874 31.1827 19.4162C31.1115 19.345 31.0266 19.2888 30.9332 19.2511C30.8398 19.2134 30.7398 19.1949 30.6391 19.1966C30.5384 19.1984 30.4391 19.2205 30.3471 19.2615C30.2551 19.3025 30.1723 19.3616 30.1036 19.4352L25.1336 24.4052L23.1636 22.4352C23.0215 22.3028 22.8334 22.2306 22.6391 22.2341C22.4448 22.2375 22.2594 22.3162 22.122 22.4536C21.9846 22.591 21.9059 22.7764 21.9025 22.9707C21.899 23.165 21.9712 23.3531 22.1036 23.4952L24.6036 25.9952C24.7443 26.1357 24.9349 26.2146 25.1336 26.2146C25.3324 26.2146 25.523 26.1357 25.6636 25.9952L31.1636 20.4952Z" fill="url(#paint4_linear_2402_2135)" fill-opacity="0.9"/>
<path d="M49.5193 17.5372V18.8207H47.4067V25.4653H45.8165V18.8207H43.7039V17.5372H49.5193ZM49.9677 22.2964C49.9677 21.6603 50.0927 21.0962 50.3426 20.604C50.6 20.1118 50.9446 19.7332 51.3762 19.4682C51.8154 19.2031 52.3038 19.0706 52.8414 19.0706C53.3109 19.0706 53.7198 19.1653 54.0681 19.3546C54.424 19.5439 54.7079 19.7824 54.92 20.0701V19.1728H56.5215V25.4653H54.92V24.5453C54.7155 24.8406 54.4316 25.0867 54.0681 25.2836C53.7122 25.4729 53.2995 25.5676 52.83 25.5676C52.3 25.5676 51.8154 25.4313 51.3762 25.1587C50.9446 24.8861 50.6 24.5037 50.3426 24.0115C50.0927 23.5117 49.9677 22.94 49.9677 22.2964ZM54.92 22.3191C54.92 21.9329 54.8442 21.6035 54.6928 21.3309C54.5413 21.0507 54.3369 20.8387 54.0794 20.6949C53.822 20.5434 53.5456 20.4677 53.2503 20.4677C52.955 20.4677 52.6824 20.5396 52.4325 20.6835C52.1826 20.8274 51.9782 21.0394 51.8191 21.3196C51.6677 21.5922 51.592 21.9178 51.592 22.2964C51.592 22.675 51.6677 23.0082 51.8191 23.2959C51.9782 23.5761 52.1826 23.7919 52.4325 23.9433C52.6899 24.0948 52.9625 24.1705 53.2503 24.1705C53.5456 24.1705 53.822 24.0986 54.0794 23.9547C54.3369 23.8032 54.5413 23.5912 54.6928 23.3186C54.8442 23.0384 54.92 22.7053 54.92 22.3191ZM60.1796 25.5676C59.6647 25.5676 59.2028 25.4767 58.7939 25.295C58.385 25.1057 58.0594 24.852 57.8171 24.534C57.5824 24.2159 57.4536 23.8638 57.4309 23.4776H59.0324C59.0627 23.7199 59.1801 23.9206 59.3845 24.0796C59.5966 24.2386 59.8578 24.3181 60.1683 24.3181C60.4711 24.3181 60.7059 24.2576 60.8725 24.1364C61.0466 24.0153 61.1337 23.86 61.1337 23.6707C61.1337 23.4663 61.0277 23.3148 60.8157 23.2164C60.6112 23.1104 60.2818 22.9968 59.8275 22.8756C59.358 22.7621 58.9719 22.6447 58.669 22.5235C58.3736 22.4024 58.1162 22.2169 57.8966 21.967C57.6846 21.7171 57.5786 21.3801 57.5786 20.9561C57.5786 20.6078 57.677 20.2897 57.8739 20.002C58.0783 19.7143 58.3661 19.4871 58.7371 19.3205C59.1157 19.1539 59.5587 19.0706 60.066 19.0706C60.8157 19.0706 61.4139 19.2599 61.8606 19.6385C62.3074 20.0096 62.5535 20.5131 62.5989 21.1492H61.0769C61.0542 20.8993 60.9482 20.7024 60.7589 20.5586C60.5772 20.4071 60.3311 20.3314 60.0206 20.3314C59.7329 20.3314 59.5095 20.3844 59.3505 20.4904C59.199 20.5964 59.1233 20.7441 59.1233 20.9334C59.1233 21.1454 59.2293 21.3082 59.4413 21.4218C59.6533 21.5278 59.9827 21.6376 60.4295 21.7512C60.8838 21.8648 61.2587 21.9821 61.554 22.1033C61.8493 22.2244 62.103 22.4137 62.315 22.6712C62.5346 22.9211 62.6481 23.2543 62.6557 23.6707C62.6557 24.0342 62.5535 24.3598 62.349 24.6475C62.1522 24.9353 61.8644 25.1624 61.4858 25.329C61.1148 25.488 60.6794 25.5676 60.1796 25.5676ZM67.3837 25.4653L65.2483 22.7848V25.4653H63.6581V17.0602H65.2483V21.842L67.361 19.1728H69.4282L66.6567 22.3304L69.4509 25.4653H67.3837ZM72.3963 25.5676C71.8814 25.5676 71.4195 25.4767 71.0106 25.295C70.6017 25.1057 70.2761 24.852 70.0338 24.534C69.799 24.2159 69.6703 23.8638 69.6476 23.4776H71.2491C71.2794 23.7199 71.3968 23.9206 71.6012 24.0796C71.8132 24.2386 72.0745 24.3181 72.3849 24.3181C72.6878 24.3181 72.9225 24.2576 73.0891 24.1364C73.2633 24.0153 73.3504 23.86 73.3504 23.6707C73.3504 23.4663 73.2444 23.3148 73.0323 23.2164C72.8279 23.1104 72.4985 22.9968 72.0442 22.8756C71.5747 22.7621 71.1885 22.6447 70.8856 22.5235C70.5903 22.4024 70.3329 22.2169 70.1133 21.967C69.9012 21.7171 69.7952 21.3801 69.7952 20.9561C69.7952 20.6078 69.8937 20.2897 70.0905 20.002C70.295 19.7143 70.5827 19.4871 70.9538 19.3205C71.3324 19.1539 71.7754 19.0706 72.2827 19.0706C73.0323 19.0706 73.6305 19.2599 74.0773 19.6385C74.5241 20.0096 74.7702 20.5131 74.8156 21.1492H73.2936C73.2709 20.8993 73.1649 20.7024 72.9756 20.5586C72.7938 20.4071 72.5477 20.3314 72.2373 20.3314C71.9495 20.3314 71.7261 20.3844 71.5671 20.4904C71.4157 20.5964 71.34 20.7441 71.34 20.9334C71.34 21.1454 71.446 21.3082 71.658 21.4218C71.87 21.5278 72.1994 21.6376 72.6462 21.7512C73.1005 21.8648 73.4753 21.9821 73.7706 22.1033C74.066 22.2244 74.3196 22.4137 74.5316 22.6712C74.7512 22.9211 74.8648 23.2543 74.8724 23.6707C74.8724 24.0342 74.7702 24.3598 74.5657 24.6475C74.3688 24.9353 74.0811 25.1624 73.7025 25.329C73.3314 25.488 72.896 25.5676 72.3963 25.5676Z" fill="white"/>
<defs>
<linearGradient id="paint0_linear_2402_2135" x1="18.1328" y1="15.2653" x2="32.2788" y2="32.9483" gradientUnits="userSpaceOnUse">
<stop stop-color="#36DFF1"/>
<stop offset="1" stop-color="#0094F0"/>
</linearGradient>
<radialGradient id="paint1_radial_2402_2135" cx="0" cy="0" r="1" gradientUnits="userSpaceOnUse" gradientTransform="translate(26.1328 12.4653) rotate(90) scale(6.16892 6.75)">
<stop stop-color="#0A1852"/>
<stop offset="0.9" stop-color="#0A1852" stop-opacity="0"/>
</radialGradient>
<radialGradient id="paint2_radial_2402_2135" cx="0" cy="0" r="1" gradientUnits="userSpaceOnUse" gradientTransform="translate(26.1328 14.0833) rotate(90) scale(2.79325 4.95298)">
<stop stop-color="#0A1852"/>
<stop offset="1" stop-color="#0A1852" stop-opacity="0"/>
</radialGradient>
<linearGradient id="paint3_linear_2402_2135" x1="26.1328" y1="11.4653" x2="26.1328" y2="15.9653" gradientUnits="userSpaceOnUse">
<stop stop-color="#FFE06B"/>
<stop offset="1" stop-color="#FAB500"/>
</linearGradient>
<linearGradient id="paint4_linear_2402_2135" x1="32.1336" y1="27.9652" x2="24.3986" y2="17.1972" gradientUnits="userSpaceOnUse">
<stop stop-color="#9DEAFF"/>
<stop offset="1" stop-color="white"/>
</linearGradient>
</defs>
</svg>
