<svg width="40" height="28" viewBox="0 0 40 28" fill="none" xmlns="http://www.w3.org/2000/svg">
<path fill-rule="evenodd" clip-rule="evenodd" d="M2.67517 13.9999L8.33197 19.6567L7.20077 20.7879L0.97837 14.5655C0.828393 14.4155 0.744141 14.212 0.744141 13.9999C0.744141 13.7878 0.828393 13.5843 0.97837 13.4343L7.20077 7.21191L8.33197 8.34311L2.67517 13.9999Z" fill="white"/>
<path d="M12.956 18V10.6H16.5714C17.5017 10.6 18.1994 10.7762 18.6645 11.1286C19.1367 11.481 19.3728 11.9461 19.3728 12.524C19.3728 12.9116 19.2777 13.2499 19.0874 13.5389C18.8971 13.8208 18.6364 14.0392 18.3051 14.1943C17.9739 14.3493 17.5933 14.4269 17.1634 14.4269L17.3643 13.9934C17.8294 13.9934 18.2417 14.071 18.6011 14.226C18.9605 14.374 19.2389 14.596 19.4363 14.892C19.6406 15.188 19.7428 15.551 19.7428 15.9809C19.7428 16.6151 19.4926 17.112 18.9923 17.4714C18.4919 17.8238 17.7554 18 16.7828 18H12.956ZM14.658 16.7103H16.656C17.1 16.7103 17.4347 16.6398 17.6603 16.4989C17.8928 16.3509 18.0091 16.1183 18.0091 15.8011C18.0091 15.491 17.8928 15.262 17.6603 15.114C17.4347 14.959 17.1 14.8814 16.656 14.8814H14.5311V13.634H16.36C16.7758 13.634 17.0929 13.5635 17.3114 13.4226C17.5369 13.2746 17.6497 13.0526 17.6497 12.7566C17.6497 12.4676 17.5369 12.2527 17.3114 12.1117C17.0929 11.9637 16.7758 11.8897 16.36 11.8897H14.658V16.7103ZM24.4117 18V16.89L24.306 16.6469V14.6594C24.306 14.307 24.1967 14.0322 23.9783 13.8349C23.7668 13.6375 23.4391 13.5389 22.9951 13.5389C22.6921 13.5389 22.3925 13.5882 22.0965 13.6869C21.8076 13.7785 21.5609 13.9053 21.3565 14.0674L20.7645 12.9151C21.0746 12.6967 21.4482 12.5275 21.8851 12.4077C22.3221 12.2879 22.7661 12.228 23.2171 12.228C24.084 12.228 24.757 12.4324 25.2363 12.8411C25.7155 13.2499 25.9551 13.8877 25.9551 14.7546V18H24.4117ZM22.678 18.0846C22.234 18.0846 21.8534 18.0106 21.5363 17.8626C21.2191 17.7075 20.976 17.4996 20.8068 17.2389C20.6377 16.9781 20.5531 16.6856 20.5531 16.3614C20.5531 16.0231 20.6342 15.7271 20.7963 15.4734C20.9654 15.2197 21.2297 15.0224 21.5891 14.8814C21.9485 14.7334 22.4172 14.6594 22.9951 14.6594H24.5068V15.6214H23.1748C22.7872 15.6214 22.5194 15.6849 22.3714 15.8117C22.2304 15.9386 22.16 16.0971 22.16 16.2874C22.16 16.4989 22.241 16.668 22.4031 16.7949C22.5723 16.9147 22.8013 16.9746 23.0903 16.9746C23.3651 16.9746 23.6118 16.9111 23.8303 16.7843C24.0487 16.6504 24.2073 16.4566 24.306 16.2029L24.5597 16.964C24.4399 17.3305 24.2214 17.6089 23.9043 17.7991C23.5871 17.9894 23.1784 18.0846 22.678 18.0846ZM30.2375 18.0846C29.6244 18.0846 29.0782 17.9612 28.599 17.7146C28.1197 17.4609 27.7427 17.112 27.4678 16.668C27.2 16.224 27.0661 15.7201 27.0661 15.1563C27.0661 14.5854 27.2 14.0815 27.4678 13.6446C27.7427 13.2006 28.1197 12.8552 28.599 12.6086C29.0782 12.3549 29.6244 12.228 30.2375 12.228C30.8366 12.228 31.3581 12.3549 31.8021 12.6086C32.2461 12.8552 32.5738 13.2111 32.7852 13.6763L31.5061 14.3634C31.3581 14.0956 31.1713 13.8983 30.9458 13.7714C30.7273 13.6446 30.4877 13.5811 30.227 13.5811C29.9451 13.5811 29.6913 13.6446 29.4658 13.7714C29.2403 13.8983 29.0606 14.078 28.9267 14.3106C28.7998 14.5431 28.7364 14.825 28.7364 15.1563C28.7364 15.4875 28.7998 15.7694 28.9267 16.002C29.0606 16.2346 29.2403 16.4143 29.4658 16.5411C29.6913 16.668 29.9451 16.7314 30.227 16.7314C30.4877 16.7314 30.7273 16.6715 30.9458 16.5517C31.1713 16.4249 31.3581 16.224 31.5061 15.9491L32.7852 16.6469C32.5738 17.105 32.2461 17.4609 31.8021 17.7146C31.3581 17.9612 30.8366 18.0846 30.2375 18.0846ZM35.0675 16.8371L35.1098 14.8286L37.7632 12.3126H39.7295L37.1818 14.9026L36.3255 15.6003L35.0675 16.8371ZM33.7038 18V10.156H35.3529V18H33.7038ZM37.9429 18L36.0189 15.6109L37.0549 14.3317L39.9409 18H37.9429Z" fill="white"/>
</svg>
