<svg width="291" height="49" viewBox="0 0 291 49" fill="none" xmlns="http://www.w3.org/2000/svg">
<g filter="url(#filter0_d_4228_1349)">
<rect x="2" y="2" width="287" height="43" rx="8" fill="#A800CC"/>
<rect x="1" y="1" width="289" height="45" rx="9" stroke="white" stroke-width="2"/>
</g>
<rect x="2" y="2" width="287" height="39" rx="8" fill="#C501DD"/>
<path opacity="0.5" d="M195.183 41.3545H10C5.58186 41.3545 2.00022 37.7726 2 33.3545V10C2 5.58172 5.58172 2 10 2H104.534L195.183 41.3545Z" fill="#6C00A0"/>
<g filter="url(#filter1_d_4228_1349)">
<path d="M95.042 28.304C93.9273 28.304 92.8507 28.1773 91.812 27.924C90.7733 27.6707 89.9183 27.3413 89.247 26.936L90.691 23.668C91.3243 24.0353 92.0273 24.333 92.8 24.561C93.5853 24.7763 94.3453 24.884 95.08 24.884C95.5107 24.884 95.8463 24.8587 96.087 24.808C96.3403 24.7447 96.524 24.6623 96.638 24.561C96.752 24.447 96.809 24.314 96.809 24.162C96.809 23.9213 96.676 23.7313 96.41 23.592C96.144 23.4527 95.7893 23.3387 95.346 23.25C94.9153 23.1487 94.4403 23.0473 93.921 22.946C93.4017 22.832 92.876 22.6863 92.344 22.509C91.8247 22.3317 91.3433 22.0973 90.9 21.806C90.4693 21.5147 90.121 21.1347 89.855 20.666C89.589 20.1847 89.456 19.5893 89.456 18.88C89.456 18.0567 89.684 17.3093 90.14 16.638C90.6087 15.954 91.299 15.4093 92.211 15.004C93.1357 14.5987 94.282 14.396 95.65 14.396C96.5493 14.396 97.436 14.491 98.31 14.681C99.184 14.871 99.9693 15.1623 100.666 15.555L99.317 18.804C98.6583 18.4747 98.0187 18.2277 97.398 18.063C96.79 17.8983 96.1947 17.816 95.612 17.816C95.1813 17.816 94.8393 17.854 94.586 17.93C94.3327 18.006 94.149 18.1073 94.035 18.234C93.9337 18.3607 93.883 18.5 93.883 18.652C93.883 18.88 94.016 19.0637 94.282 19.203C94.548 19.3297 94.8963 19.4373 95.327 19.526C95.7703 19.6147 96.2517 19.7097 96.771 19.811C97.303 19.9123 97.8287 20.0517 98.348 20.229C98.8673 20.4063 99.3423 20.6407 99.773 20.932C100.216 21.2233 100.571 21.6033 100.837 22.072C101.103 22.5407 101.236 23.1233 101.236 23.82C101.236 24.6307 101.002 25.378 100.533 26.062C100.077 26.7333 99.393 27.278 98.481 27.696C97.569 28.1013 96.4227 28.304 95.042 28.304ZM103.33 28V14.7H109.733C110.975 14.7 112.045 14.9027 112.944 15.308C113.856 15.7133 114.559 16.296 115.053 17.056C115.547 17.8033 115.794 18.69 115.794 19.716C115.794 20.742 115.547 21.6287 115.053 22.376C114.559 23.1233 113.856 23.706 112.944 24.124C112.045 24.5293 110.975 24.732 109.733 24.732H105.819L107.814 22.813V28H103.33ZM107.814 23.307L105.819 21.274H109.448C110.069 21.274 110.525 21.1347 110.816 20.856C111.12 20.5773 111.272 20.1973 111.272 19.716C111.272 19.2347 111.12 18.8547 110.816 18.576C110.525 18.2973 110.069 18.158 109.448 18.158H105.819L107.814 16.125V23.307ZM118.025 28V14.7H122.509V28H118.025ZM125.427 28V14.7H129.113L135.877 22.794H134.167V14.7H138.537V28H134.851L128.087 19.906H129.797V28H125.427ZM147.914 28V14.7H151.6L158.364 22.794H156.654V14.7H161.024V28H157.338L150.574 19.906H152.284V28H147.914ZM170.918 28.304C169.841 28.304 168.84 28.133 167.916 27.791C167.004 27.449 166.212 26.9677 165.541 26.347C164.869 25.7137 164.344 24.9727 163.964 24.124C163.596 23.2753 163.413 22.3507 163.413 21.35C163.413 20.3367 163.596 19.412 163.964 18.576C164.344 17.7273 164.869 16.9927 165.541 16.372C166.212 15.7387 167.004 15.251 167.916 14.909C168.84 14.567 169.841 14.396 170.918 14.396C172.007 14.396 173.008 14.567 173.92 14.909C174.832 15.251 175.623 15.7387 176.295 16.372C176.966 16.9927 177.485 17.7273 177.853 18.576C178.233 19.412 178.423 20.3367 178.423 21.35C178.423 22.3507 178.233 23.2753 177.853 24.124C177.485 24.9727 176.966 25.7137 176.295 26.347C175.623 26.9677 174.832 27.449 173.92 27.791C173.008 28.133 172.007 28.304 170.918 28.304ZM170.918 24.675C171.336 24.675 171.722 24.599 172.077 24.447C172.444 24.295 172.761 24.0797 173.027 23.801C173.305 23.5097 173.521 23.1613 173.673 22.756C173.825 22.338 173.901 21.8693 173.901 21.35C173.901 20.8307 173.825 20.3683 173.673 19.963C173.521 19.545 173.305 19.1967 173.027 18.918C172.761 18.6267 172.444 18.405 172.077 18.253C171.722 18.101 171.336 18.025 170.918 18.025C170.5 18.025 170.107 18.101 169.74 18.253C169.385 18.405 169.068 18.6267 168.79 18.918C168.524 19.1967 168.315 19.545 168.163 19.963C168.011 20.3683 167.935 20.8307 167.935 21.35C167.935 21.8693 168.011 22.338 168.163 22.756C168.315 23.1613 168.524 23.5097 168.79 23.801C169.068 24.0797 169.385 24.295 169.74 24.447C170.107 24.599 170.5 24.675 170.918 24.675ZM183.709 28L179.453 14.7H184.07L187.509 25.929H185.191L188.839 14.7H192.962L196.363 25.929H194.14L197.731 14.7H201.987L197.731 28H192.924L190.15 18.804H191.442L188.516 28H183.709Z" fill="white"/>
</g>
<defs>
<filter id="filter0_d_4228_1349" x="0" y="0" width="291" height="49" filterUnits="userSpaceOnUse" color-interpolation-filters="sRGB">
<feFlood flood-opacity="0" result="BackgroundImageFix"/>
<feColorMatrix in="SourceAlpha" type="matrix" values="0 0 0 0 0 0 0 0 0 0 0 0 0 0 0 0 0 0 127 0" result="hardAlpha"/>
<feOffset dy="2"/>
<feComposite in2="hardAlpha" operator="out"/>
<feColorMatrix type="matrix" values="0 0 0 0 0 0 0 0 0 0 0 0 0 0 0 0 0 0 0.15 0"/>
<feBlend mode="normal" in2="BackgroundImageFix" result="effect1_dropShadow_4228_1349"/>
<feBlend mode="normal" in="SourceGraphic" in2="effect1_dropShadow_4228_1349" result="shape"/>
</filter>
<filter id="filter1_d_4228_1349" x="89.2471" y="14.396" width="112.74" height="14.908" filterUnits="userSpaceOnUse" color-interpolation-filters="sRGB">
<feFlood flood-opacity="0" result="BackgroundImageFix"/>
<feColorMatrix in="SourceAlpha" type="matrix" values="0 0 0 0 0 0 0 0 0 0 0 0 0 0 0 0 0 0 127 0" result="hardAlpha"/>
<feOffset dy="1"/>
<feComposite in2="hardAlpha" operator="out"/>
<feColorMatrix type="matrix" values="0 0 0 0 0 0 0 0 0 0 0 0 0 0 0 0 0 0 0.15 0"/>
<feBlend mode="normal" in2="BackgroundImageFix" result="effect1_dropShadow_4228_1349"/>
<feBlend mode="normal" in="SourceGraphic" in2="effect1_dropShadow_4228_1349" result="shape"/>
</filter>
</defs>
</svg>
