<svg width="90" height="43" viewBox="0 0 90 43" fill="none" xmlns="http://www.w3.org/2000/svg">
<rect x="0.5" y="0.5" width="89" height="41.9305" rx="20.9652" fill="#040022"/>
<rect x="0.5" y="0.5" width="89" height="41.9305" rx="20.9652" stroke="#0080FF"/>
<path d="M18.1338 15.7153C18.1338 15.1186 18.3708 14.5463 18.7928 14.1243C19.2148 13.7024 19.7871 13.4653 20.3838 13.4653H31.8838C32.1793 13.4653 32.4718 13.5235 32.7448 13.6366C33.0178 13.7497 33.2658 13.9154 33.4748 14.1243C33.6837 14.3333 33.8494 14.5813 33.9625 14.8543C34.0756 15.1273 34.1338 15.4199 34.1338 15.7153V29.2153C34.1338 29.5108 34.0756 29.8034 33.9625 30.0764C33.8494 30.3494 33.6837 30.5974 33.4748 30.8063C33.2658 31.0153 33.0178 31.181 32.7448 31.2941C32.4718 31.4071 32.1793 31.4653 31.8838 31.4653H20.3838C19.7871 31.4653 19.2148 31.2283 18.7928 30.8063C18.3708 30.3844 18.1338 29.8121 18.1338 29.2153V15.7153Z" fill="url(#paint0_linear_4202_1113)"/>
<path d="M18.1338 15.7153C18.1338 15.1186 18.3708 14.5463 18.7928 14.1243C19.2148 13.7024 19.7871 13.4653 20.3838 13.4653H31.8838C32.1793 13.4653 32.4718 13.5235 32.7448 13.6366C33.0178 13.7497 33.2658 13.9154 33.4748 14.1243C33.6837 14.3333 33.8494 14.5813 33.9625 14.8543C34.0756 15.1273 34.1338 15.4199 34.1338 15.7153V29.2153C34.1338 29.5108 34.0756 29.8034 33.9625 30.0764C33.8494 30.3494 33.6837 30.5974 33.4748 30.8063C33.2658 31.0153 33.0178 31.181 32.7448 31.2941C32.4718 31.4071 32.1793 31.4653 31.8838 31.4653H20.3838C19.7871 31.4653 19.2148 31.2283 18.7928 30.8063C18.3708 30.3844 18.1338 29.8121 18.1338 29.2153V15.7153Z" fill="url(#paint1_radial_4202_1113)" fill-opacity="0.7"/>
<path d="M18.1338 15.7153C18.1338 15.1186 18.3708 14.5463 18.7928 14.1243C19.2148 13.7024 19.7871 13.4653 20.3838 13.4653H31.8838C32.1793 13.4653 32.4718 13.5235 32.7448 13.6366C33.0178 13.7497 33.2658 13.9154 33.4748 14.1243C33.6837 14.3333 33.8494 14.5813 33.9625 14.8543C34.0756 15.1273 34.1338 15.4199 34.1338 15.7153V29.2153C34.1338 29.5108 34.0756 29.8034 33.9625 30.0764C33.8494 30.3494 33.6837 30.5974 33.4748 30.8063C33.2658 31.0153 33.0178 31.181 32.7448 31.2941C32.4718 31.4071 32.1793 31.4653 31.8838 31.4653H20.3838C19.7871 31.4653 19.2148 31.2283 18.7928 30.8063C18.3708 30.3844 18.1338 29.8121 18.1338 29.2153V15.7153Z" fill="url(#paint2_radial_4202_1113)" fill-opacity="0.4"/>
<path d="M22.1338 13.7153C22.1338 14.3121 22.3708 14.8844 22.7928 15.3063C23.2148 15.7283 23.7871 15.9653 24.3838 15.9653H27.8838C28.4805 15.9653 29.0528 15.7283 29.4748 15.3063C29.8967 14.8844 30.1338 14.3121 30.1338 13.7153C30.1338 13.1186 29.8967 12.5463 29.4748 12.1243C29.0528 11.7024 28.4805 11.4653 27.8838 11.4653H24.3838C23.7871 11.4653 23.2148 11.7024 22.7928 12.1243C22.3708 12.5463 22.1338 13.1186 22.1338 13.7153Z" fill="url(#paint3_linear_4202_1113)"/>
<path d="M31.1636 20.4952C31.2373 20.4266 31.2964 20.3438 31.3374 20.2518C31.3784 20.1598 31.4004 20.0605 31.4022 19.9598C31.404 19.8591 31.3855 19.759 31.3478 19.6656C31.31 19.5723 31.2539 19.4874 31.1827 19.4162C31.1115 19.345 31.0266 19.2888 30.9332 19.2511C30.8398 19.2134 30.7398 19.1949 30.6391 19.1966C30.5384 19.1984 30.4391 19.2205 30.3471 19.2615C30.2551 19.3025 30.1723 19.3616 30.1036 19.4352L25.1336 24.4052L23.1636 22.4352C23.0215 22.3028 22.8334 22.2306 22.6391 22.2341C22.4448 22.2375 22.2594 22.3162 22.122 22.4536C21.9846 22.591 21.9059 22.7764 21.9025 22.9707C21.899 23.165 21.9712 23.3531 22.1036 23.4952L24.6036 25.9952C24.7443 26.1357 24.9349 26.2146 25.1336 26.2146C25.3324 26.2146 25.523 26.1357 25.6636 25.9952L31.1636 20.4952Z" fill="url(#paint4_linear_4202_1113)" fill-opacity="0.9"/>
<path d="M49.5183 17.5372V18.8207H47.4057V25.4653H45.8155V18.8207H43.7029V17.5372H49.5183ZM49.9668 22.2964C49.9668 21.6603 50.0917 21.0962 50.3416 20.604C50.599 20.1118 50.9436 19.7332 51.3752 19.4682C51.8144 19.2031 52.3028 19.0706 52.8404 19.0706C53.3099 19.0706 53.7188 19.1653 54.0671 19.3546C54.423 19.5439 54.707 19.7824 54.919 20.0701V19.1728H56.5205V25.4653H54.919V24.5453C54.7145 24.8406 54.4306 25.0867 54.0671 25.2836C53.7112 25.4729 53.2985 25.5676 52.8291 25.5676C52.299 25.5676 51.8144 25.4313 51.3752 25.1587C50.9436 24.8861 50.599 24.5037 50.3416 24.0115C50.0917 23.5117 49.9668 22.94 49.9668 22.2964ZM54.919 22.3191C54.919 21.9329 54.8433 21.6035 54.6918 21.3309C54.5404 21.0507 54.3359 20.8387 54.0785 20.6949C53.821 20.5434 53.5446 20.4677 53.2493 20.4677C52.954 20.4677 52.6814 20.5396 52.4315 20.6835C52.1816 20.8274 51.9772 21.0394 51.8182 21.3196C51.6667 21.5922 51.591 21.9178 51.591 22.2964C51.591 22.675 51.6667 23.0082 51.8182 23.2959C51.9772 23.5761 52.1816 23.7919 52.4315 23.9433C52.689 24.0948 52.9616 24.1705 53.2493 24.1705C53.5446 24.1705 53.821 24.0986 54.0785 23.9547C54.3359 23.8032 54.5404 23.5912 54.6918 23.3186C54.8433 23.0384 54.919 22.7053 54.919 22.3191ZM60.1786 25.5676C59.6637 25.5676 59.2018 25.4767 58.7929 25.295C58.384 25.1057 58.0584 24.852 57.8161 24.534C57.5814 24.2159 57.4526 23.8638 57.4299 23.4776H59.0315C59.0617 23.7199 59.1791 23.9206 59.3836 24.0796C59.5956 24.2386 59.8568 24.3181 60.1673 24.3181C60.4702 24.3181 60.7049 24.2576 60.8715 24.1364C61.0457 24.0153 61.1327 23.86 61.1327 23.6707C61.1327 23.4663 61.0267 23.3148 60.8147 23.2164C60.6103 23.1104 60.2809 22.9968 59.8265 22.8756C59.3571 22.7621 58.9709 22.6447 58.668 22.5235C58.3727 22.4024 58.1152 22.2169 57.8956 21.967C57.6836 21.7171 57.5776 21.3801 57.5776 20.9561C57.5776 20.6078 57.676 20.2897 57.8729 20.002C58.0774 19.7143 58.3651 19.4871 58.7361 19.3205C59.1147 19.1539 59.5577 19.0706 60.0651 19.0706C60.8147 19.0706 61.4129 19.2599 61.8597 19.6385C62.3064 20.0096 62.5525 20.5131 62.598 21.1492H61.0759C61.0532 20.8993 60.9472 20.7024 60.7579 20.5586C60.5762 20.4071 60.3301 20.3314 60.0196 20.3314C59.7319 20.3314 59.5085 20.3844 59.3495 20.4904C59.198 20.5964 59.1223 20.7441 59.1223 20.9334C59.1223 21.1454 59.2283 21.3082 59.4403 21.4218C59.6524 21.5278 59.9818 21.6376 60.4285 21.7512C60.8829 21.8648 61.2577 21.9821 61.553 22.1033C61.8483 22.2244 62.102 22.4137 62.314 22.6712C62.5336 22.9211 62.6472 23.2543 62.6547 23.6707C62.6547 24.0342 62.5525 24.3598 62.3481 24.6475C62.1512 24.9353 61.8635 25.1624 61.4848 25.329C61.1138 25.488 60.6784 25.5676 60.1786 25.5676ZM67.3827 25.4653L65.2473 22.7848V25.4653H63.6572V17.0602H65.2473V21.842L67.36 19.1728H69.4272L66.6558 22.3304L69.4499 25.4653H67.3827ZM72.3953 25.5676C71.8804 25.5676 71.4185 25.4767 71.0096 25.295C70.6007 25.1057 70.2751 24.852 70.0328 24.534C69.798 24.2159 69.6693 23.8638 69.6466 23.4776H71.2481C71.2784 23.7199 71.3958 23.9206 71.6002 24.0796C71.8122 24.2386 72.0735 24.3181 72.3839 24.3181C72.6868 24.3181 72.9216 24.2576 73.0882 24.1364C73.2623 24.0153 73.3494 23.86 73.3494 23.6707C73.3494 23.4663 73.2434 23.3148 73.0314 23.2164C72.8269 23.1104 72.4975 22.9968 72.0432 22.8756C71.5737 22.7621 71.1875 22.6447 70.8847 22.5235C70.5893 22.4024 70.3319 22.2169 70.1123 21.967C69.9003 21.7171 69.7943 21.3801 69.7943 20.9561C69.7943 20.6078 69.8927 20.2897 70.0896 20.002C70.294 19.7143 70.5818 19.4871 70.9528 19.3205C71.3314 19.1539 71.7744 19.0706 72.2817 19.0706C73.0314 19.0706 73.6296 19.2599 74.0763 19.6385C74.5231 20.0096 74.7692 20.5131 74.8146 21.1492H73.2926C73.2699 20.8993 73.1639 20.7024 72.9746 20.5586C72.7928 20.4071 72.5467 20.3314 72.2363 20.3314C71.9485 20.3314 71.7252 20.3844 71.5662 20.4904C71.4147 20.5964 71.339 20.7441 71.339 20.9334C71.339 21.1454 71.445 21.3082 71.657 21.4218C71.869 21.5278 72.1984 21.6376 72.6452 21.7512C73.0995 21.8648 73.4743 21.9821 73.7697 22.1033C74.065 22.2244 74.3186 22.4137 74.5307 22.6712C74.7503 22.9211 74.8638 23.2543 74.8714 23.6707C74.8714 24.0342 74.7692 24.3598 74.5647 24.6475C74.3679 24.9353 74.0801 25.1624 73.7015 25.329C73.3305 25.488 72.8951 25.5676 72.3953 25.5676Z" fill="white"/>
<path d="M43.3394 26.6012H75.3939V27.1691H43.3394V26.6012Z" fill="white"/>
<defs>
<linearGradient id="paint0_linear_4202_1113" x1="18.1338" y1="15.2653" x2="32.2798" y2="32.9483" gradientUnits="userSpaceOnUse">
<stop stop-color="#36DFF1"/>
<stop offset="1" stop-color="#0094F0"/>
</linearGradient>
<radialGradient id="paint1_radial_4202_1113" cx="0" cy="0" r="1" gradientUnits="userSpaceOnUse" gradientTransform="translate(26.1338 12.4653) rotate(90) scale(6.16892 6.75)">
<stop stop-color="#0A1852"/>
<stop offset="0.9" stop-color="#0A1852" stop-opacity="0"/>
</radialGradient>
<radialGradient id="paint2_radial_4202_1113" cx="0" cy="0" r="1" gradientUnits="userSpaceOnUse" gradientTransform="translate(26.1338 14.0833) rotate(90) scale(2.79325 4.95298)">
<stop stop-color="#0A1852"/>
<stop offset="1" stop-color="#0A1852" stop-opacity="0"/>
</radialGradient>
<linearGradient id="paint3_linear_4202_1113" x1="26.1338" y1="11.4653" x2="26.1338" y2="15.9653" gradientUnits="userSpaceOnUse">
<stop stop-color="#FFE06B"/>
<stop offset="1" stop-color="#FAB500"/>
</linearGradient>
<linearGradient id="paint4_linear_4202_1113" x1="32.1336" y1="27.9652" x2="24.3986" y2="17.1972" gradientUnits="userSpaceOnUse">
<stop stop-color="#9DEAFF"/>
<stop offset="1" stop-color="white"/>
</linearGradient>
</defs>
</svg>
