<svg width="65" height="50" viewBox="0 0 65 50" fill="none" xmlns="http://www.w3.org/2000/svg">
<rect width="65" height="50" rx="8" fill="#212429" fill-opacity="0.5"/>
<path d="M22 26.505V13.5108C22 13.1281 22.086 12.7658 22.258 12.424C22.43 12.0821 22.667 11.8006 22.969 11.5793L31.0465 5.48287C31.4695 5.16096 31.9525 5 32.4955 5C33.0385 5 33.5245 5.16096 33.9535 5.48287L42.031 11.5778C42.334 11.7991 42.571 12.0811 42.742 12.424C42.914 12.7658 43 13.1281 43 13.5108V26.505C43 26.9057 42.8505 27.255 42.5515 27.553C42.2525 27.851 41.902 28 41.5 28H36.424C36.08 28 35.792 27.8844 35.56 27.6532C35.328 27.4209 35.212 27.1339 35.212 26.7921V19.6626C35.212 19.3207 35.096 19.0342 34.864 18.803C34.631 18.5708 34.343 18.4547 34 18.4547H31C30.657 18.4547 30.3695 18.5708 30.1375 18.803C29.9045 19.0342 29.788 19.3207 29.788 19.6626V26.7936C29.788 27.1354 29.672 27.4219 29.44 27.6532C29.208 27.8844 28.9205 28 28.5775 28H23.5C23.098 28 22.7475 27.851 22.4485 27.553C22.1495 27.255 22 26.9057 22 26.505Z" fill="#FF309B"/>
<path d="M24.8779 34.2734V35.1479H21.481V34.2734H24.8779ZM21.7534 31.6016V38H20.6504V31.6016H21.7534ZM25.7261 31.6016V38H24.6274V31.6016H25.7261ZM26.7324 35.6753V35.5742C26.7324 35.2314 26.7822 34.9136 26.8818 34.6206C26.9814 34.3247 27.125 34.0684 27.3125 33.8516C27.5029 33.6318 27.7344 33.4619 28.0068 33.3418C28.2822 33.2188 28.5928 33.1572 28.9385 33.1572C29.2871 33.1572 29.5977 33.2188 29.8701 33.3418C30.1455 33.4619 30.3784 33.6318 30.5688 33.8516C30.7593 34.0684 30.9043 34.3247 31.0039 34.6206C31.1035 34.9136 31.1533 35.2314 31.1533 35.5742V35.6753C31.1533 36.0181 31.1035 36.3359 31.0039 36.6289C30.9043 36.9219 30.7593 37.1782 30.5688 37.3979C30.3784 37.6147 30.147 37.7847 29.8745 37.9077C29.6021 38.0278 29.293 38.0879 28.9473 38.0879C28.5986 38.0879 28.2866 38.0278 28.0112 37.9077C27.7388 37.7847 27.5073 37.6147 27.3169 37.3979C27.1265 37.1782 26.9814 36.9219 26.8818 36.6289C26.7822 36.3359 26.7324 36.0181 26.7324 35.6753ZM27.7915 35.5742V35.6753C27.7915 35.8892 27.8135 36.0913 27.8574 36.2817C27.9014 36.4722 27.9702 36.6392 28.064 36.7827C28.1577 36.9263 28.2778 37.0391 28.4243 37.1211C28.5708 37.2031 28.7451 37.2441 28.9473 37.2441C29.1436 37.2441 29.3135 37.2031 29.457 37.1211C29.6035 37.0391 29.7236 36.9263 29.8174 36.7827C29.9111 36.6392 29.98 36.4722 30.0239 36.2817C30.0708 36.0913 30.0942 35.8892 30.0942 35.6753V35.5742C30.0942 35.3633 30.0708 35.1641 30.0239 34.9766C29.98 34.7861 29.9097 34.6177 29.813 34.4712C29.7192 34.3247 29.5991 34.2104 29.4526 34.1284C29.3091 34.0435 29.1377 34.001 28.9385 34.001C28.7393 34.001 28.5664 34.0435 28.4199 34.1284C28.2764 34.2104 28.1577 34.3247 28.064 34.4712C27.9702 34.6177 27.9014 34.7861 27.8574 34.9766C27.8135 35.1641 27.7915 35.3633 27.7915 35.5742ZM33.1001 34.2119V38H32.041V33.2451H33.0386L33.1001 34.2119ZM32.9287 35.4468L32.5684 35.4424C32.5684 35.1143 32.6094 34.811 32.6914 34.5327C32.7734 34.2544 32.8936 34.0127 33.0518 33.8076C33.21 33.5996 33.4062 33.4399 33.6406 33.3286C33.8779 33.2144 34.1519 33.1572 34.4624 33.1572C34.6792 33.1572 34.877 33.1895 35.0557 33.2539C35.2373 33.3154 35.394 33.4136 35.5259 33.5483C35.6606 33.6831 35.7632 33.856 35.8335 34.0669C35.9067 34.2778 35.9434 34.5327 35.9434 34.8315V38H34.8843V34.9238C34.8843 34.6924 34.8491 34.5107 34.7788 34.3789C34.7114 34.2471 34.6133 34.1533 34.4844 34.0977C34.3584 34.0391 34.2075 34.0098 34.0317 34.0098C33.8325 34.0098 33.6626 34.0479 33.522 34.124C33.3843 34.2002 33.2715 34.3042 33.1836 34.436C33.0957 34.5679 33.0312 34.7202 32.9902 34.8931C32.9492 35.0659 32.9287 35.2505 32.9287 35.4468ZM35.8774 35.1655L35.3809 35.2754C35.3809 34.9883 35.4204 34.7173 35.4995 34.4624C35.5815 34.2046 35.7002 33.979 35.8555 33.7856C36.0137 33.5894 36.2085 33.4355 36.4399 33.3242C36.6714 33.2129 36.9365 33.1572 37.2354 33.1572C37.4785 33.1572 37.6953 33.1909 37.8857 33.2583C38.0791 33.3228 38.2432 33.4253 38.3779 33.5659C38.5127 33.7065 38.6152 33.8896 38.6855 34.1152C38.7559 34.3379 38.791 34.6074 38.791 34.9238V38H37.7275V34.9194C37.7275 34.6792 37.6924 34.4932 37.6221 34.3613C37.5547 34.2295 37.458 34.1387 37.332 34.0889C37.2061 34.0361 37.0552 34.0098 36.8794 34.0098C36.7153 34.0098 36.5703 34.0405 36.4443 34.1021C36.3213 34.1606 36.2173 34.2441 36.1323 34.3525C36.0474 34.458 35.9829 34.5796 35.939 34.7173C35.8979 34.855 35.8774 35.0044 35.8774 35.1655ZM41.9771 38.0879C41.6255 38.0879 41.3076 38.0308 41.0234 37.9165C40.7422 37.7993 40.502 37.6367 40.3027 37.4287C40.1064 37.2207 39.9556 36.9761 39.8501 36.6948C39.7446 36.4136 39.6919 36.1104 39.6919 35.7852V35.6094C39.6919 35.2373 39.7461 34.9004 39.8545 34.5986C39.9629 34.2969 40.1138 34.0391 40.3071 33.8252C40.5005 33.6084 40.729 33.4429 40.9927 33.3286C41.2563 33.2144 41.542 33.1572 41.8496 33.1572C42.1895 33.1572 42.4868 33.2144 42.7417 33.3286C42.9966 33.4429 43.2075 33.604 43.3745 33.812C43.5444 34.0171 43.6704 34.2617 43.7524 34.5459C43.8374 34.8301 43.8799 35.1436 43.8799 35.4863V35.939H40.2061V35.1787H42.834V35.0952C42.8281 34.9048 42.79 34.7261 42.7197 34.5591C42.6523 34.3921 42.5483 34.2573 42.4077 34.1548C42.2671 34.0522 42.0796 34.001 41.8452 34.001C41.6694 34.001 41.5127 34.0391 41.375 34.1152C41.2402 34.1885 41.1274 34.2954 41.0366 34.436C40.9458 34.5767 40.8755 34.7466 40.8257 34.9458C40.7788 35.1421 40.7554 35.3633 40.7554 35.6094V35.7852C40.7554 35.9932 40.7832 36.1865 40.8389 36.3652C40.8975 36.541 40.9824 36.6948 41.0938 36.8267C41.2051 36.9585 41.3398 37.0625 41.498 37.1387C41.6562 37.2119 41.8364 37.2485 42.0386 37.2485C42.2935 37.2485 42.5205 37.1973 42.7197 37.0947C42.9189 36.9922 43.0918 36.8472 43.2383 36.6597L43.7964 37.2002C43.6938 37.3496 43.5605 37.4932 43.3965 37.6309C43.2324 37.7656 43.0317 37.8755 42.7944 37.9604C42.5601 38.0454 42.2876 38.0879 41.9771 38.0879Z" fill="white"/>
</svg>
