<svg width="25" height="35" viewBox="0 0 25 35" fill="none" xmlns="http://www.w3.org/2000/svg">
<path d="M2 21.505V8.51082C2 8.12811 2.086 7.76583 2.258 7.42399C2.43 7.08214 2.667 6.80058 2.969 6.57933L11.0465 0.482874C11.4695 0.160958 11.9525 0 12.4955 0C13.0385 0 13.5245 0.160958 13.9535 0.482874L22.031 6.57784C22.334 6.79909 22.571 7.08114 22.742 7.42399C22.914 7.76583 23 8.12811 23 8.51082V21.505C23 21.9057 22.8505 22.255 22.5515 22.553C22.2525 22.851 21.902 23 21.5 23H16.424C16.08 23 15.792 22.8844 15.56 22.6532C15.328 22.4209 15.212 22.1339 15.212 21.7921V14.6626C15.212 14.3207 15.096 14.0342 14.864 13.803C14.631 13.5708 14.343 13.4547 14 13.4547H11C10.657 13.4547 10.3695 13.5708 10.1375 13.803C9.9045 14.0342 9.788 14.3207 9.788 14.6626V21.7936C9.788 22.1354 9.672 22.4219 9.44 22.6532C9.208 22.8844 8.9205 23 8.5775 23H3.5C3.098 23 2.7475 22.851 2.4485 22.553C2.1495 22.255 2 21.9057 2 21.505Z" fill="white"/>
<path d="M4.87793 29.2734V30.1479H1.48096V29.2734H4.87793ZM1.75342 26.6016V33H0.650391V26.6016H1.75342ZM5.72607 26.6016V33H4.62744V26.6016H5.72607ZM6.73242 30.6753V30.5742C6.73242 30.2314 6.78223 29.9136 6.88184 29.6206C6.98145 29.3247 7.125 29.0684 7.3125 28.8516C7.50293 28.6318 7.73438 28.4619 8.00684 28.3418C8.28223 28.2188 8.59277 28.1572 8.93848 28.1572C9.28711 28.1572 9.59766 28.2188 9.87012 28.3418C10.1455 28.4619 10.3784 28.6318 10.5688 28.8516C10.7593 29.0684 10.9043 29.3247 11.0039 29.6206C11.1035 29.9136 11.1533 30.2314 11.1533 30.5742V30.6753C11.1533 31.0181 11.1035 31.3359 11.0039 31.6289C10.9043 31.9219 10.7593 32.1782 10.5688 32.3979C10.3784 32.6147 10.147 32.7847 9.87451 32.9077C9.60205 33.0278 9.29297 33.0879 8.94727 33.0879C8.59863 33.0879 8.28662 33.0278 8.01123 32.9077C7.73877 32.7847 7.50732 32.6147 7.31689 32.3979C7.12646 32.1782 6.98145 31.9219 6.88184 31.6289C6.78223 31.3359 6.73242 31.0181 6.73242 30.6753ZM7.7915 30.5742V30.6753C7.7915 30.8892 7.81348 31.0913 7.85742 31.2817C7.90137 31.4722 7.97021 31.6392 8.06396 31.7827C8.15771 31.9263 8.27783 32.0391 8.42432 32.1211C8.5708 32.2031 8.74512 32.2441 8.94727 32.2441C9.14355 32.2441 9.31348 32.2031 9.45703 32.1211C9.60352 32.0391 9.72363 31.9263 9.81738 31.7827C9.91113 31.6392 9.97998 31.4722 10.0239 31.2817C10.0708 31.0913 10.0942 30.8892 10.0942 30.6753V30.5742C10.0942 30.3633 10.0708 30.1641 10.0239 29.9766C9.97998 29.7861 9.90967 29.6177 9.81299 29.4712C9.71924 29.3247 9.59912 29.2104 9.45264 29.1284C9.30908 29.0435 9.1377 29.001 8.93848 29.001C8.73926 29.001 8.56641 29.0435 8.41992 29.1284C8.27637 29.2104 8.15771 29.3247 8.06396 29.4712C7.97021 29.6177 7.90137 29.7861 7.85742 29.9766C7.81348 30.1641 7.7915 30.3633 7.7915 30.5742ZM13.1001 29.2119V33H12.041V28.2451H13.0386L13.1001 29.2119ZM12.9287 30.4468L12.5684 30.4424C12.5684 30.1143 12.6094 29.811 12.6914 29.5327C12.7734 29.2544 12.8936 29.0127 13.0518 28.8076C13.21 28.5996 13.4062 28.4399 13.6406 28.3286C13.8779 28.2144 14.1519 28.1572 14.4624 28.1572C14.6792 28.1572 14.877 28.1895 15.0557 28.2539C15.2373 28.3154 15.394 28.4136 15.5259 28.5483C15.6606 28.6831 15.7632 28.856 15.8335 29.0669C15.9067 29.2778 15.9434 29.5327 15.9434 29.8315V33H14.8843V29.9238C14.8843 29.6924 14.8491 29.5107 14.7788 29.3789C14.7114 29.2471 14.6133 29.1533 14.4844 29.0977C14.3584 29.0391 14.2075 29.0098 14.0317 29.0098C13.8325 29.0098 13.6626 29.0479 13.522 29.124C13.3843 29.2002 13.2715 29.3042 13.1836 29.436C13.0957 29.5679 13.0312 29.7202 12.9902 29.8931C12.9492 30.0659 12.9287 30.2505 12.9287 30.4468ZM15.8774 30.1655L15.3809 30.2754C15.3809 29.9883 15.4204 29.7173 15.4995 29.4624C15.5815 29.2046 15.7002 28.979 15.8555 28.7856C16.0137 28.5894 16.2085 28.4355 16.4399 28.3242C16.6714 28.2129 16.9365 28.1572 17.2354 28.1572C17.4785 28.1572 17.6953 28.1909 17.8857 28.2583C18.0791 28.3228 18.2432 28.4253 18.3779 28.5659C18.5127 28.7065 18.6152 28.8896 18.6855 29.1152C18.7559 29.3379 18.791 29.6074 18.791 29.9238V33H17.7275V29.9194C17.7275 29.6792 17.6924 29.4932 17.6221 29.3613C17.5547 29.2295 17.458 29.1387 17.332 29.0889C17.2061 29.0361 17.0552 29.0098 16.8794 29.0098C16.7153 29.0098 16.5703 29.0405 16.4443 29.1021C16.3213 29.1606 16.2173 29.2441 16.1323 29.3525C16.0474 29.458 15.9829 29.5796 15.939 29.7173C15.8979 29.855 15.8774 30.0044 15.8774 30.1655ZM21.9771 33.0879C21.6255 33.0879 21.3076 33.0308 21.0234 32.9165C20.7422 32.7993 20.502 32.6367 20.3027 32.4287C20.1064 32.2207 19.9556 31.9761 19.8501 31.6948C19.7446 31.4136 19.6919 31.1104 19.6919 30.7852V30.6094C19.6919 30.2373 19.7461 29.9004 19.8545 29.5986C19.9629 29.2969 20.1138 29.0391 20.3071 28.8252C20.5005 28.6084 20.729 28.4429 20.9927 28.3286C21.2563 28.2144 21.542 28.1572 21.8496 28.1572C22.1895 28.1572 22.4868 28.2144 22.7417 28.3286C22.9966 28.4429 23.2075 28.604 23.3745 28.812C23.5444 29.0171 23.6704 29.2617 23.7524 29.5459C23.8374 29.8301 23.8799 30.1436 23.8799 30.4863V30.939H20.2061V30.1787H22.834V30.0952C22.8281 29.9048 22.79 29.7261 22.7197 29.5591C22.6523 29.3921 22.5483 29.2573 22.4077 29.1548C22.2671 29.0522 22.0796 29.001 21.8452 29.001C21.6694 29.001 21.5127 29.0391 21.375 29.1152C21.2402 29.1885 21.1274 29.2954 21.0366 29.436C20.9458 29.5767 20.8755 29.7466 20.8257 29.9458C20.7788 30.1421 20.7554 30.3633 20.7554 30.6094V30.7852C20.7554 30.9932 20.7832 31.1865 20.8389 31.3652C20.8975 31.541 20.9824 31.6948 21.0938 31.8267C21.2051 31.9585 21.3398 32.0625 21.498 32.1387C21.6562 32.2119 21.8364 32.2485 22.0386 32.2485C22.2935 32.2485 22.5205 32.1973 22.7197 32.0947C22.9189 31.9922 23.0918 31.8472 23.2383 31.6597L23.7964 32.2002C23.6938 32.3496 23.5605 32.4932 23.3965 32.6309C23.2324 32.7656 23.0317 32.8755 22.7944 32.9604C22.5601 33.0454 22.2876 33.0879 21.9771 33.0879Z" fill="white"/>
</svg>
