<svg width="266" height="15" viewBox="0 0 266 15" fill="none" xmlns="http://www.w3.org/2000/svg">
<path d="M3.9885 12.09C3.2085 12.09 2.4585 11.965 1.7385 11.715C1.0285 11.455 0.478499 11.125 0.0884992 10.725L0.523499 9.87C0.893499 10.23 1.3885 10.535 2.0085 10.785C2.6385 11.025 3.2985 11.145 3.9885 11.145C4.6485 11.145 5.1835 11.065 5.5935 10.905C6.0135 10.735 6.3185 10.51 6.5085 10.23C6.7085 9.95 6.8085 9.64 6.8085 9.3C6.8085 8.89 6.6885 8.56 6.4485 8.31C6.2185 8.06 5.9135 7.865 5.5335 7.725C5.1535 7.575 4.7335 7.445 4.2735 7.335C3.8135 7.225 3.3535 7.11 2.8935 6.99C2.4335 6.86 2.0085 6.69 1.6185 6.48C1.2385 6.27 0.928499 5.995 0.688499 5.655C0.458499 5.305 0.343499 4.85 0.343499 4.29C0.343499 3.77 0.478499 3.295 0.748499 2.865C1.0285 2.425 1.4535 2.075 2.0235 1.815C2.5935 1.545 3.3235 1.41 4.2135 1.41C4.8035 1.41 5.3885 1.495 5.9685 1.665C6.5485 1.825 7.0485 2.05 7.4685 2.34L7.0935 3.225C6.6435 2.925 6.1635 2.705 5.6535 2.565C5.1535 2.425 4.6685 2.355 4.1985 2.355C3.5685 2.355 3.0485 2.44 2.6385 2.61C2.2285 2.78 1.9235 3.01 1.7235 3.3C1.5335 3.58 1.4385 3.9 1.4385 4.26C1.4385 4.67 1.5535 5 1.7835 5.25C2.0235 5.5 2.3335 5.695 2.7135 5.835C3.1035 5.975 3.5285 6.1 3.9885 6.21C4.4485 6.32 4.9035 6.44 5.3535 6.57C5.8135 6.7 6.2335 6.87 6.6135 7.08C7.0035 7.28 7.3135 7.55 7.5435 7.89C7.7835 8.23 7.9035 8.675 7.9035 9.225C7.9035 9.735 7.7635 10.21 7.4835 10.65C7.2035 11.08 6.7735 11.43 6.1935 11.7C5.6235 11.96 4.8885 12.09 3.9885 12.09ZM12.257 12.075C11.497 12.075 10.812 11.905 10.202 11.565C9.60201 11.215 9.12701 10.74 8.77701 10.14C8.42701 9.53 8.25201 8.835 8.25201 8.055C8.25201 7.265 8.42701 6.57 8.77701 5.97C9.12701 5.37 9.60201 4.9 10.202 4.56C10.802 4.22 11.487 4.05 12.257 4.05C13.037 4.05 13.727 4.22 14.327 4.56C14.937 4.9 15.412 5.37 15.752 5.97C16.102 6.57 16.277 7.265 16.277 8.055C16.277 8.835 16.102 9.53 15.752 10.14C15.412 10.74 14.937 11.215 14.327 11.565C13.717 11.905 13.027 12.075 12.257 12.075ZM12.257 11.13C12.827 11.13 13.332 11.005 13.772 10.755C14.212 10.495 14.557 10.135 14.807 9.675C15.067 9.205 15.197 8.665 15.197 8.055C15.197 7.435 15.067 6.895 14.807 6.435C14.557 5.975 14.212 5.62 13.772 5.37C13.332 5.11 12.832 4.98 12.272 4.98C11.712 4.98 11.212 5.11 10.772 5.37C10.332 5.62 9.98201 5.975 9.72201 6.435C9.46201 6.895 9.33201 7.435 9.33201 8.055C9.33201 8.665 9.46201 9.205 9.72201 9.675C9.98201 10.135 10.332 10.495 10.772 10.755C11.212 11.005 11.707 11.13 12.257 11.13ZM17.4013 12V0.869999H18.4663V12H17.4013ZM22.4046 12L18.9096 4.125H20.0196L23.2296 11.43H22.7046L25.9596 4.125H27.0096L23.4996 12H22.4046ZM27.4595 12V4.125H28.5245V12H27.4595ZM27.9995 2.385C27.7795 2.385 27.5945 2.31 27.4445 2.16C27.2945 2.01 27.2195 1.83 27.2195 1.62C27.2195 1.41 27.2945 1.235 27.4445 1.095C27.5945 0.944999 27.7795 0.869999 27.9995 0.869999C28.2195 0.869999 28.4045 0.939999 28.5545 1.08C28.7045 1.22 28.7795 1.395 28.7795 1.605C28.7795 1.825 28.7045 2.01 28.5545 2.16C28.4145 2.31 28.2295 2.385 27.9995 2.385ZM33.6928 12.075C33.0228 12.075 32.4378 11.95 31.9378 11.7C31.4378 11.45 31.0478 11.075 30.7678 10.575C30.4978 10.075 30.3628 9.45 30.3628 8.7V4.125H31.4278V8.58C31.4278 9.42 31.6328 10.055 32.0428 10.485C32.4628 10.905 33.0478 11.115 33.7978 11.115C34.3478 11.115 34.8228 11.005 35.2228 10.785C35.6328 10.555 35.9428 10.225 36.1528 9.795C36.3728 9.365 36.4828 8.85 36.4828 8.25V4.125H37.5478V12H36.5278V9.84L36.6928 10.23C36.4428 10.81 36.0528 11.265 35.5228 11.595C35.0028 11.915 34.3928 12.075 33.6928 12.075ZM49.306 4.05C49.946 4.05 50.501 4.175 50.971 4.425C51.451 4.665 51.821 5.035 52.081 5.535C52.351 6.035 52.486 6.665 52.486 7.425V12H51.421V7.53C51.421 6.7 51.221 6.075 50.821 5.655C50.431 5.225 49.876 5.01 49.156 5.01C48.616 5.01 48.146 5.125 47.746 5.355C47.356 5.575 47.051 5.9 46.831 6.33C46.621 6.75 46.516 7.26 46.516 7.86V12H45.451V7.53C45.451 6.7 45.251 6.075 44.851 5.655C44.451 5.225 43.891 5.01 43.171 5.01C42.641 5.01 42.176 5.125 41.776 5.355C41.376 5.575 41.066 5.9 40.846 6.33C40.636 6.75 40.531 7.26 40.531 7.86V12H39.466V4.125H40.486V6.255L40.321 5.88C40.561 5.31 40.946 4.865 41.476 4.545C42.016 4.215 42.651 4.05 43.381 4.05C44.151 4.05 44.806 4.245 45.346 4.635C45.886 5.015 46.236 5.59 46.396 6.36L45.976 6.195C46.206 5.555 46.611 5.04 47.191 4.65C47.781 4.25 48.486 4.05 49.306 4.05ZM61.2199 4.05C61.8599 4.05 62.4199 4.175 62.8999 4.425C63.3899 4.665 63.7699 5.035 64.0399 5.535C64.3199 6.035 64.4599 6.665 64.4599 7.425V12H63.3949V7.53C63.3949 6.7 63.1849 6.075 62.7649 5.655C62.3549 5.225 61.7749 5.01 61.0249 5.01C60.4649 5.01 59.9749 5.125 59.5549 5.355C59.1449 5.575 58.8249 5.9 58.5949 6.33C58.3749 6.75 58.2649 7.26 58.2649 7.86V12H57.1999V0.869999H58.2649V6.285L58.0549 5.88C58.3049 5.31 58.7049 4.865 59.2549 4.545C59.8049 4.215 60.4599 4.05 61.2199 4.05ZM66.2867 12V4.125H67.3517V12H66.2867ZM66.8267 2.385C66.6067 2.385 66.4217 2.31 66.2717 2.16C66.1217 2.01 66.0467 1.83 66.0467 1.62C66.0467 1.41 66.1217 1.235 66.2717 1.095C66.4217 0.944999 66.6067 0.869999 66.8267 0.869999C67.0467 0.869999 67.2317 0.939999 67.3817 1.08C67.5317 1.22 67.6067 1.395 67.6067 1.605C67.6067 1.825 67.5317 2.01 67.3817 2.16C67.2417 2.31 67.0567 2.385 66.8267 2.385ZM73.285 4.05C73.925 4.05 74.485 4.175 74.965 4.425C75.455 4.665 75.835 5.035 76.105 5.535C76.385 6.035 76.525 6.665 76.525 7.425V12H75.46V7.53C75.46 6.7 75.25 6.075 74.83 5.655C74.42 5.225 73.84 5.01 73.09 5.01C72.53 5.01 72.04 5.125 71.62 5.355C71.21 5.575 70.89 5.9 70.66 6.33C70.44 6.75 70.33 7.26 70.33 7.86V12H69.265V4.125H70.285V6.285L70.12 5.88C70.37 5.31 70.77 4.865 71.32 4.545C71.87 4.215 72.525 4.05 73.285 4.05ZM81.7117 14.985C80.9917 14.985 80.3017 14.88 79.6417 14.67C78.9817 14.46 78.4467 14.16 78.0367 13.77L78.5767 12.96C78.9467 13.29 79.4017 13.55 79.9417 13.74C80.4917 13.94 81.0717 14.04 81.6817 14.04C82.6817 14.04 83.4167 13.805 83.8867 13.335C84.3567 12.875 84.5917 12.155 84.5917 11.175V9.21L84.7417 7.86L84.6367 6.51V4.125H85.6567V11.04C85.6567 12.4 85.3217 13.395 84.6517 14.025C83.9917 14.665 83.0117 14.985 81.7117 14.985ZM81.5167 11.7C80.7667 11.7 80.0917 11.54 79.4917 11.22C78.8917 10.89 78.4167 10.435 78.0667 9.855C77.7267 9.275 77.5567 8.61 77.5567 7.86C77.5567 7.11 77.7267 6.45 78.0667 5.88C78.4167 5.3 78.8917 4.85 79.4917 4.53C80.0917 4.21 80.7667 4.05 81.5167 4.05C82.2167 4.05 82.8467 4.195 83.4067 4.485C83.9667 4.775 84.4117 5.205 84.7417 5.775C85.0717 6.345 85.2367 7.04 85.2367 7.86C85.2367 8.68 85.0717 9.375 84.7417 9.945C84.4117 10.515 83.9667 10.95 83.4067 11.25C82.8467 11.55 82.2167 11.7 81.5167 11.7ZM81.6217 10.755C82.2017 10.755 82.7167 10.635 83.1667 10.395C83.6167 10.145 83.9717 9.805 84.2317 9.375C84.4917 8.935 84.6217 8.43 84.6217 7.86C84.6217 7.29 84.4917 6.79 84.2317 6.36C83.9717 5.93 83.6167 5.595 83.1667 5.355C82.7167 5.105 82.2017 4.98 81.6217 4.98C81.0517 4.98 80.5367 5.105 80.0767 5.355C79.6267 5.595 79.2717 5.93 79.0117 6.36C78.7617 6.79 78.6367 7.29 78.6367 7.86C78.6367 8.43 78.7617 8.935 79.0117 9.375C79.2717 9.805 79.6267 10.145 80.0767 10.395C80.5367 10.635 81.0517 10.755 81.6217 10.755ZM90.9153 12.075C90.0953 12.075 89.3753 11.905 88.7553 11.565C88.1353 11.215 87.6503 10.74 87.3003 10.14C86.9503 9.53 86.7753 8.835 86.7753 8.055C86.7753 7.275 86.9403 6.585 87.2703 5.985C87.6103 5.385 88.0703 4.915 88.6503 4.575C89.2403 4.225 89.9003 4.05 90.6303 4.05C91.3703 4.05 92.0253 4.22 92.5953 4.56C93.1753 4.89 93.6303 5.36 93.9603 5.97C94.2903 6.57 94.4553 7.265 94.4553 8.055C94.4553 8.105 94.4503 8.16 94.4403 8.22C94.4403 8.27 94.4403 8.325 94.4403 8.385H87.5853V7.59H93.8703L93.4503 7.905C93.4503 7.335 93.3253 6.83 93.0753 6.39C92.8353 5.94 92.5053 5.59 92.0853 5.34C91.6653 5.09 91.1803 4.965 90.6303 4.965C90.0903 4.965 89.6053 5.09 89.1753 5.34C88.7453 5.59 88.4103 5.94 88.1703 6.39C87.9303 6.84 87.8103 7.355 87.8103 7.935V8.1C87.8103 8.7 87.9403 9.23 88.2003 9.69C88.4703 10.14 88.8403 10.495 89.3103 10.755C89.7903 11.005 90.3353 11.13 90.9453 11.13C91.4253 11.13 91.8703 11.045 92.2803 10.875C92.7003 10.705 93.0603 10.445 93.3603 10.095L93.9603 10.785C93.6103 11.205 93.1703 11.525 92.6403 11.745C92.1203 11.965 91.5453 12.075 90.9153 12.075ZM97.688 12.075C97.038 12.075 96.423 11.985 95.843 11.805C95.263 11.615 94.808 11.38 94.478 11.1L94.958 10.26C95.278 10.5 95.688 10.71 96.188 10.89C96.688 11.06 97.213 11.145 97.763 11.145C98.513 11.145 99.053 11.03 99.383 10.8C99.713 10.56 99.878 10.245 99.878 9.855C99.878 9.565 99.783 9.34 99.593 9.18C99.413 9.01 99.173 8.885 98.873 8.805C98.573 8.715 98.238 8.64 97.868 8.58C97.498 8.52 97.128 8.45 96.758 8.37C96.398 8.29 96.068 8.175 95.768 8.025C95.468 7.865 95.223 7.65 95.033 7.38C94.853 7.11 94.763 6.75 94.763 6.3C94.763 5.87 94.883 5.485 95.123 5.145C95.363 4.805 95.713 4.54 96.173 4.35C96.643 4.15 97.213 4.05 97.883 4.05C98.393 4.05 98.903 4.12 99.413 4.26C99.923 4.39 100.343 4.565 100.673 4.785L100.208 5.64C99.858 5.4 99.483 5.23 99.083 5.13C98.683 5.02 98.283 4.965 97.883 4.965C97.173 4.965 96.648 5.09 96.308 5.34C95.978 5.58 95.813 5.89 95.813 6.27C95.813 6.57 95.903 6.805 96.083 6.975C96.273 7.145 96.518 7.28 96.818 7.38C97.128 7.47 97.463 7.545 97.823 7.605C98.193 7.665 98.558 7.74 98.918 7.83C99.288 7.91 99.623 8.025 99.923 8.175C100.233 8.315 100.478 8.52 100.658 8.79C100.848 9.05 100.943 9.395 100.943 9.825C100.943 10.285 100.813 10.685 100.553 11.025C100.303 11.355 99.933 11.615 99.443 11.805C98.963 11.985 98.378 12.075 97.688 12.075ZM107.933 12.075C107.173 12.075 106.488 11.905 105.878 11.565C105.278 11.215 104.803 10.74 104.453 10.14C104.103 9.53 103.928 8.835 103.928 8.055C103.928 7.265 104.103 6.57 104.453 5.97C104.803 5.37 105.278 4.9 105.878 4.56C106.478 4.22 107.163 4.05 107.933 4.05C108.713 4.05 109.403 4.22 110.003 4.56C110.613 4.9 111.088 5.37 111.428 5.97C111.778 6.57 111.953 7.265 111.953 8.055C111.953 8.835 111.778 9.53 111.428 10.14C111.088 10.74 110.613 11.215 110.003 11.565C109.393 11.905 108.703 12.075 107.933 12.075ZM107.933 11.13C108.503 11.13 109.008 11.005 109.448 10.755C109.888 10.495 110.233 10.135 110.483 9.675C110.743 9.205 110.873 8.665 110.873 8.055C110.873 7.435 110.743 6.895 110.483 6.435C110.233 5.975 109.888 5.62 109.448 5.37C109.008 5.11 108.508 4.98 107.948 4.98C107.388 4.98 106.888 5.11 106.448 5.37C106.008 5.62 105.658 5.975 105.398 6.435C105.138 6.895 105.008 7.435 105.008 8.055C105.008 8.665 105.138 9.205 105.398 9.675C105.658 10.135 106.008 10.495 106.448 10.755C106.888 11.005 107.383 11.13 107.933 11.13ZM117.097 4.05C117.737 4.05 118.297 4.175 118.777 4.425C119.267 4.665 119.647 5.035 119.917 5.535C120.197 6.035 120.337 6.665 120.337 7.425V12H119.272V7.53C119.272 6.7 119.062 6.075 118.642 5.655C118.232 5.225 117.652 5.01 116.902 5.01C116.342 5.01 115.852 5.125 115.432 5.355C115.022 5.575 114.702 5.9 114.472 6.33C114.252 6.75 114.142 7.26 114.142 7.86V12H113.077V4.125H114.097V6.285L113.932 5.88C114.182 5.31 114.582 4.865 115.132 4.545C115.682 4.215 116.337 4.05 117.097 4.05ZM126.855 14.91C126.305 14 125.875 12.95 125.565 11.76C125.265 10.56 125.115 9.27 125.115 7.89C125.115 6.51 125.265 5.22 125.565 4.02C125.875 2.81 126.305 1.76 126.855 0.869999H127.875C127.285 1.9 126.85 2.995 126.57 4.155C126.3 5.305 126.165 6.55 126.165 7.89C126.165 9.23 126.3 10.48 126.57 11.64C126.85 12.79 127.285 13.88 127.875 14.91H126.855ZM127.471 12L132.271 1.5H133.366L138.166 12H136.996L132.586 2.145H133.036L128.626 12H127.471ZM129.361 9.195L129.691 8.295H135.796L136.126 9.195H129.361ZM138.853 12V1.5H139.963V12H138.853ZM141.52 8.4V7.47H145.45V8.4H141.52ZM150.847 12.075C150.167 12.075 149.552 11.92 149.002 11.61C148.452 11.29 148.012 10.835 147.682 10.245C147.362 9.645 147.202 8.915 147.202 8.055C147.202 7.195 147.362 6.47 147.682 5.88C148.002 5.28 148.437 4.825 148.987 4.515C149.537 4.205 150.157 4.05 150.847 4.05C151.597 4.05 152.267 4.22 152.857 4.56C153.457 4.89 153.927 5.36 154.267 5.97C154.607 6.57 154.777 7.265 154.777 8.055C154.777 8.855 154.607 9.555 154.267 10.155C153.927 10.755 153.457 11.225 152.857 11.565C152.267 11.905 151.597 12.075 150.847 12.075ZM146.782 14.91V4.125H147.802V6.495L147.697 8.07L147.847 9.66V14.91H146.782ZM150.772 11.13C151.332 11.13 151.832 11.005 152.272 10.755C152.712 10.495 153.062 10.135 153.322 9.675C153.582 9.205 153.712 8.665 153.712 8.055C153.712 7.445 153.582 6.91 153.322 6.45C153.062 5.99 152.712 5.63 152.272 5.37C151.832 5.11 151.332 4.98 150.772 4.98C150.212 4.98 149.707 5.11 149.257 5.37C148.817 5.63 148.467 5.99 148.207 6.45C147.957 6.91 147.832 7.445 147.832 8.055C147.832 8.665 147.957 9.205 148.207 9.675C148.467 10.135 148.817 10.495 149.257 10.755C149.707 11.005 150.212 11.13 150.772 11.13ZM159.108 12.075C158.348 12.075 157.663 11.905 157.053 11.565C156.453 11.215 155.978 10.74 155.628 10.14C155.278 9.53 155.103 8.835 155.103 8.055C155.103 7.265 155.278 6.57 155.628 5.97C155.978 5.37 156.453 4.9 157.053 4.56C157.653 4.22 158.338 4.05 159.108 4.05C159.888 4.05 160.578 4.22 161.178 4.56C161.788 4.9 162.263 5.37 162.603 5.97C162.953 6.57 163.128 7.265 163.128 8.055C163.128 8.835 162.953 9.53 162.603 10.14C162.263 10.74 161.788 11.215 161.178 11.565C160.568 11.905 159.878 12.075 159.108 12.075ZM159.108 11.13C159.678 11.13 160.183 11.005 160.623 10.755C161.063 10.495 161.408 10.135 161.658 9.675C161.918 9.205 162.048 8.665 162.048 8.055C162.048 7.435 161.918 6.895 161.658 6.435C161.408 5.975 161.063 5.62 160.623 5.37C160.183 5.11 159.683 4.98 159.123 4.98C158.563 4.98 158.063 5.11 157.623 5.37C157.183 5.62 156.833 5.975 156.573 6.435C156.313 6.895 156.183 7.435 156.183 8.055C156.183 8.665 156.313 9.205 156.573 9.675C156.833 10.135 157.183 10.495 157.623 10.755C158.063 11.005 158.558 11.13 159.108 11.13ZM165.638 12L162.668 4.125H163.688L166.388 11.43H165.923L168.698 4.125H169.613L172.358 11.43H171.893L174.638 4.125H175.613L172.628 12H171.623L168.983 5.13H169.298L166.643 12H165.638ZM179.292 12.075C178.472 12.075 177.752 11.905 177.132 11.565C176.512 11.215 176.027 10.74 175.677 10.14C175.327 9.53 175.152 8.835 175.152 8.055C175.152 7.275 175.317 6.585 175.647 5.985C175.987 5.385 176.447 4.915 177.027 4.575C177.617 4.225 178.277 4.05 179.007 4.05C179.747 4.05 180.402 4.22 180.972 4.56C181.552 4.89 182.007 5.36 182.337 5.97C182.667 6.57 182.832 7.265 182.832 8.055C182.832 8.105 182.827 8.16 182.817 8.22C182.817 8.27 182.817 8.325 182.817 8.385H175.962V7.59H182.247L181.827 7.905C181.827 7.335 181.702 6.83 181.452 6.39C181.212 5.94 180.882 5.59 180.462 5.34C180.042 5.09 179.557 4.965 179.007 4.965C178.467 4.965 177.982 5.09 177.552 5.34C177.122 5.59 176.787 5.94 176.547 6.39C176.307 6.84 176.187 7.355 176.187 7.935V8.1C176.187 8.7 176.317 9.23 176.577 9.69C176.847 10.14 177.217 10.495 177.687 10.755C178.167 11.005 178.712 11.13 179.322 11.13C179.802 11.13 180.247 11.045 180.657 10.875C181.077 10.705 181.437 10.445 181.737 10.095L182.337 10.785C181.987 11.205 181.547 11.525 181.017 11.745C180.497 11.965 179.922 12.075 179.292 12.075ZM183.949 12V4.125H184.969V6.27L184.864 5.895C185.084 5.295 185.454 4.84 185.974 4.53C186.494 4.21 187.139 4.05 187.909 4.05V5.085C187.869 5.085 187.829 5.085 187.789 5.085C187.749 5.075 187.709 5.07 187.669 5.07C186.839 5.07 186.189 5.325 185.719 5.835C185.249 6.335 185.014 7.05 185.014 7.98V12H183.949ZM192.074 12.075C191.254 12.075 190.534 11.905 189.914 11.565C189.294 11.215 188.809 10.74 188.459 10.14C188.109 9.53 187.934 8.835 187.934 8.055C187.934 7.275 188.099 6.585 188.429 5.985C188.769 5.385 189.229 4.915 189.809 4.575C190.399 4.225 191.059 4.05 191.789 4.05C192.529 4.05 193.184 4.22 193.754 4.56C194.334 4.89 194.789 5.36 195.119 5.97C195.449 6.57 195.614 7.265 195.614 8.055C195.614 8.105 195.609 8.16 195.599 8.22C195.599 8.27 195.599 8.325 195.599 8.385H188.744V7.59H195.029L194.609 7.905C194.609 7.335 194.484 6.83 194.234 6.39C193.994 5.94 193.664 5.59 193.244 5.34C192.824 5.09 192.339 4.965 191.789 4.965C191.249 4.965 190.764 5.09 190.334 5.34C189.904 5.59 189.569 5.94 189.329 6.39C189.089 6.84 188.969 7.355 188.969 7.935V8.1C188.969 8.7 189.099 9.23 189.359 9.69C189.629 10.14 189.999 10.495 190.469 10.755C190.949 11.005 191.494 11.13 192.104 11.13C192.584 11.13 193.029 11.045 193.439 10.875C193.859 10.705 194.219 10.445 194.519 10.095L195.119 10.785C194.769 11.205 194.329 11.525 193.799 11.745C193.279 11.965 192.704 12.075 192.074 12.075ZM199.867 12.075C199.117 12.075 198.442 11.905 197.842 11.565C197.252 11.225 196.787 10.755 196.447 10.155C196.107 9.545 195.937 8.845 195.937 8.055C195.937 7.255 196.107 6.555 196.447 5.955C196.787 5.355 197.252 4.89 197.842 4.56C198.442 4.22 199.117 4.05 199.867 4.05C200.557 4.05 201.172 4.205 201.712 4.515C202.262 4.825 202.697 5.28 203.017 5.88C203.347 6.47 203.512 7.195 203.512 8.055C203.512 8.905 203.352 9.63 203.032 10.23C202.712 10.83 202.277 11.29 201.727 11.61C201.187 11.92 200.567 12.075 199.867 12.075ZM199.942 11.13C200.502 11.13 201.002 11.005 201.442 10.755C201.892 10.495 202.242 10.135 202.492 9.675C202.752 9.205 202.882 8.665 202.882 8.055C202.882 7.435 202.752 6.895 202.492 6.435C202.242 5.975 201.892 5.62 201.442 5.37C201.002 5.11 200.502 4.98 199.942 4.98C199.392 4.98 198.897 5.11 198.457 5.37C198.017 5.62 197.667 5.975 197.407 6.435C197.147 6.895 197.017 7.435 197.017 8.055C197.017 8.665 197.147 9.205 197.407 9.675C197.667 10.135 198.017 10.495 198.457 10.755C198.897 11.005 199.392 11.13 199.942 11.13ZM202.912 12V9.63L203.017 8.04L202.867 6.45V0.869999H203.932V12H202.912ZM213.554 12.09C212.754 12.09 212.014 11.96 211.334 11.7C210.664 11.43 210.079 11.055 209.579 10.575C209.089 10.095 208.704 9.53 208.424 8.88C208.154 8.23 208.019 7.52 208.019 6.75C208.019 5.98 208.154 5.27 208.424 4.62C208.704 3.97 209.094 3.405 209.594 2.925C210.094 2.445 210.679 2.075 211.349 1.815C212.029 1.545 212.769 1.41 213.569 1.41C214.369 1.41 215.099 1.535 215.759 1.785C216.429 2.035 216.999 2.415 217.469 2.925L216.779 3.63C216.339 3.19 215.854 2.875 215.324 2.685C214.794 2.495 214.224 2.4 213.614 2.4C212.964 2.4 212.364 2.51 211.814 2.73C211.274 2.94 210.799 3.245 210.389 3.645C209.989 4.035 209.674 4.495 209.444 5.025C209.224 5.545 209.114 6.12 209.114 6.75C209.114 7.37 209.224 7.945 209.444 8.475C209.674 9.005 209.989 9.47 210.389 9.87C210.799 10.26 211.274 10.565 211.814 10.785C212.364 10.995 212.959 11.1 213.599 11.1C214.199 11.1 214.764 11.01 215.294 10.83C215.834 10.65 216.329 10.345 216.779 9.915L217.409 10.755C216.909 11.195 216.324 11.53 215.654 11.76C214.984 11.98 214.284 12.09 213.554 12.09ZM216.344 10.62V6.75H217.409V10.755L216.344 10.62ZM224.211 12V10.26L224.166 9.975V7.065C224.166 6.395 223.976 5.88 223.596 5.52C223.226 5.16 222.671 4.98 221.931 4.98C221.421 4.98 220.936 5.065 220.476 5.235C220.016 5.405 219.626 5.63 219.306 5.91L218.826 5.115C219.226 4.775 219.706 4.515 220.266 4.335C220.826 4.145 221.416 4.05 222.036 4.05C223.056 4.05 223.841 4.305 224.391 4.815C224.951 5.315 225.231 6.08 225.231 7.11V12H224.211ZM221.496 12.075C220.906 12.075 220.391 11.98 219.951 11.79C219.521 11.59 219.191 11.32 218.961 10.98C218.731 10.63 218.616 10.23 218.616 9.78C218.616 9.37 218.711 9 218.901 8.67C219.101 8.33 219.421 8.06 219.861 7.86C220.311 7.65 220.911 7.545 221.661 7.545H224.376V8.34H221.691C220.931 8.34 220.401 8.475 220.101 8.745C219.811 9.015 219.666 9.35 219.666 9.75C219.666 10.2 219.841 10.56 220.191 10.83C220.541 11.1 221.031 11.235 221.661 11.235C222.261 11.235 222.776 11.1 223.206 10.83C223.646 10.55 223.966 10.15 224.166 9.63L224.406 10.365C224.206 10.885 223.856 11.3 223.356 11.61C222.866 11.92 222.246 12.075 221.496 12.075ZM236.913 4.05C237.553 4.05 238.108 4.175 238.578 4.425C239.058 4.665 239.428 5.035 239.688 5.535C239.958 6.035 240.093 6.665 240.093 7.425V12H239.028V7.53C239.028 6.7 238.828 6.075 238.428 5.655C238.038 5.225 237.483 5.01 236.763 5.01C236.223 5.01 235.753 5.125 235.353 5.355C234.963 5.575 234.658 5.9 234.438 6.33C234.228 6.75 234.123 7.26 234.123 7.86V12H233.058V7.53C233.058 6.7 232.858 6.075 232.458 5.655C232.058 5.225 231.498 5.01 230.778 5.01C230.248 5.01 229.783 5.125 229.383 5.355C228.983 5.575 228.673 5.9 228.453 6.33C228.243 6.75 228.138 7.26 228.138 7.86V12H227.073V4.125H228.093V6.255L227.928 5.88C228.168 5.31 228.553 4.865 229.083 4.545C229.623 4.215 230.258 4.05 230.988 4.05C231.758 4.05 232.413 4.245 232.953 4.635C233.493 5.015 233.843 5.59 234.003 6.36L233.583 6.195C233.813 5.555 234.218 5.04 234.798 4.65C235.388 4.25 236.093 4.05 236.913 4.05ZM241.931 12V4.125H242.996V12H241.931ZM242.471 2.385C242.251 2.385 242.066 2.31 241.916 2.16C241.766 2.01 241.691 1.83 241.691 1.62C241.691 1.41 241.766 1.235 241.916 1.095C242.066 0.944999 242.251 0.869999 242.471 0.869999C242.691 0.869999 242.876 0.939999 243.026 1.08C243.176 1.22 243.251 1.395 243.251 1.605C243.251 1.825 243.176 2.01 243.026 2.16C242.886 2.31 242.701 2.385 242.471 2.385ZM248.93 4.05C249.57 4.05 250.13 4.175 250.61 4.425C251.1 4.665 251.48 5.035 251.75 5.535C252.03 6.035 252.17 6.665 252.17 7.425V12H251.105V7.53C251.105 6.7 250.895 6.075 250.475 5.655C250.065 5.225 249.485 5.01 248.735 5.01C248.175 5.01 247.685 5.125 247.265 5.355C246.855 5.575 246.535 5.9 246.305 6.33C246.085 6.75 245.975 7.26 245.975 7.86V12H244.91V4.125H245.93V6.285L245.765 5.88C246.015 5.31 246.415 4.865 246.965 4.545C247.515 4.215 248.17 4.05 248.93 4.05ZM257.356 14.985C256.636 14.985 255.946 14.88 255.286 14.67C254.626 14.46 254.091 14.16 253.681 13.77L254.221 12.96C254.591 13.29 255.046 13.55 255.586 13.74C256.136 13.94 256.716 14.04 257.326 14.04C258.326 14.04 259.061 13.805 259.531 13.335C260.001 12.875 260.236 12.155 260.236 11.175V9.21L260.386 7.86L260.281 6.51V4.125H261.301V11.04C261.301 12.4 260.966 13.395 260.296 14.025C259.636 14.665 258.656 14.985 257.356 14.985ZM257.161 11.7C256.411 11.7 255.736 11.54 255.136 11.22C254.536 10.89 254.061 10.435 253.711 9.855C253.371 9.275 253.201 8.61 253.201 7.86C253.201 7.11 253.371 6.45 253.711 5.88C254.061 5.3 254.536 4.85 255.136 4.53C255.736 4.21 256.411 4.05 257.161 4.05C257.861 4.05 258.491 4.195 259.051 4.485C259.611 4.775 260.056 5.205 260.386 5.775C260.716 6.345 260.881 7.04 260.881 7.86C260.881 8.68 260.716 9.375 260.386 9.945C260.056 10.515 259.611 10.95 259.051 11.25C258.491 11.55 257.861 11.7 257.161 11.7ZM257.266 10.755C257.846 10.755 258.361 10.635 258.811 10.395C259.261 10.145 259.616 9.805 259.876 9.375C260.136 8.935 260.266 8.43 260.266 7.86C260.266 7.29 260.136 6.79 259.876 6.36C259.616 5.93 259.261 5.595 258.811 5.355C258.361 5.105 257.846 4.98 257.266 4.98C256.696 4.98 256.181 5.105 255.721 5.355C255.271 5.595 254.916 5.93 254.656 6.36C254.406 6.79 254.281 7.29 254.281 7.86C254.281 8.43 254.406 8.935 254.656 9.375C254.916 9.805 255.271 10.145 255.721 10.395C256.181 10.635 256.696 10.755 257.266 10.755ZM263.35 14.91H262.33C262.93 13.88 263.365 12.79 263.635 11.64C263.915 10.48 264.055 9.23 264.055 7.89C264.055 6.55 263.915 5.305 263.635 4.155C263.365 2.995 262.93 1.9 262.33 0.869999H263.35C263.92 1.76 264.355 2.81 264.655 4.02C264.955 5.22 265.105 6.51 265.105 7.89C265.105 9.27 264.955 10.56 264.655 11.76C264.355 12.95 263.92 14 263.35 14.91Z" fill="#BDECFB"/>
</svg>
