<svg width="306" height="98" viewBox="0 0 306 98" fill="none" xmlns="http://www.w3.org/2000/svg">
<path d="M67.6913 26L59.4313 1.5H62.0913L69.8263 24.565H68.4963L76.4763 1.5H78.8563L86.7313 24.565H85.4713L93.2763 1.5H95.7613L87.5013 26H84.7713L77.2463 4.125H77.9463L70.3863 26H67.6913ZM103.939 26.175C102.025 26.175 100.345 25.7783 98.8987 24.985C97.4521 24.1683 96.3204 23.06 95.5037 21.66C94.6871 20.2367 94.2787 18.615 94.2787 16.795C94.2787 14.975 94.6637 13.365 95.4337 11.965C96.2271 10.565 97.3004 9.46833 98.6537 8.675C100.03 7.85833 101.57 7.45 103.274 7.45C105 7.45 106.529 7.84667 107.859 8.64C109.212 9.41 110.274 10.5067 111.044 11.93C111.814 13.33 112.199 14.9517 112.199 16.795C112.199 16.9117 112.187 17.04 112.164 17.18C112.164 17.2967 112.164 17.425 112.164 17.565H96.1687V15.71H110.834L109.854 16.445C109.854 15.115 109.562 13.9367 108.979 12.91C108.419 11.86 107.649 11.0433 106.669 10.46C105.689 9.87667 104.557 9.585 103.274 9.585C102.014 9.585 100.882 9.87667 99.8787 10.46C98.8754 11.0433 98.0937 11.86 97.5337 12.91C96.9737 13.96 96.6937 15.1617 96.6937 16.515V16.9C96.6937 18.3 96.9971 19.5367 97.6037 20.61C98.2337 21.66 99.0971 22.4883 100.194 23.095C101.314 23.6783 102.585 23.97 104.009 23.97C105.129 23.97 106.167 23.7717 107.124 23.375C108.104 22.9783 108.944 22.3717 109.644 21.555L111.044 23.165C110.227 24.145 109.2 24.8917 107.964 25.405C106.75 25.9183 105.409 26.175 103.939 26.175ZM114.807 26V0.0299985H117.292V26H114.807ZM129.386 26.175C127.566 26.175 125.933 25.7783 124.486 24.985C123.063 24.1683 121.943 23.06 121.126 21.66C120.31 20.2367 119.901 18.615 119.901 16.795C119.901 14.9517 120.31 13.33 121.126 11.93C121.943 10.53 123.063 9.43333 124.486 8.64C125.933 7.84667 127.566 7.45 129.386 7.45C130.95 7.45 132.361 7.75333 133.621 8.36C134.881 8.96667 135.873 9.87667 136.596 11.09L134.741 12.35C134.111 11.4167 133.33 10.7283 132.396 10.285C131.463 9.84167 130.448 9.62 129.351 9.62C128.045 9.62 126.866 9.92333 125.816 10.53C124.766 11.1133 123.938 11.9417 123.331 13.015C122.725 14.0883 122.421 15.3483 122.421 16.795C122.421 18.2417 122.725 19.5017 123.331 20.575C123.938 21.6483 124.766 22.4883 125.816 23.095C126.866 23.6783 128.045 23.97 129.351 23.97C130.448 23.97 131.463 23.7483 132.396 23.305C133.33 22.8617 134.111 22.185 134.741 21.275L136.596 22.535C135.873 23.725 134.881 24.635 133.621 25.265C132.361 25.8717 130.95 26.175 129.386 26.175ZM146.21 26.175C144.437 26.175 142.839 25.7783 141.415 24.985C140.015 24.1683 138.907 23.06 138.09 21.66C137.274 20.2367 136.865 18.615 136.865 16.795C136.865 14.9517 137.274 13.33 138.09 11.93C138.907 10.53 140.015 9.43333 141.415 8.64C142.815 7.84667 144.414 7.45 146.21 7.45C148.03 7.45 149.64 7.84667 151.04 8.64C152.464 9.43333 153.572 10.53 154.365 11.93C155.182 13.33 155.59 14.9517 155.59 16.795C155.59 18.615 155.182 20.2367 154.365 21.66C153.572 23.06 152.464 24.1683 151.04 24.985C149.617 25.7783 148.007 26.175 146.21 26.175ZM146.21 23.97C147.54 23.97 148.719 23.6783 149.745 23.095C150.772 22.4883 151.577 21.6483 152.16 20.575C152.767 19.4783 153.07 18.2183 153.07 16.795C153.07 15.3483 152.767 14.0883 152.16 13.015C151.577 11.9417 150.772 11.1133 149.745 10.53C148.719 9.92333 147.552 9.62 146.245 9.62C144.939 9.62 143.772 9.92333 142.745 10.53C141.719 11.1133 140.902 11.9417 140.295 13.015C139.689 14.0883 139.385 15.3483 139.385 16.795C139.385 18.2183 139.689 19.4783 140.295 20.575C140.902 21.6483 141.719 22.4883 142.745 23.095C143.772 23.6783 144.927 23.97 146.21 23.97ZM181.174 7.45C182.667 7.45 183.962 7.74167 185.059 8.325C186.179 8.885 187.042 9.74833 187.649 10.915C188.279 12.0817 188.594 13.5517 188.594 15.325V26H186.109V15.57C186.109 13.6333 185.642 12.175 184.709 11.195C183.799 10.1917 182.504 9.69 180.824 9.69C179.564 9.69 178.467 9.95833 177.534 10.495C176.624 11.0083 175.912 11.7667 175.399 12.77C174.909 13.75 174.664 14.94 174.664 16.34V26H172.179V15.57C172.179 13.6333 171.712 12.175 170.779 11.195C169.845 10.1917 168.539 9.69 166.859 9.69C165.622 9.69 164.537 9.95833 163.604 10.495C162.67 11.0083 161.947 11.7667 161.434 12.77C160.944 13.75 160.699 14.94 160.699 16.34V26H158.214V7.625H160.594V12.595L160.209 11.72C160.769 10.39 161.667 9.35167 162.904 8.605C164.164 7.835 165.645 7.45 167.349 7.45C169.145 7.45 170.674 7.905 171.934 8.815C173.194 9.70167 174.01 11.0433 174.384 12.84L173.404 12.455C173.94 10.9617 174.885 9.76 176.239 8.85C177.615 7.91667 179.26 7.45 181.174 7.45ZM200.688 26.175C198.774 26.175 197.094 25.7783 195.648 24.985C194.201 24.1683 193.069 23.06 192.253 21.66C191.436 20.2367 191.028 18.615 191.028 16.795C191.028 14.975 191.413 13.365 192.183 11.965C192.976 10.565 194.049 9.46833 195.403 8.675C196.779 7.85833 198.319 7.45 200.023 7.45C201.749 7.45 203.278 7.84667 204.608 8.64C205.961 9.41 207.023 10.5067 207.793 11.93C208.563 13.33 208.948 14.9517 208.948 16.795C208.948 16.9117 208.936 17.04 208.913 17.18C208.913 17.2967 208.913 17.425 208.913 17.565H192.918V15.71H207.583L206.603 16.445C206.603 15.115 206.311 13.9367 205.728 12.91C205.168 11.86 204.398 11.0433 203.418 10.46C202.438 9.87667 201.306 9.585 200.023 9.585C198.763 9.585 197.631 9.87667 196.628 10.46C195.624 11.0433 194.843 11.86 194.283 12.91C193.723 13.96 193.443 15.1617 193.443 16.515V16.9C193.443 18.3 193.746 19.5367 194.353 20.61C194.983 21.66 195.846 22.4883 196.943 23.095C198.063 23.6783 199.334 23.97 200.758 23.97C201.878 23.97 202.916 23.7717 203.873 23.375C204.853 22.9783 205.693 22.3717 206.393 21.555L207.793 23.165C206.976 24.145 205.949 24.8917 204.713 25.405C203.499 25.9183 202.158 26.175 200.688 26.175ZM224.076 26.175C222.349 26.175 221.019 25.7083 220.086 24.775C219.153 23.8417 218.686 22.5233 218.686 20.82V3.565H221.171V20.68C221.171 21.7533 221.439 22.5817 221.976 23.165C222.536 23.7483 223.329 24.04 224.356 24.04C225.453 24.04 226.363 23.725 227.086 23.095L227.961 24.88C227.471 25.3233 226.876 25.65 226.176 25.86C225.499 26.07 224.799 26.175 224.076 26.175ZM215.396 9.69V7.625H226.771V9.69H215.396ZM236.875 26.175C235.102 26.175 233.504 25.7783 232.08 24.985C230.68 24.1683 229.572 23.06 228.755 21.66C227.939 20.2367 227.53 18.615 227.53 16.795C227.53 14.9517 227.939 13.33 228.755 11.93C229.572 10.53 230.68 9.43333 232.08 8.64C233.48 7.84667 235.079 7.45 236.875 7.45C238.695 7.45 240.305 7.84667 241.705 8.64C243.129 9.43333 244.237 10.53 245.03 11.93C245.847 13.33 246.255 14.9517 246.255 16.795C246.255 18.615 245.847 20.2367 245.03 21.66C244.237 23.06 243.129 24.1683 241.705 24.985C240.282 25.7783 238.672 26.175 236.875 26.175ZM236.875 23.97C238.205 23.97 239.384 23.6783 240.41 23.095C241.437 22.4883 242.242 21.6483 242.825 20.575C243.432 19.4783 243.735 18.2183 243.735 16.795C243.735 15.3483 243.432 14.0883 242.825 13.015C242.242 11.9417 241.437 11.1133 240.41 10.53C239.384 9.92333 238.217 9.62 236.91 9.62C235.604 9.62 234.437 9.92333 233.41 10.53C232.384 11.1133 231.567 11.9417 230.96 13.015C230.354 14.0883 230.05 15.3483 230.05 16.795C230.05 18.2183 230.354 19.4783 230.96 20.575C231.567 21.6483 232.384 22.4883 233.41 23.095C234.437 23.6783 235.592 23.97 236.875 23.97Z" fill="#BDECFB"/>
<path d="M5.96 65.44V62.04H2.44V56.56H7.52V60H16.56V55.16H5.96V51.76H2.44V42.92H5.96V39.48H18.12V42.92H21.68V48.36H16.56V44.96H7.52V49.76H18.12V53.12H21.68V62.04H18.12V65.44H5.96ZM30.0616 65.44V62.04H26.5416V42.92H30.0616V39.48H42.2216V42.92H45.7816V62.04H42.2216V65.44H30.0616ZM31.6216 60H40.6616V44.96H31.6216V60ZM54.1631 65.44V62.04H50.6431V39.48H55.7231V60H64.7631V56.56H69.8831V62.04H66.3231V65.44H54.1631ZM81.7847 65.44V62.04H78.2647V55.16H74.7447V39.48H79.8247V53.12H83.3447V60H85.3447V53.12H88.8647V39.48H93.9847V55.16H90.4247V62.04H86.9047V65.44H81.7847ZM98.8463 65.44V60H102.366V44.96H98.8463V39.48H111.006V44.96H107.446V60H111.006V65.44H98.8463ZM119.398 65.44V62.04H115.878V39.48H120.958V60H129.998V39.48H135.118V62.04H131.558V65.44H119.398ZM139.198 65.44V42.92H142.718V39.48H147.798V42.92H151.358V49.76H153.318V42.92H156.878V39.48H161.998V42.92H165.478V65.44H160.438V44.96H158.438V51.76H154.878V62.04H149.798V51.76H146.238V44.96H144.278V65.44H139.198ZM181.898 65.44V62.04H178.378V42.92H181.898V39.48H194.058V42.92H197.618V51.76H192.498V44.96H183.458V60H192.498V58.6H188.978V55.16H185.418V49.76H190.538V53.12H197.618V62.04H194.058V65.44H181.898ZM202.479 65.44V46.32H205.999V42.92H209.519V39.48H214.639V42.92H218.159V46.32H221.719V65.44H216.599V58.6H207.559V65.44H202.479ZM207.559 53.12H216.599V48.36H213.079V44.96H211.079V48.36H207.559V53.12ZM226.581 65.44V42.92H230.101V39.48H235.181V42.92H238.741V49.76H240.701V42.92H244.261V39.48H249.381V42.92H252.861V65.44H247.821V44.96H245.821V51.76H242.261V62.04H237.181V51.76H233.621V44.96H231.661V65.44H226.581ZM261.273 65.44V62.04H257.753V42.92H261.273V39.48H273.433V42.92H276.993V48.36H271.873V44.96H262.833V49.76H269.913V55.16H262.833V60H271.873V56.56H276.993V62.04H273.433V65.44H261.273ZM281.854 58.6V39.48H286.934V58.6H281.854ZM281.854 65.44V60H286.934V65.44H281.854Z" fill="#BDECFB"/>
<path d="M12.4675 94V80H17.7075C18.8942 80 19.9142 80.1933 20.7675 80.58C21.6208 80.9533 22.2742 81.5 22.7275 82.22C23.1942 82.9267 23.4275 83.7867 23.4275 84.8C23.4275 85.7867 23.1942 86.64 22.7275 87.36C22.2742 88.0667 21.6208 88.6133 20.7675 89C19.9142 89.3867 18.8942 89.58 17.7075 89.58H13.2875L13.9475 88.88V94H12.4675ZM13.9475 89L13.2875 88.28H17.6675C19.0675 88.28 20.1275 87.98 20.8475 87.38C21.5808 86.7667 21.9475 85.9067 21.9475 84.8C21.9475 83.68 21.5808 82.8133 20.8475 82.2C20.1275 81.5867 19.0675 81.28 17.6675 81.28H13.2875L13.9475 80.58V89ZM26.523 94V79.16H27.943V94H26.523ZM38.4741 94V91.68L38.4141 91.3V87.42C38.4141 86.5267 38.1607 85.84 37.6541 85.36C37.1607 84.88 36.4207 84.64 35.4341 84.64C34.7541 84.64 34.1074 84.7533 33.4941 84.98C32.8807 85.2067 32.3607 85.5067 31.9341 85.88L31.2941 84.82C31.8274 84.3667 32.4674 84.02 33.2141 83.78C33.9607 83.5267 34.7474 83.4 35.5741 83.4C36.9341 83.4 37.9807 83.74 38.7141 84.42C39.4607 85.0867 39.8341 86.1067 39.8341 87.48V94H38.4741ZM34.8541 94.1C34.0674 94.1 33.3807 93.9733 32.7941 93.72C32.2207 93.4533 31.7807 93.0933 31.4741 92.64C31.1674 92.1733 31.0141 91.64 31.0141 91.04C31.0141 90.4933 31.1407 90 31.3941 89.56C31.6607 89.1067 32.0874 88.7467 32.6741 88.48C33.2741 88.2 34.0741 88.06 35.0741 88.06H38.6941V89.12H35.1141C34.1007 89.12 33.3941 89.3 32.9941 89.66C32.6074 90.02 32.4141 90.4667 32.4141 91C32.4141 91.6 32.6474 92.08 33.1141 92.44C33.5807 92.8 34.2341 92.98 35.0741 92.98C35.8741 92.98 36.5607 92.8 37.1341 92.44C37.7207 92.0667 38.1474 91.5333 38.4141 90.84L38.7341 91.82C38.4674 92.5133 38.0007 93.0667 37.3341 93.48C36.6807 93.8933 35.8541 94.1 34.8541 94.1ZM43.5756 97.98C43.0823 97.98 42.609 97.9 42.1556 97.74C41.7156 97.58 41.3356 97.34 41.0156 97.02L41.6756 95.96C41.9423 96.2133 42.229 96.4067 42.5356 96.54C42.8556 96.6867 43.209 96.76 43.5956 96.76C44.0623 96.76 44.4623 96.6267 44.7956 96.36C45.1423 96.1067 45.469 95.6533 45.7756 95L46.4556 93.46L46.6156 93.24L50.9356 83.5H52.3356L47.0756 95.26C46.7823 95.94 46.4556 96.48 46.0956 96.88C45.749 97.28 45.369 97.56 44.9556 97.72C44.5423 97.8933 44.0823 97.98 43.5756 97.98ZM46.3756 94.3L41.5356 83.5H43.0156L47.2956 93.14L46.3756 94.3ZM52.7919 96.92L53.6719 93.22L53.8319 94.08C53.5252 94.08 53.2652 93.98 53.0519 93.78C52.8519 93.58 52.7519 93.32 52.7519 93C52.7519 92.68 52.8519 92.42 53.0519 92.22C53.2652 92.02 53.5185 91.92 53.8119 91.92C54.1185 91.92 54.3652 92.0267 54.5519 92.24C54.7519 92.4533 54.8519 92.7067 54.8519 93C54.8519 93.1067 54.8452 93.2133 54.8319 93.32C54.8185 93.4267 54.7919 93.5467 54.7519 93.68C54.7119 93.8133 54.6585 93.9733 54.5919 94.16L53.7519 96.92H52.7919ZM69.5045 94.12C68.4512 94.12 67.4779 93.9467 66.5845 93.6C65.6912 93.24 64.9179 92.74 64.2645 92.1C63.6112 91.46 63.0979 90.7067 62.7245 89.84C62.3645 88.9733 62.1845 88.0267 62.1845 87C62.1845 85.9733 62.3645 85.0267 62.7245 84.16C63.0979 83.2933 63.6112 82.54 64.2645 81.9C64.9312 81.26 65.7112 80.7667 66.6045 80.42C67.4979 80.06 68.4712 79.88 69.5245 79.88C70.5379 79.88 71.4912 80.0533 72.3845 80.4C73.2779 80.7333 74.0312 81.24 74.6445 81.92L73.7045 82.86C73.1312 82.2733 72.4979 81.8533 71.8045 81.6C71.1112 81.3333 70.3645 81.2 69.5645 81.2C68.7245 81.2 67.9445 81.3467 67.2245 81.64C66.5045 81.92 65.8779 82.3267 65.3445 82.86C64.8112 83.38 64.3912 83.9933 64.0845 84.7C63.7912 85.3933 63.6445 86.16 63.6445 87C63.6445 87.84 63.7912 88.6133 64.0845 89.32C64.3912 90.0133 64.8112 90.6267 65.3445 91.16C65.8779 91.68 66.5045 92.0867 67.2245 92.38C67.9445 92.66 68.7245 92.8 69.5645 92.8C70.3645 92.8 71.1112 92.6667 71.8045 92.4C72.4979 92.1333 73.1312 91.7067 73.7045 91.12L74.6445 92.06C74.0312 92.74 73.2779 93.2533 72.3845 93.6C71.4912 93.9467 70.5312 94.12 69.5045 94.12ZM81.3108 94.1C80.2974 94.1 79.3841 93.8733 78.5708 93.42C77.7708 92.9533 77.1374 92.32 76.6708 91.52C76.2041 90.7067 75.9708 89.78 75.9708 88.74C75.9708 87.6867 76.2041 86.76 76.6708 85.96C77.1374 85.16 77.7708 84.5333 78.5708 84.08C79.3708 83.6267 80.2841 83.4 81.3108 83.4C82.3508 83.4 83.2708 83.6267 84.0708 84.08C84.8841 84.5333 85.5174 85.16 85.9708 85.96C86.4374 86.76 86.6708 87.6867 86.6708 88.74C86.6708 89.78 86.4374 90.7067 85.9708 91.52C85.5174 92.32 84.8841 92.9533 84.0708 93.42C83.2574 93.8733 82.3374 94.1 81.3108 94.1ZM81.3108 92.84C82.0708 92.84 82.7441 92.6733 83.3308 92.34C83.9174 91.9933 84.3774 91.5133 84.7108 90.9C85.0574 90.2733 85.2308 89.5533 85.2308 88.74C85.2308 87.9133 85.0574 87.1933 84.7108 86.58C84.3774 85.9667 83.9174 85.4933 83.3308 85.16C82.7441 84.8133 82.0774 84.64 81.3308 84.64C80.5841 84.64 79.9174 84.8133 79.3308 85.16C78.7441 85.4933 78.2774 85.9667 77.9308 86.58C77.5841 87.1933 77.4108 87.9133 77.4108 88.74C77.4108 89.5533 77.5841 90.2733 77.9308 90.9C78.2774 91.5133 78.7441 91.9933 79.3308 92.34C79.9174 92.6733 80.5774 92.84 81.3108 92.84ZM102.69 83.4C103.543 83.4 104.283 83.5667 104.91 83.9C105.55 84.22 106.043 84.7133 106.39 85.38C106.75 86.0467 106.93 86.8867 106.93 87.9V94H105.51V88.04C105.51 86.9333 105.243 86.1 104.71 85.54C104.19 84.9667 103.45 84.68 102.49 84.68C101.77 84.68 101.143 84.8333 100.61 85.14C100.09 85.4333 99.6832 85.8667 99.3898 86.44C99.1098 87 98.9698 87.68 98.9698 88.48V94H97.5498V88.04C97.5498 86.9333 97.2832 86.1 96.7498 85.54C96.2165 84.9667 95.4698 84.68 94.5098 84.68C93.8032 84.68 93.1832 84.8333 92.6498 85.14C92.1165 85.4333 91.7032 85.8667 91.4098 86.44C91.1298 87 90.9898 87.68 90.9898 88.48V94H89.5698V83.5H90.9298V86.34L90.7098 85.84C91.0298 85.08 91.5432 84.4867 92.2498 84.06C92.9698 83.62 93.8165 83.4 94.7898 83.4C95.8165 83.4 96.6898 83.66 97.4098 84.18C98.1298 84.6867 98.5965 85.4533 98.8098 86.48L98.2498 86.26C98.5565 85.4067 99.0965 84.72 99.8698 84.2C100.657 83.6667 101.597 83.4 102.69 83.4ZM116.201 94.1C115.294 94.1 114.474 93.8933 113.741 93.48C113.007 93.0533 112.421 92.4467 111.981 91.66C111.554 90.86 111.341 89.8867 111.341 88.74C111.341 87.5933 111.554 86.6267 111.981 85.84C112.407 85.04 112.987 84.4333 113.721 84.02C114.454 83.6067 115.281 83.4 116.201 83.4C117.201 83.4 118.094 83.6267 118.881 84.08C119.681 84.52 120.307 85.1467 120.761 85.96C121.214 86.76 121.441 87.6867 121.441 88.74C121.441 89.8067 121.214 90.74 120.761 91.54C120.307 92.34 119.681 92.9667 118.881 93.42C118.094 93.8733 117.201 94.1 116.201 94.1ZM110.781 97.88V83.5H112.141V86.66L112.001 88.76L112.201 90.88V97.88H110.781ZM116.101 92.84C116.847 92.84 117.514 92.6733 118.101 92.34C118.687 91.9933 119.154 91.5133 119.501 90.9C119.847 90.2733 120.021 89.5533 120.021 88.74C120.021 87.9267 119.847 87.2133 119.501 86.6C119.154 85.9867 118.687 85.5067 118.101 85.16C117.514 84.8133 116.847 84.64 116.101 84.64C115.354 84.64 114.681 84.8133 114.081 85.16C113.494 85.5067 113.027 85.9867 112.681 86.6C112.347 87.2133 112.181 87.9267 112.181 88.74C112.181 89.5533 112.347 90.2733 112.681 90.9C113.027 91.5133 113.494 91.9933 114.081 92.34C114.681 92.6733 115.354 92.84 116.101 92.84ZM128.795 94.1C127.702 94.1 126.742 93.8733 125.915 93.42C125.089 92.9533 124.442 92.32 123.975 91.52C123.509 90.7067 123.275 89.78 123.275 88.74C123.275 87.7 123.495 86.78 123.935 85.98C124.389 85.18 125.002 84.5533 125.775 84.1C126.562 83.6333 127.442 83.4 128.415 83.4C129.402 83.4 130.275 83.6267 131.035 84.08C131.809 84.52 132.415 85.1467 132.855 85.96C133.295 86.76 133.515 87.6867 133.515 88.74C133.515 88.8067 133.509 88.88 133.495 88.96C133.495 89.0267 133.495 89.1 133.495 89.18H124.355V88.12H132.735L132.175 88.54C132.175 87.78 132.009 87.1067 131.675 86.52C131.355 85.92 130.915 85.4533 130.355 85.12C129.795 84.7867 129.149 84.62 128.415 84.62C127.695 84.62 127.049 84.7867 126.475 85.12C125.902 85.4533 125.455 85.92 125.135 86.52C124.815 87.12 124.655 87.8067 124.655 88.58V88.8C124.655 89.6 124.829 90.3067 125.175 90.92C125.535 91.52 126.029 91.9933 126.655 92.34C127.295 92.6733 128.022 92.84 128.835 92.84C129.475 92.84 130.069 92.7267 130.615 92.5C131.175 92.2733 131.655 91.9267 132.055 91.46L132.855 92.38C132.389 92.94 131.802 93.3667 131.095 93.66C130.402 93.9533 129.635 94.1 128.795 94.1ZM139.726 94.1C138.739 94.1 137.979 93.8333 137.446 93.3C136.912 92.7667 136.646 92.0133 136.646 91.04V81.18H138.066V90.96C138.066 91.5733 138.219 92.0467 138.526 92.38C138.846 92.7133 139.299 92.88 139.886 92.88C140.512 92.88 141.032 92.7 141.446 92.34L141.946 93.36C141.666 93.6133 141.326 93.8 140.926 93.92C140.539 94.04 140.139 94.1 139.726 94.1ZM134.766 84.68V83.5H141.266V84.68H134.766ZM148.62 94.1C147.526 94.1 146.566 93.8733 145.74 93.42C144.913 92.9533 144.266 92.32 143.8 91.52C143.333 90.7067 143.1 89.78 143.1 88.74C143.1 87.7 143.32 86.78 143.76 85.98C144.213 85.18 144.826 84.5533 145.6 84.1C146.386 83.6333 147.266 83.4 148.24 83.4C149.226 83.4 150.1 83.6267 150.86 84.08C151.633 84.52 152.24 85.1467 152.68 85.96C153.12 86.76 153.34 87.6867 153.34 88.74C153.34 88.8067 153.333 88.88 153.32 88.96C153.32 89.0267 153.32 89.1 153.32 89.18H144.18V88.12H152.56L152 88.54C152 87.78 151.833 87.1067 151.5 86.52C151.18 85.92 150.74 85.4533 150.18 85.12C149.62 84.7867 148.973 84.62 148.24 84.62C147.52 84.62 146.873 84.7867 146.3 85.12C145.726 85.4533 145.28 85.92 144.96 86.52C144.64 87.12 144.48 87.8067 144.48 88.58V88.8C144.48 89.6 144.653 90.3067 145 90.92C145.36 91.52 145.853 91.9933 146.48 92.34C147.12 92.6733 147.846 92.84 148.66 92.84C149.3 92.84 149.893 92.7267 150.44 92.5C151 92.2733 151.48 91.9267 151.88 91.46L152.68 92.38C152.213 92.94 151.626 93.3667 150.92 93.66C150.226 93.9533 149.46 94.1 148.62 94.1ZM155.37 96.92L156.25 93.22L156.41 94.08C156.103 94.08 155.843 93.98 155.63 93.78C155.43 93.58 155.33 93.32 155.33 93C155.33 92.68 155.43 92.42 155.63 92.22C155.843 92.02 156.097 91.92 156.39 91.92C156.697 91.92 156.943 92.0267 157.13 92.24C157.33 92.4533 157.43 92.7067 157.43 93C157.43 93.1067 157.423 93.2133 157.41 93.32C157.397 93.4267 157.37 93.5467 157.33 93.68C157.29 93.8133 157.237 93.9733 157.17 94.16L156.33 96.92H155.37ZM167.323 86.26H174.723V87.52H167.323V86.26ZM167.483 92.72H175.903V94H166.003V80H175.603V81.28H167.483V92.72ZM185.505 94V91.68L185.445 91.3V87.42C185.445 86.5267 185.192 85.84 184.685 85.36C184.192 84.88 183.452 84.64 182.465 84.64C181.785 84.64 181.139 84.7533 180.525 84.98C179.912 85.2067 179.392 85.5067 178.965 85.88L178.325 84.82C178.859 84.3667 179.499 84.02 180.245 83.78C180.992 83.5267 181.779 83.4 182.605 83.4C183.965 83.4 185.012 83.74 185.745 84.42C186.492 85.0867 186.865 86.1067 186.865 87.48V94H185.505ZM181.885 94.1C181.099 94.1 180.412 93.9733 179.825 93.72C179.252 93.4533 178.812 93.0933 178.505 92.64C178.199 92.1733 178.045 91.64 178.045 91.04C178.045 90.4933 178.172 90 178.425 89.56C178.692 89.1067 179.119 88.7467 179.705 88.48C180.305 88.2 181.105 88.06 182.105 88.06H185.725V89.12H182.145C181.132 89.12 180.425 89.3 180.025 89.66C179.639 90.02 179.445 90.4667 179.445 91C179.445 91.6 179.679 92.08 180.145 92.44C180.612 92.8 181.265 92.98 182.105 92.98C182.905 92.98 183.592 92.8 184.165 92.44C184.752 92.0667 185.179 91.5333 185.445 90.84L185.765 91.82C185.499 92.5133 185.032 93.0667 184.365 93.48C183.712 93.8933 182.885 94.1 181.885 94.1ZM190.722 94V83.5H192.082V86.36L191.942 85.86C192.236 85.06 192.729 84.4533 193.422 84.04C194.116 83.6133 194.976 83.4 196.002 83.4V84.78C195.949 84.78 195.896 84.78 195.842 84.78C195.789 84.7667 195.736 84.76 195.682 84.76C194.576 84.76 193.709 85.1 193.082 85.78C192.456 86.4467 192.142 87.4 192.142 88.64V94H190.722ZM203.953 83.4C204.807 83.4 205.553 83.5667 206.193 83.9C206.847 84.22 207.353 84.7133 207.713 85.38C208.087 86.0467 208.273 86.8867 208.273 87.9V94H206.853V88.04C206.853 86.9333 206.573 86.1 206.013 85.54C205.467 84.9667 204.693 84.68 203.693 84.68C202.947 84.68 202.293 84.8333 201.733 85.14C201.187 85.4333 200.76 85.8667 200.453 86.44C200.16 87 200.013 87.68 200.013 88.48V94H198.593V83.5H199.953V86.38L199.733 85.84C200.067 85.08 200.6 84.4867 201.333 84.06C202.067 83.62 202.94 83.4 203.953 83.4ZM211.249 96.92L212.129 93.22L212.289 94.08C211.982 94.08 211.722 93.98 211.509 93.78C211.309 93.58 211.209 93.32 211.209 93C211.209 92.68 211.309 92.42 211.509 92.22C211.722 92.02 211.976 91.92 212.269 91.92C212.576 91.92 212.822 92.0267 213.009 92.24C213.209 92.4533 213.309 92.7067 213.309 93C213.309 93.1067 213.302 93.2133 213.289 93.32C213.276 93.4267 213.249 93.5467 213.209 93.68C213.169 93.8133 213.116 93.9733 213.049 94.16L212.209 96.92H211.249ZM221.882 94V80H227.122C228.308 80 229.328 80.1933 230.182 80.58C231.035 80.9533 231.688 81.5 232.142 82.22C232.608 82.9267 232.842 83.7867 232.842 84.8C232.842 85.7867 232.608 86.64 232.142 87.36C231.688 88.0667 231.035 88.6133 230.182 89C229.328 89.3733 228.308 89.56 227.122 89.56H222.702L223.362 88.88V94H221.882ZM231.442 94L227.842 88.92H229.442L233.062 94H231.442ZM223.362 89L222.702 88.3H227.082C228.482 88.3 229.542 87.9933 230.262 87.38C230.995 86.7667 231.362 85.9067 231.362 84.8C231.362 83.68 230.995 82.8133 230.262 82.2C229.542 81.5867 228.482 81.28 227.082 81.28H222.702L223.362 80.58V89ZM240.495 94.1C239.401 94.1 238.441 93.8733 237.615 93.42C236.788 92.9533 236.141 92.32 235.675 91.52C235.208 90.7067 234.975 89.78 234.975 88.74C234.975 87.7 235.195 86.78 235.635 85.98C236.088 85.18 236.701 84.5533 237.475 84.1C238.261 83.6333 239.141 83.4 240.115 83.4C241.101 83.4 241.975 83.6267 242.735 84.08C243.508 84.52 244.115 85.1467 244.555 85.96C244.995 86.76 245.215 87.6867 245.215 88.74C245.215 88.8067 245.208 88.88 245.195 88.96C245.195 89.0267 245.195 89.1 245.195 89.18H236.055V88.12H244.435L243.875 88.54C243.875 87.78 243.708 87.1067 243.375 86.52C243.055 85.92 242.615 85.4533 242.055 85.12C241.495 84.7867 240.848 84.62 240.115 84.62C239.395 84.62 238.748 84.7867 238.175 85.12C237.601 85.4533 237.155 85.92 236.835 86.52C236.515 87.12 236.355 87.8067 236.355 88.58V88.8C236.355 89.6 236.528 90.3067 236.875 90.92C237.235 91.52 237.728 91.9933 238.355 92.34C238.995 92.6733 239.721 92.84 240.535 92.84C241.175 92.84 241.768 92.7267 242.315 92.5C242.875 92.2733 243.355 91.9267 243.755 91.46L244.555 92.38C244.088 92.94 243.501 93.3667 242.795 93.66C242.101 93.9533 241.335 94.1 240.495 94.1ZM253.525 94.1C252.618 94.1 251.798 93.8933 251.065 93.48C250.332 93.0533 249.745 92.4467 249.305 91.66C248.878 90.86 248.665 89.8867 248.665 88.74C248.665 87.5933 248.878 86.6267 249.305 85.84C249.732 85.04 250.312 84.4333 251.045 84.02C251.778 83.6067 252.605 83.4 253.525 83.4C254.525 83.4 255.418 83.6267 256.205 84.08C257.005 84.52 257.632 85.1467 258.085 85.96C258.538 86.76 258.765 87.6867 258.765 88.74C258.765 89.8067 258.538 90.74 258.085 91.54C257.632 92.34 257.005 92.9667 256.205 93.42C255.418 93.8733 254.525 94.1 253.525 94.1ZM248.105 97.88V83.5H249.465V86.66L249.325 88.76L249.525 90.88V97.88H248.105ZM253.425 92.84C254.172 92.84 254.838 92.6733 255.425 92.34C256.012 91.9933 256.478 91.5133 256.825 90.9C257.172 90.2733 257.345 89.5533 257.345 88.74C257.345 87.9267 257.172 87.2133 256.825 86.6C256.478 85.9867 256.012 85.5067 255.425 85.16C254.838 84.8133 254.172 84.64 253.425 84.64C252.678 84.64 252.005 84.8133 251.405 85.16C250.818 85.5067 250.352 85.9867 250.005 86.6C249.672 87.2133 249.505 87.9267 249.505 88.74C249.505 89.5533 249.672 90.2733 250.005 90.9C250.352 91.5133 250.818 91.9933 251.405 92.34C252.005 92.6733 252.678 92.84 253.425 92.84ZM266.12 94.1C265.026 94.1 264.066 93.8733 263.24 93.42C262.413 92.9533 261.766 92.32 261.3 91.52C260.833 90.7067 260.6 89.78 260.6 88.74C260.6 87.7 260.82 86.78 261.26 85.98C261.713 85.18 262.326 84.5533 263.1 84.1C263.886 83.6333 264.766 83.4 265.74 83.4C266.726 83.4 267.6 83.6267 268.36 84.08C269.133 84.52 269.74 85.1467 270.18 85.96C270.62 86.76 270.84 87.6867 270.84 88.74C270.84 88.8067 270.833 88.88 270.82 88.96C270.82 89.0267 270.82 89.1 270.82 89.18H261.68V88.12H270.06L269.5 88.54C269.5 87.78 269.333 87.1067 269 86.52C268.68 85.92 268.24 85.4533 267.68 85.12C267.12 84.7867 266.473 84.62 265.74 84.62C265.02 84.62 264.373 84.7867 263.8 85.12C263.226 85.4533 262.78 85.92 262.46 86.52C262.14 87.12 261.98 87.8067 261.98 88.58V88.8C261.98 89.6 262.153 90.3067 262.5 90.92C262.86 91.52 263.353 91.9933 263.98 92.34C264.62 92.6733 265.346 92.84 266.16 92.84C266.8 92.84 267.393 92.7267 267.94 92.5C268.5 92.2733 268.98 91.9267 269.38 91.46L270.18 92.38C269.713 92.94 269.126 93.3667 268.42 93.66C267.726 93.9533 266.96 94.1 266.12 94.1ZM280.017 94V91.68L279.957 91.3V87.42C279.957 86.5267 279.704 85.84 279.197 85.36C278.704 84.88 277.964 84.64 276.977 84.64C276.297 84.64 275.65 84.7533 275.037 84.98C274.424 85.2067 273.904 85.5067 273.477 85.88L272.837 84.82C273.37 84.3667 274.01 84.02 274.757 83.78C275.504 83.5267 276.29 83.4 277.117 83.4C278.477 83.4 279.524 83.74 280.257 84.42C281.004 85.0867 281.377 86.1067 281.377 87.48V94H280.017ZM276.397 94.1C275.61 94.1 274.924 93.9733 274.337 93.72C273.764 93.4533 273.324 93.0933 273.017 92.64C272.71 92.1733 272.557 91.64 272.557 91.04C272.557 90.4933 272.684 90 272.937 89.56C273.204 89.1067 273.63 88.7467 274.217 88.48C274.817 88.2 275.617 88.06 276.617 88.06H280.237V89.12H276.657C275.644 89.12 274.937 89.3 274.537 89.66C274.15 90.02 273.957 90.4667 273.957 91C273.957 91.6 274.19 92.08 274.657 92.44C275.124 92.8 275.777 92.98 276.617 92.98C277.417 92.98 278.104 92.8 278.677 92.44C279.264 92.0667 279.69 91.5333 279.957 90.84L280.277 91.82C280.01 92.5133 279.544 93.0667 278.877 93.48C278.224 93.8933 277.397 94.1 276.397 94.1ZM288.554 94.1C287.567 94.1 286.807 93.8333 286.274 93.3C285.741 92.7667 285.474 92.0133 285.474 91.04V81.18H286.894V90.96C286.894 91.5733 287.047 92.0467 287.354 92.38C287.674 92.7133 288.127 92.88 288.714 92.88C289.341 92.88 289.861 92.7 290.274 92.34L290.774 93.36C290.494 93.6133 290.154 93.8 289.754 93.92C289.367 94.04 288.967 94.1 288.554 94.1ZM283.594 84.68V83.5H290.094V84.68H283.594ZM293.694 94.1C293.401 94.1 293.148 93.9933 292.934 93.78C292.734 93.5667 292.634 93.3067 292.634 93C292.634 92.68 292.734 92.42 292.934 92.22C293.148 92.02 293.401 91.92 293.694 91.92C293.988 91.92 294.234 92.02 294.434 92.22C294.648 92.42 294.754 92.68 294.754 93C294.754 93.3067 294.648 93.5667 294.434 93.78C294.234 93.9933 293.988 94.1 293.694 94.1Z" fill="white"/>
</svg>
