<svg width="60" height="23" viewBox="0 0 60 23" fill="none" xmlns="http://www.w3.org/2000/svg">
<rect width="59.011" height="22.044" rx="4.53846" fill="#A3C670"/>
<path d="M20.099 4.53857L19.4507 5.18693M8.42871 4.53857L9.07706 5.18693M20.099 13.6155L19.4507 12.9671M8.42871 13.6155L9.07706 12.9671M12.3188 14.9122H16.2089M12.9672 16.8573H15.5606M14.2639 5.18693C11.6705 5.18693 10.3426 6.45121 10.3738 8.42868C10.3887 9.39278 10.6979 10.0496 11.3463 10.6979C11.9946 11.3463 12.3188 11.6704 12.3188 12.9671H16.2089C16.2089 11.6704 16.5331 11.3463 17.1815 10.6979C17.8298 10.0496 18.1391 9.39278 18.154 8.42868C18.1851 6.45121 16.8573 5.18693 14.2639 5.18693Z" stroke="white" stroke-width="0.972528" stroke-linecap="round" stroke-linejoin="round"/>
<path d="M34.6063 6.76043H35.9549V14.022H34.6063V6.76043ZM30.851 14.022H29.5025V6.76043H30.851V14.022ZM34.71 10.9099H30.7369V9.75841H34.71V10.9099ZM38.0355 14.022V8.48246H39.3322V14.022H38.0355ZM38.689 7.56958C38.447 7.56958 38.2464 7.4935 38.0874 7.34136C37.9352 7.18921 37.8591 7.00594 37.8591 6.79155C37.8591 6.57025 37.9352 6.38698 38.0874 6.24175C38.2464 6.08961 38.447 6.01353 38.689 6.01353C38.9311 6.01353 39.1282 6.08615 39.2803 6.23138C39.4394 6.36969 39.5189 6.54605 39.5189 6.76043C39.5189 6.98865 39.4429 7.18229 39.2907 7.34136C39.1386 7.4935 38.938 7.56958 38.689 7.56958ZM44.4367 8.42021C44.8793 8.42021 45.2735 8.50666 45.6193 8.67955C45.972 8.85245 46.2486 9.1187 46.4492 9.47832C46.6497 9.83103 46.75 10.2875 46.75 10.8476V14.022H45.4533V11.0136C45.4533 10.5226 45.3357 10.1561 45.1006 9.91402C44.8724 9.67196 44.5508 9.55094 44.1358 9.55094C43.8316 9.55094 43.5618 9.61318 43.3267 9.73766C43.0916 9.86215 42.9083 10.0489 42.7769 10.2978C42.6524 10.5399 42.5902 10.8476 42.5902 11.2211V14.022H41.2935V8.48246H42.5279V9.97626L42.3101 9.51982C42.5037 9.16712 42.7838 8.8974 43.1503 8.71068C43.5238 8.51703 43.9526 8.42021 44.4367 8.42021ZM50.7394 14.0946C50.1308 14.0946 49.6605 13.939 49.3286 13.6278C48.9966 13.3097 48.8306 12.8428 48.8306 12.2273V7.25837H50.1273V12.1962C50.1273 12.459 50.193 12.663 50.3244 12.8083C50.4628 12.9535 50.6529 13.0261 50.895 13.0261C51.1855 13.0261 51.4275 12.95 51.6211 12.7979L51.9842 13.7211C51.8321 13.8456 51.6453 13.939 51.424 14.0012C51.2027 14.0635 50.9745 14.0946 50.7394 14.0946ZM47.9178 9.56131V8.52395H51.6108V9.56131H47.9178Z" fill="white"/>
</svg>
