<svg width="318" height="79" viewBox="0 0 318 79" fill="none" xmlns="http://www.w3.org/2000/svg">
<rect x="0.872414" y="0.872414" width="316.255" height="77.2552" rx="10.469" fill="#080682"/>
<rect x="0.872414" y="0.872414" width="316.255" height="77.2552" rx="10.469" stroke="url(#paint0_linear_2705_3627)" stroke-width="1.74483"/>
<path d="M101.352 47.8725C100.049 47.8725 98.838 47.6707 97.7204 47.2672C96.6184 46.8481 95.6561 46.2583 94.8334 45.4977C94.0263 44.7372 93.3977 43.8369 92.9476 42.797C92.4974 41.757 92.2724 40.6084 92.2724 39.3512C92.2724 38.0939 92.4974 36.9453 92.9476 35.9054C93.3977 34.8655 94.0263 33.9652 94.8334 33.2046C95.6561 32.4441 96.6184 31.862 97.7204 31.4585C98.838 31.0394 100.049 30.8298 101.352 30.8298C102.951 30.8298 104.364 31.1092 105.59 31.668C106.832 32.2268 107.856 33.0339 108.663 34.0894L105.194 37.1859C104.713 36.5806 104.177 36.1149 103.588 35.789C103.013 35.4475 102.361 35.2768 101.632 35.2768C101.058 35.2768 100.538 35.3699 100.072 35.5562C99.6063 35.7424 99.2027 36.014 98.8613 36.371C98.5353 36.728 98.2792 37.1626 98.093 37.6749C97.9067 38.1715 97.8136 38.7303 97.8136 39.3512C97.8136 39.972 97.9067 40.5386 98.093 41.0508C98.2792 41.5475 98.5353 41.9743 98.8613 42.3313C99.2027 42.6883 99.6063 42.9599 100.072 43.1462C100.538 43.3325 101.058 43.4256 101.632 43.4256C102.361 43.4256 103.013 43.2626 103.588 42.9367C104.177 42.5952 104.713 42.1218 105.194 41.5164L108.663 44.613C107.856 45.6529 106.832 46.4601 105.59 47.0344C104.364 47.5931 102.951 47.8725 101.352 47.8725ZM110.087 47.5V34.7646H115.092V38.6061L114.277 37.5119C114.665 36.5185 115.286 35.7735 116.14 35.2768C116.994 34.7801 118.018 34.5317 119.213 34.5317V39.1882C118.98 39.1572 118.771 39.1339 118.585 39.1184C118.414 39.1028 118.235 39.0951 118.049 39.0951C117.258 39.0951 116.606 39.3046 116.093 39.7237C115.597 40.1273 115.348 40.8335 115.348 41.8424V47.5H110.087ZM127.32 47.7328C125.876 47.7328 124.596 47.4534 123.478 46.8947C122.376 46.3204 121.507 45.5365 120.87 44.5431C120.234 43.5498 119.916 42.4089 119.916 41.1206C119.916 39.8324 120.234 38.6915 120.87 37.6981C121.507 36.7048 122.376 35.9287 123.478 35.3699C124.596 34.8111 125.876 34.5317 127.32 34.5317C128.763 34.5317 130.044 34.8111 131.161 35.3699C132.279 35.9287 133.148 36.7048 133.769 37.6981C134.405 38.6915 134.723 39.8324 134.723 41.1206C134.723 42.4089 134.405 43.5498 133.769 44.5431C133.148 45.5365 132.279 46.3204 131.161 46.8947C130.044 47.4534 128.763 47.7328 127.32 47.7328ZM127.32 43.6351C127.708 43.6351 128.057 43.542 128.367 43.3557C128.678 43.1695 128.926 42.8901 129.112 42.5176C129.299 42.1295 129.392 41.6639 129.392 41.1206C129.392 40.5619 129.299 40.104 129.112 39.747C128.926 39.3745 128.678 39.0951 128.367 38.9088C128.057 38.7226 127.708 38.6294 127.32 38.6294C126.932 38.6294 126.582 38.7226 126.272 38.9088C125.961 39.0951 125.713 39.3745 125.527 39.747C125.341 40.104 125.247 40.5619 125.247 41.1206C125.247 41.6639 125.341 42.1295 125.527 42.5176C125.713 42.8901 125.961 43.1695 126.272 43.3557C126.582 43.542 126.932 43.6351 127.32 43.6351ZM141.353 47.7328C140.266 47.7328 139.195 47.6164 138.14 47.3836C137.084 47.1508 136.231 46.8481 135.579 46.4756L137.022 43.0065C137.627 43.3635 138.326 43.6429 139.118 43.8447C139.925 44.0465 140.708 44.1473 141.469 44.1473C142.105 44.1473 142.532 44.093 142.75 43.9844C142.982 43.8757 143.099 43.7283 143.099 43.542C143.099 43.3557 142.967 43.2238 142.703 43.1462C142.439 43.0531 142.09 42.9832 141.655 42.9367C141.221 42.8901 140.74 42.8358 140.212 42.7737C139.7 42.6961 139.18 42.5874 138.652 42.4477C138.124 42.308 137.643 42.0985 137.208 41.8191C136.774 41.5397 136.425 41.1672 136.161 40.7016C135.897 40.2204 135.765 39.615 135.765 38.8855C135.765 38.0784 136.005 37.3489 136.487 36.697C136.983 36.0451 137.713 35.5251 138.675 35.1371C139.653 34.7335 140.856 34.5317 142.284 34.5317C143.215 34.5317 144.147 34.6171 145.078 34.7878C146.009 34.9586 146.808 35.2224 147.476 35.5794L146.032 39.0485C145.38 38.6915 144.736 38.4509 144.1 38.3268C143.479 38.1871 142.897 38.1172 142.354 38.1172C141.686 38.1172 141.228 38.1793 140.98 38.3035C140.747 38.4276 140.631 38.5673 140.631 38.7226C140.631 38.9088 140.763 39.0485 141.027 39.1416C141.291 39.2348 141.64 39.3046 142.074 39.3512C142.509 39.3977 142.982 39.4598 143.495 39.5374C144.022 39.5995 144.542 39.7082 145.055 39.8634C145.582 40.0031 146.063 40.2126 146.498 40.492C146.933 40.7714 147.282 41.1517 147.546 41.6329C147.81 42.0985 147.942 42.6961 147.942 43.4256C147.942 44.1861 147.701 44.9001 147.22 45.5676C146.739 46.2195 146.009 46.7472 145.031 47.1508C144.053 47.5388 142.827 47.7328 141.353 47.7328ZM154.517 47.7328C153.431 47.7328 152.36 47.6164 151.304 47.3836C150.249 47.1508 149.395 46.8481 148.743 46.4756L150.187 43.0065C150.792 43.3635 151.49 43.6429 152.282 43.8447C153.089 44.0465 153.873 44.1473 154.634 44.1473C155.27 44.1473 155.697 44.093 155.914 43.9844C156.147 43.8757 156.263 43.7283 156.263 43.542C156.263 43.3557 156.131 43.2238 155.868 43.1462C155.604 43.0531 155.254 42.9832 154.82 42.9367C154.385 42.8901 153.904 42.8358 153.376 42.7737C152.864 42.6961 152.344 42.5874 151.816 42.4477C151.289 42.308 150.807 42.0985 150.373 41.8191C149.938 41.5397 149.589 41.1672 149.325 40.7016C149.061 40.2204 148.929 39.615 148.929 38.8855C148.929 38.0784 149.17 37.3489 149.651 36.697C150.148 36.0451 150.877 35.5251 151.84 35.1371C152.818 34.7335 154.02 34.5317 155.448 34.5317C156.38 34.5317 157.311 34.6171 158.242 34.7878C159.174 34.9586 159.973 35.2224 160.64 35.5794L159.197 39.0485C158.545 38.6915 157.901 38.4509 157.264 38.3268C156.644 38.1871 156.062 38.1172 155.518 38.1172C154.851 38.1172 154.393 38.1793 154.145 38.3035C153.912 38.4276 153.795 38.5673 153.795 38.7226C153.795 38.9088 153.927 39.0485 154.191 39.1416C154.455 39.2348 154.804 39.3046 155.239 39.3512C155.674 39.3977 156.147 39.4598 156.659 39.5374C157.187 39.5995 157.707 39.7082 158.219 39.8634C158.747 40.0031 159.228 40.2126 159.663 40.492C160.097 40.7714 160.446 41.1517 160.71 41.6329C160.974 42.0985 161.106 42.6961 161.106 43.4256C161.106 44.1861 160.865 44.9001 160.384 45.5676C159.903 46.2195 159.174 46.7472 158.196 47.1508C157.218 47.5388 155.992 47.7328 154.517 47.7328ZM165.592 47.5L161.168 34.7646H166.15L169.503 45.1019H167.105L170.621 34.7646H175.091L178.444 45.1019H176.115L179.584 34.7646H184.194L179.771 47.5H174.649L171.971 39.3046H173.508L170.714 47.5H165.592ZM191.596 47.7328C190.153 47.7328 188.872 47.4534 187.754 46.8947C186.652 46.3204 185.783 45.5365 185.147 44.5431C184.51 43.5498 184.192 42.4089 184.192 41.1206C184.192 39.8324 184.51 38.6915 185.147 37.6981C185.783 36.7048 186.652 35.9287 187.754 35.3699C188.872 34.8111 190.153 34.5317 191.596 34.5317C193.04 34.5317 194.32 34.8111 195.438 35.3699C196.555 35.9287 197.424 36.7048 198.045 37.6981C198.682 38.6915 199 39.8324 199 41.1206C199 42.4089 198.682 43.5498 198.045 44.5431C197.424 45.5365 196.555 46.3204 195.438 46.8947C194.32 47.4534 193.04 47.7328 191.596 47.7328ZM191.596 43.6351C191.984 43.6351 192.333 43.542 192.644 43.3557C192.954 43.1695 193.203 42.8901 193.389 42.5176C193.575 42.1295 193.668 41.6639 193.668 41.1206C193.668 40.5619 193.575 40.104 193.389 39.747C193.203 39.3745 192.954 39.0951 192.644 38.9088C192.333 38.7226 191.984 38.6294 191.596 38.6294C191.208 38.6294 190.859 38.7226 190.548 38.9088C190.238 39.0951 189.99 39.3745 189.803 39.747C189.617 40.104 189.524 40.5619 189.524 41.1206C189.524 41.6639 189.617 42.1295 189.803 42.5176C189.99 42.8901 190.238 43.1695 190.548 43.3557C190.859 43.542 191.208 43.6351 191.596 43.6351ZM200.647 47.5V34.7646H205.652V38.6061L204.838 37.5119C205.226 36.5185 205.846 35.7735 206.7 35.2768C207.554 34.7801 208.578 34.5317 209.773 34.5317V39.1882C209.541 39.1572 209.331 39.1339 209.145 39.1184C208.974 39.1028 208.796 39.0951 208.609 39.0951C207.818 39.0951 207.166 39.3046 206.654 39.7237C206.157 40.1273 205.909 40.8335 205.909 41.8424V47.5H200.647ZM216.739 47.7328C215.637 47.7328 214.612 47.469 213.666 46.9412C212.734 46.398 211.989 45.6374 211.43 44.6596C210.872 43.6662 210.592 42.4865 210.592 41.1206C210.592 39.7547 210.872 38.5829 211.43 37.605C211.989 36.6116 212.734 35.8511 213.666 35.3233C214.612 34.7956 215.637 34.5317 216.739 34.5317C217.856 34.5317 218.772 34.7723 219.486 35.2535C220.2 35.7191 220.728 36.4409 221.069 37.4187C221.411 38.3811 221.582 39.615 221.582 41.1206C221.582 42.6418 221.419 43.8912 221.093 44.8691C220.782 45.847 220.27 46.5687 219.556 47.0344C218.858 47.5 217.918 47.7328 216.739 47.7328ZM217.996 43.6351C218.384 43.6351 218.733 43.542 219.044 43.3557C219.354 43.1695 219.603 42.8901 219.789 42.5176C219.975 42.1295 220.068 41.6639 220.068 41.1206C220.068 40.5619 219.975 40.104 219.789 39.747C219.603 39.3745 219.354 39.0951 219.044 38.9088C218.733 38.7226 218.384 38.6294 217.996 38.6294C217.608 38.6294 217.259 38.7226 216.948 38.9088C216.638 39.0951 216.39 39.3745 216.203 39.747C216.017 40.104 215.924 40.5619 215.924 41.1206C215.924 41.6639 216.017 42.1295 216.203 42.5176C216.39 42.8901 216.638 43.1695 216.948 43.3557C217.259 43.542 217.608 43.6351 217.996 43.6351ZM220.231 47.5V45.7771L220.208 41.1206L219.975 36.4642V30.2245H225.237V47.5H220.231Z" fill="#FFAB01"/>
<defs>
<linearGradient id="paint0_linear_2705_3627" x1="3.19509e-07" y1="39.5" x2="296.184" y2="126.075" gradientUnits="userSpaceOnUse">
<stop stop-color="#173DE7"/>
<stop offset="1" stop-color="#D96DFC"/>
</linearGradient>
</defs>
</svg>
