<svg width="174" height="79" viewBox="0 0 174 79" fill="none" xmlns="http://www.w3.org/2000/svg">
<rect x="0.872414" y="0.872414" width="172.255" height="77.2552" rx="10.469" fill="#080682"/>
<rect x="0.872414" y="0.872414" width="172.255" height="77.2552" rx="10.469" stroke="url(#paint0_linear_2705_3627)" stroke-width="1.74483"/>
<path d="M37.6793 46.8187C36.5639 46.8187 35.5281 46.6461 34.5719 46.3008C33.6291 45.9423 32.8058 45.4376 32.1019 44.7869C31.4114 44.1362 30.8736 43.366 30.4885 42.4763C30.1034 41.5866 29.9108 40.6039 29.9108 39.5282C29.9108 38.4526 30.1034 37.4699 30.4885 36.5802C30.8736 35.6904 31.4114 34.9202 32.1019 34.2695C32.8058 33.6188 33.6291 33.1208 34.5719 32.7756C35.5281 32.417 36.5639 32.2378 37.6793 32.2378C39.0471 32.2378 40.2556 32.4768 41.3047 32.9549C42.367 33.4329 43.2435 34.1235 43.934 35.0265L40.966 37.6757C40.5544 37.1578 40.0962 36.7594 39.5916 36.4806C39.1003 36.1884 38.5425 36.0424 37.9184 36.0424C37.427 36.0424 36.9822 36.122 36.5838 36.2814C36.1854 36.4407 35.8401 36.6731 35.548 36.9786C35.2691 37.284 35.05 37.6558 34.8906 38.094C34.7313 38.519 34.6516 38.9971 34.6516 39.5282C34.6516 40.0594 34.7313 40.5441 34.8906 40.9823C35.05 41.4073 35.2691 41.7725 35.548 42.0779C35.8401 42.3833 36.1854 42.6157 36.5838 42.7751C36.9822 42.9344 37.427 43.0141 37.9184 43.0141C38.5425 43.0141 39.1003 42.8747 39.5916 42.5958C40.0962 42.3037 40.5544 41.8986 40.966 41.3807L43.934 44.03C43.2435 44.9197 42.367 45.6103 41.3047 46.1016C40.2556 46.5797 39.0471 46.8187 37.6793 46.8187ZM45.1519 46.5V35.6041H49.4346V38.8908L48.7374 37.9546C49.0694 37.1047 49.6005 36.4673 50.3309 36.0424C51.0613 35.6174 51.9378 35.4049 52.9603 35.4049V39.3888C52.7611 39.3622 52.5818 39.3423 52.4225 39.329C52.2764 39.3158 52.1237 39.3091 51.9643 39.3091C51.2871 39.3091 50.7293 39.4884 50.2911 39.8469C49.8661 40.1922 49.6537 40.7964 49.6537 41.6596V46.5H45.1519ZM59.8956 46.6992C58.6606 46.6992 57.5651 46.4602 56.6089 45.9821C55.6661 45.4908 54.9224 44.8201 54.378 43.9702C53.8335 43.1204 53.5613 42.1443 53.5613 41.0421C53.5613 39.9399 53.8335 38.9639 54.378 38.114C54.9224 37.2641 55.6661 36.6001 56.6089 36.122C57.5651 35.644 58.6606 35.4049 59.8956 35.4049C61.1306 35.4049 62.2262 35.644 63.1823 36.122C64.1384 36.6001 64.8821 37.2641 65.4133 38.114C65.9577 38.9639 66.23 39.9399 66.23 41.0421C66.23 42.1443 65.9577 43.1204 65.4133 43.9702C64.8821 44.8201 64.1384 45.4908 63.1823 45.9821C62.2262 46.4602 61.1306 46.6992 59.8956 46.6992ZM59.8956 43.1934C60.2276 43.1934 60.5264 43.1137 60.792 42.9544C61.0576 42.795 61.2701 42.556 61.4294 42.2373C61.5888 41.9053 61.6684 41.5069 61.6684 41.0421C61.6684 40.564 61.5888 40.1723 61.4294 39.8669C61.2701 39.5482 61.0576 39.3091 60.792 39.1498C60.5264 38.9904 60.2276 38.9107 59.8956 38.9107C59.5636 38.9107 59.2648 38.9904 58.9993 39.1498C58.7337 39.3091 58.5212 39.5482 58.3618 39.8669C58.2025 40.1723 58.1228 40.564 58.1228 41.0421C58.1228 41.5069 58.2025 41.9053 58.3618 42.2373C58.5212 42.556 58.7337 42.795 58.9993 42.9544C59.2648 43.1137 59.5636 43.1934 59.8956 43.1934ZM71.9017 46.6992C70.9721 46.6992 70.0558 46.5996 69.1528 46.4004C68.2498 46.2012 67.5194 45.9423 66.9617 45.6235L68.1967 42.6556C68.7146 42.961 69.3122 43.2 69.9894 43.3727C70.68 43.5453 71.3506 43.6316 72.0013 43.6316C72.5458 43.6316 72.9109 43.5851 73.0969 43.4922C73.296 43.3992 73.3956 43.2731 73.3956 43.1137C73.3956 42.9544 73.2828 42.8415 73.057 42.7751C72.8313 42.6954 72.5325 42.6356 72.1606 42.5958C71.7888 42.556 71.3772 42.5095 70.9256 42.4564C70.4874 42.39 70.0426 42.297 69.5911 42.1775C69.1395 42.058 68.7279 41.8787 68.3561 41.6397C67.9842 41.4007 67.6854 41.0819 67.4597 40.6836C67.2339 40.2719 67.1211 39.754 67.1211 39.1298C67.1211 38.4393 67.3269 37.8152 67.7386 37.2574C68.1635 36.6997 68.7876 36.2548 69.611 35.9228C70.4476 35.5776 71.4767 35.4049 72.6985 35.4049C73.4952 35.4049 74.292 35.478 75.0888 35.624C75.8856 35.7701 76.5695 35.9959 77.1405 36.3013L75.9055 39.2693C75.3477 38.9639 74.7966 38.758 74.2522 38.6518C73.721 38.5323 73.223 38.4725 72.7582 38.4725C72.1872 38.4725 71.7955 38.5256 71.583 38.6319C71.3838 38.7381 71.2842 38.8576 71.2842 38.9904C71.2842 39.1498 71.3971 39.2693 71.6228 39.349C71.8486 39.4286 72.1474 39.4884 72.5192 39.5282C72.891 39.5681 73.296 39.6212 73.7343 39.6876C74.1858 39.7407 74.6306 39.8337 75.0689 39.9665C75.5204 40.086 75.932 40.2652 76.3039 40.5043C76.6757 40.7433 76.9745 41.0687 77.2002 41.4803C77.426 41.8787 77.5389 42.39 77.5389 43.0141C77.5389 43.6648 77.333 44.2757 76.9214 44.8467C76.5097 45.4044 75.8856 45.8559 75.0489 46.2012C74.2123 46.5332 73.1633 46.6992 71.9017 46.6992ZM83.1647 46.6992C82.2351 46.6992 81.3188 46.5996 80.4158 46.4004C79.5128 46.2012 78.7824 45.9423 78.2247 45.6235L79.4597 42.6556C79.9776 42.961 80.5752 43.2 81.2524 43.3727C81.943 43.5453 82.6136 43.6316 83.2643 43.6316C83.8087 43.6316 84.1739 43.5851 84.3598 43.4922C84.559 43.3992 84.6586 43.2731 84.6586 43.1137C84.6586 42.9544 84.5457 42.8415 84.32 42.7751C84.0942 42.6954 83.7955 42.6356 83.4236 42.5958C83.0518 42.556 82.6401 42.5095 82.1886 42.4564C81.7504 42.39 81.3055 42.297 80.854 42.1775C80.4025 42.058 79.9909 41.8787 79.619 41.6397C79.2472 41.4007 78.9484 41.0819 78.7227 40.6836C78.4969 40.2719 78.384 39.754 78.384 39.1298C78.384 38.4393 78.5899 37.8152 79.0015 37.2574C79.4265 36.6997 80.0506 36.2548 80.874 35.9228C81.7106 35.5776 82.7397 35.4049 83.9614 35.4049C84.7582 35.4049 85.555 35.478 86.3518 35.624C87.1485 35.7701 87.8324 35.9959 88.4035 36.3013L87.1685 39.2693C86.6107 38.9639 86.0596 38.758 85.5152 38.6518C84.984 38.5323 84.486 38.4725 84.0212 38.4725C83.4502 38.4725 83.0584 38.5256 82.846 38.6319C82.6468 38.7381 82.5472 38.8576 82.5472 38.9904C82.5472 39.1498 82.6601 39.2693 82.8858 39.349C83.1116 39.4286 83.4103 39.4884 83.7822 39.5282C84.154 39.5681 84.559 39.6212 84.9973 39.6876C85.4488 39.7407 85.8936 39.8337 86.3318 39.9665C86.7834 40.086 87.195 40.2652 87.5668 40.5043C87.9387 40.7433 88.2375 41.0687 88.4632 41.4803C88.689 41.8787 88.8018 42.39 88.8018 43.0141C88.8018 43.6648 88.596 44.2757 88.1843 44.8467C87.7727 45.4044 87.1485 45.8559 86.3119 46.2012C85.4753 46.5332 84.4262 46.6992 83.1647 46.6992ZM92.6396 46.5L88.8549 35.6041H93.1176L95.986 44.4483H93.9343L96.9422 35.6041H100.767L103.635 44.4483H101.643L104.611 35.6041H108.555L104.77 46.5H100.388L98.0975 39.4884H99.4122L97.0218 46.5H92.6396ZM114.888 46.6992C113.653 46.6992 112.557 46.4602 111.601 45.9821C110.658 45.4908 109.915 44.8201 109.37 43.9702C108.826 43.1204 108.553 42.1443 108.553 41.0421C108.553 39.9399 108.826 38.9639 109.37 38.114C109.915 37.2641 110.658 36.6001 111.601 36.122C112.557 35.644 113.653 35.4049 114.888 35.4049C116.123 35.4049 117.218 35.644 118.174 36.122C119.131 36.6001 119.874 37.2641 120.405 38.114C120.95 38.9639 121.222 39.9399 121.222 41.0421C121.222 42.1443 120.95 43.1204 120.405 43.9702C119.874 44.8201 119.131 45.4908 118.174 45.9821C117.218 46.4602 116.123 46.6992 114.888 46.6992ZM114.888 43.1934C115.22 43.1934 115.519 43.1137 115.784 42.9544C116.05 42.795 116.262 42.556 116.422 42.2373C116.581 41.9053 116.661 41.5069 116.661 41.0421C116.661 40.564 116.581 40.1723 116.422 39.8669C116.262 39.5482 116.05 39.3091 115.784 39.1498C115.519 38.9904 115.22 38.9107 114.888 38.9107C114.556 38.9107 114.257 38.9904 113.991 39.1498C113.726 39.3091 113.513 39.5482 113.354 39.8669C113.195 40.1723 113.115 40.564 113.115 41.0421C113.115 41.5069 113.195 41.9053 113.354 42.2373C113.513 42.556 113.726 42.795 113.991 42.9544C114.257 43.1137 114.556 43.1934 114.888 43.1934ZM122.631 46.5V35.6041H126.914V38.8908L126.217 37.9546C126.549 37.1047 127.08 36.4673 127.81 36.0424C128.54 35.6174 129.417 35.4049 130.439 35.4049V39.3888C130.24 39.3622 130.061 39.3423 129.902 39.329C129.756 39.3158 129.603 39.3091 129.444 39.3091C128.766 39.3091 128.209 39.4884 127.77 39.8469C127.345 40.1922 127.133 40.7964 127.133 41.6596V46.5H122.631ZM136.399 46.6992C135.456 46.6992 134.579 46.4734 133.769 46.0219C132.973 45.5572 132.335 44.9065 131.857 44.0698C131.379 43.22 131.14 42.2107 131.14 41.0421C131.14 39.8735 131.379 38.8709 131.857 38.0343C132.335 37.1844 132.973 36.5337 133.769 36.0822C134.579 35.6307 135.456 35.4049 136.399 35.4049C137.355 35.4049 138.138 35.6108 138.749 36.0224C139.36 36.4208 139.812 37.0383 140.104 37.8749C140.396 38.6983 140.542 39.754 140.542 41.0421C140.542 42.3435 140.403 43.4125 140.124 44.2491C139.858 45.0857 139.42 45.7032 138.809 46.1016C138.211 46.5 137.408 46.6992 136.399 46.6992ZM137.474 43.1934C137.806 43.1934 138.105 43.1137 138.371 42.9544C138.636 42.795 138.849 42.556 139.008 42.2373C139.168 41.9053 139.247 41.5069 139.247 41.0421C139.247 40.564 139.168 40.1723 139.008 39.8669C138.849 39.5482 138.636 39.3091 138.371 39.1498C138.105 38.9904 137.806 38.9107 137.474 38.9107C137.142 38.9107 136.844 38.9904 136.578 39.1498C136.312 39.3091 136.1 39.5482 135.941 39.8669C135.781 40.1723 135.702 40.564 135.702 41.0421C135.702 41.5069 135.781 41.9053 135.941 42.2373C136.1 42.556 136.312 42.795 136.578 42.9544C136.844 43.1137 137.142 43.1934 137.474 43.1934ZM139.387 46.5V45.026L139.367 41.0421L139.168 37.0582V31.7199H143.669V46.5H139.387Z" fill="#FFAB01"/>
<defs>
<linearGradient id="paint0_linear_2705_3627" x1="1.74826e-07" y1="39.5" x2="171.522" y2="66.9331" gradientUnits="userSpaceOnUse">
<stop stop-color="#173DE7"/>
<stop offset="1" stop-color="#D96DFC"/>
</linearGradient>
</defs>
</svg>
