<svg width="174" height="79" viewBox="0 0 174 79" fill="none" xmlns="http://www.w3.org/2000/svg">
<rect x="0.872414" y="0.872414" width="172.255" height="77.2552" rx="10.469" fill="#080682"/>
<rect x="0.872414" y="0.872414" width="172.255" height="77.2552" rx="10.469" stroke="url(#paint0_linear_2650_11105)" stroke-width="1.74483"/>
<path d="M29.4152 46V33.6569H32.836L39.1133 41.1686H37.5263V33.6569H41.5819V46H38.1611L31.8838 38.4884H33.4707V46H29.4152ZM47.4838 46.1763C46.7197 46.1763 46.0262 46.0235 45.4031 45.7179C44.7919 45.4005 44.3099 44.9126 43.9572 44.2543C43.6046 43.5843 43.4283 42.7262 43.4283 41.6799V36.3548H47.4133V40.9922C47.4133 41.6741 47.525 42.1501 47.7483 42.4205C47.9717 42.6909 48.2773 42.8261 48.6652 42.8261C48.9003 42.8261 49.1178 42.7673 49.3177 42.6497C49.5293 42.5204 49.6997 42.3147 49.829 42.0326C49.9583 41.7387 50.023 41.3567 50.023 40.8864V36.3548H54.008V46H50.2169V43.214L50.9752 43.9722C50.6342 44.7246 50.1464 45.2829 49.5116 45.6473C48.8886 46 48.2127 46.1763 47.4838 46.1763ZM68.5418 36.1785C69.2707 36.1785 69.9231 36.3313 70.4991 36.6369C71.0869 36.9308 71.5453 37.3951 71.8745 38.0299C72.2154 38.6647 72.3858 39.4876 72.3858 40.4985V46H68.4008V41.1862C68.4008 40.5867 68.3008 40.1635 68.101 39.9166C67.9012 39.658 67.6426 39.5287 67.3252 39.5287C67.0901 39.5287 66.8785 39.5875 66.6904 39.705C66.5023 39.8226 66.3495 40.0107 66.2319 40.2693C66.1261 40.5162 66.0732 40.8571 66.0732 41.292V46H62.0882V41.1862C62.0882 40.5867 61.9941 40.1635 61.806 39.9166C61.618 39.658 61.3535 39.5287 61.0126 39.5287C60.7775 39.5287 60.5659 39.5875 60.3778 39.705C60.1897 39.8226 60.0369 40.0107 59.9193 40.2693C59.8135 40.5162 59.7606 40.8571 59.7606 41.292V46H55.7756V36.3548H59.5667V39.1232L58.7908 38.3473C59.1552 37.6185 59.6431 37.0777 60.2543 36.7251C60.8656 36.3607 61.5474 36.1785 62.2998 36.1785C63.1462 36.1785 63.8926 36.4018 64.5392 36.8485C65.1974 37.2835 65.6383 37.977 65.8616 38.9292L64.645 38.7352C64.9976 37.9359 65.509 37.3128 66.179 36.8661C66.8608 36.4077 67.6484 36.1785 68.5418 36.1785ZM74.0264 42.4029V39.4053H79.3162V42.4029H74.0264ZM87.5094 46.2821C86.5102 46.2821 85.5874 46.1293 84.741 45.8237C83.9064 45.5063 83.1775 45.0596 82.5545 44.4836C81.9432 43.9076 81.4671 43.2258 81.1262 42.4381C80.7853 41.6505 80.6149 40.7807 80.6149 39.8285C80.6149 38.8763 80.7853 38.0064 81.1262 37.2188C81.4671 36.4312 81.9491 35.7494 82.5721 35.1734C83.1952 34.5974 83.9299 34.1565 84.7763 33.8509C85.6344 33.5335 86.5748 33.3748 87.5975 33.3748C88.8201 33.3748 89.9074 33.5805 90.8596 33.992C91.8235 34.4034 92.617 34.9912 93.2401 35.7553L90.5775 38.1004C90.1896 37.6537 89.7664 37.3187 89.3079 37.0954C88.8612 36.8603 88.3616 36.7427 87.8091 36.7427C87.3507 36.7427 86.9333 36.8132 86.5572 36.9543C86.1928 37.0954 85.8812 37.3011 85.6226 37.5715C85.364 37.8418 85.1642 38.1651 85.0231 38.5413C84.882 38.9174 84.8115 39.3465 84.8115 39.8285C84.8115 40.2869 84.882 40.7101 85.0231 41.098C85.1642 41.4742 85.364 41.7975 85.6226 42.0679C85.8812 42.3382 86.1869 42.5498 86.5395 42.7026C86.904 42.8437 87.3095 42.9142 87.7562 42.9142C88.2264 42.9142 88.6849 42.8378 89.1316 42.685C89.5783 42.5204 90.0544 42.2442 90.5599 41.8563L92.8874 44.7128C92.1351 45.2183 91.2769 45.6062 90.313 45.8766C89.3491 46.1469 88.4145 46.2821 87.5094 46.2821ZM89.2727 44.1838V39.4934H92.8874V44.7128L89.2727 44.1838ZM99.8622 46.1763C98.6867 46.1763 97.6581 45.9589 96.7764 45.5239C95.9065 45.089 95.2306 44.4953 94.7486 43.743C94.2667 42.9789 94.0257 42.1208 94.0257 41.1686C94.0257 40.1929 94.2608 39.3289 94.731 38.5765C95.213 37.8242 95.8654 37.2364 96.6883 36.8132C97.5229 36.39 98.4574 36.1785 99.4919 36.1785C100.444 36.1785 101.32 36.3665 102.119 36.7427C102.93 37.1189 103.577 37.6773 104.059 38.4178C104.553 39.1584 104.799 40.0753 104.799 41.1686C104.799 41.3096 104.794 41.4683 104.782 41.6447C104.77 41.8092 104.758 41.9621 104.747 42.1031H97.323V40.1811H102.631L101.132 40.6925C101.132 40.3163 101.061 39.9989 100.92 39.7403C100.791 39.4699 100.609 39.2642 100.374 39.1232C100.138 38.9703 99.8563 38.8939 99.5272 38.8939C99.198 38.8939 98.91 38.9703 98.6631 39.1232C98.428 39.2642 98.2458 39.4699 98.1165 39.7403C97.9872 39.9989 97.9226 40.3163 97.9226 40.6925V41.292C97.9226 41.7034 98.0049 42.0561 98.1694 42.35C98.334 42.6439 98.5691 42.8672 98.8747 43.02C99.1804 43.1611 99.5507 43.2316 99.9856 43.2316C100.432 43.2316 100.797 43.1729 101.079 43.0553C101.373 42.9377 101.678 42.7614 101.996 42.5263L104.076 44.6246C103.606 45.1301 103.024 45.518 102.331 45.7884C101.649 46.047 100.826 46.1763 99.8622 46.1763ZM112.758 36.1785C113.498 36.1785 114.168 36.3313 114.768 36.6369C115.367 36.9308 115.837 37.3951 116.178 38.0299C116.531 38.6647 116.707 39.4876 116.707 40.4985V46H112.722V41.1862C112.722 40.5867 112.616 40.1635 112.405 39.9166C112.193 39.658 111.905 39.5287 111.541 39.5287C111.27 39.5287 111.018 39.5934 110.783 39.7227C110.559 39.8402 110.377 40.0401 110.236 40.3222C110.107 40.6043 110.042 40.9864 110.042 41.4683V46H106.057V36.3548H109.848V39.1761L109.09 38.3649C109.466 37.6361 109.972 37.0895 110.606 36.7251C111.253 36.3607 111.97 36.1785 112.758 36.1785ZM118.438 46V36.3548H122.423V46H118.438ZM120.43 35.5789C119.702 35.5789 119.12 35.385 118.685 34.997C118.25 34.6091 118.032 34.1272 118.032 33.5511C118.032 32.9751 118.25 32.4932 118.685 32.1052C119.12 31.7173 119.702 31.5234 120.43 31.5234C121.159 31.5234 121.741 31.7056 122.176 32.07C122.611 32.4344 122.829 32.9046 122.829 33.4806C122.829 34.0919 122.611 34.5974 122.176 34.997C121.741 35.385 121.159 35.5789 120.43 35.5789ZM128.21 46.1763C127.446 46.1763 126.752 46.0235 126.129 45.7179C125.518 45.4005 125.036 44.9126 124.683 44.2543C124.33 43.5843 124.154 42.7262 124.154 41.6799V36.3548H128.139V40.9922C128.139 41.6741 128.251 42.1501 128.474 42.4205C128.697 42.6909 129.003 42.8261 129.391 42.8261C129.626 42.8261 129.844 42.7673 130.043 42.6497C130.255 42.5204 130.425 42.3147 130.555 42.0326C130.684 41.7387 130.749 41.3567 130.749 40.8864V36.3548H134.734V46H130.943V43.214L131.701 43.9722C131.36 44.7246 130.872 45.2829 130.237 45.6473C129.614 46 128.938 46.1763 128.21 46.1763ZM140.275 46.1763C139.452 46.1763 138.641 46.0882 137.841 45.9118C137.042 45.7355 136.396 45.5063 135.902 45.2242L136.995 42.5968C137.454 42.8672 137.983 43.0788 138.582 43.2316C139.193 43.3844 139.787 43.4609 140.363 43.4609C140.845 43.4609 141.168 43.4197 141.333 43.3374C141.509 43.2551 141.597 43.1435 141.597 43.0024C141.597 42.8613 141.497 42.7614 141.298 42.7026C141.098 42.6321 140.833 42.5792 140.504 42.5439C140.175 42.5087 139.81 42.4675 139.411 42.4205C139.023 42.3617 138.629 42.2795 138.229 42.1737C137.83 42.0679 137.465 41.9092 137.136 41.6976C136.807 41.486 136.543 41.2038 136.343 40.8512C136.143 40.4868 136.043 40.0283 136.043 39.4758C136.043 38.8645 136.225 38.312 136.59 37.8183C136.966 37.3246 137.518 36.9308 138.247 36.6369C138.988 36.3313 139.899 36.1785 140.98 36.1785C141.685 36.1785 142.391 36.2431 143.096 36.3724C143.801 36.5017 144.407 36.7016 144.912 36.9719L143.819 39.5992C143.325 39.3289 142.837 39.1467 142.356 39.0526C141.885 38.9468 141.444 38.8939 141.033 38.8939C140.528 38.8939 140.181 38.9409 139.993 39.035C139.816 39.129 139.728 39.2348 139.728 39.3524C139.728 39.4934 139.828 39.5992 140.028 39.6698C140.228 39.7403 140.492 39.7932 140.821 39.8285C141.151 39.8637 141.509 39.9108 141.897 39.9695C142.297 40.0166 142.691 40.0988 143.078 40.2164C143.478 40.3222 143.843 40.4809 144.172 40.6925C144.501 40.9041 144.765 41.1921 144.965 41.5565C145.165 41.9092 145.265 42.3617 145.265 42.9142C145.265 43.4902 145.083 44.031 144.718 44.5365C144.354 45.0302 143.801 45.4299 143.061 45.7355C142.32 46.0294 141.392 46.1763 140.275 46.1763Z" fill="#FFAB01"/>
<defs>
<linearGradient id="paint0_linear_2650_11105" x1="1.74826e-07" y1="39.5" x2="171.522" y2="66.9331" gradientUnits="userSpaceOnUse">
<stop stop-color="#173DE7"/>
<stop offset="1" stop-color="#D96DFC"/>
</linearGradient>
</defs>
</svg>
