<svg width="318" height="79" viewBox="0 0 318 79" fill="none" xmlns="http://www.w3.org/2000/svg">
<rect x="0.872414" y="0.872414" width="316.255" height="77.2552" rx="10.469" fill="#080682"/>
<rect x="0.872414" y="0.872414" width="316.255" height="77.2552" rx="10.469" stroke="url(#paint0_linear_2650_11105)" stroke-width="1.74483"/>
<path d="M82.9656 47.5V31.2024H87.4824L95.7709 41.1206H93.6755V31.2024H99.0304V47.5H94.5137L86.2252 37.5817H88.3206V47.5H82.9656ZM106.823 47.7328C105.814 47.7328 104.899 47.531 104.076 47.1275C103.269 46.7084 102.632 46.0643 102.167 45.195C101.701 44.3103 101.468 43.1772 101.468 41.7958V34.7646H106.73V40.8878C106.73 41.7881 106.878 42.4167 107.173 42.7737C107.467 43.1307 107.871 43.3092 108.383 43.3092C108.694 43.3092 108.981 43.2316 109.245 43.0764C109.524 42.9056 109.749 42.634 109.92 42.2615C110.091 41.8734 110.176 41.369 110.176 40.7481V34.7646H115.438V47.5H110.432V43.8214L111.433 44.8225C110.983 45.8159 110.339 46.5532 109.501 47.0344C108.678 47.5 107.786 47.7328 106.823 47.7328ZM134.628 34.5317C135.59 34.5317 136.452 34.7335 137.212 35.1371C137.988 35.5251 138.594 36.1382 139.028 36.9764C139.479 37.8145 139.704 38.9011 139.704 40.2359V47.5H134.442V41.1439C134.442 40.3523 134.31 39.7935 134.046 39.4676C133.782 39.1261 133.441 38.9554 133.022 38.9554C132.711 38.9554 132.432 39.033 132.183 39.1882C131.935 39.3434 131.733 39.5918 131.578 39.9332C131.438 40.2592 131.369 40.7093 131.369 41.2836V47.5H126.107V41.1439C126.107 40.3523 125.983 39.7935 125.734 39.4676C125.486 39.1261 125.137 38.9554 124.686 38.9554C124.376 38.9554 124.097 39.033 123.848 39.1882C123.6 39.3434 123.398 39.5918 123.243 39.9332C123.103 40.2592 123.033 40.7093 123.033 41.2836V47.5H117.772V34.7646H122.777V38.4199L121.753 37.3955C122.234 36.4331 122.878 35.7191 123.685 35.2535C124.492 34.7723 125.393 34.5317 126.386 34.5317C127.504 34.5317 128.489 34.8266 129.343 35.4165C130.212 35.9908 130.794 36.9065 131.089 38.1638L129.483 37.9077C129.948 36.8522 130.623 36.0296 131.508 35.4398C132.408 34.8344 133.448 34.5317 134.628 34.5317ZM141.87 42.7504V38.7924H148.854V42.7504H141.87ZM159.673 47.8725C158.353 47.8725 157.135 47.6707 156.017 47.2672C154.915 46.8481 153.953 46.2583 153.13 45.4977C152.323 44.7372 151.694 43.8369 151.244 42.797C150.794 41.757 150.569 40.6084 150.569 39.3512C150.569 38.0939 150.794 36.9453 151.244 35.9054C151.694 34.8655 152.331 33.9652 153.154 33.2046C153.976 32.4441 154.946 31.862 156.064 31.4585C157.197 31.0394 158.439 30.8298 159.789 30.8298C161.403 30.8298 162.839 31.1015 164.096 31.6447C165.369 32.188 166.417 32.9641 167.239 33.973L163.724 37.0695C163.211 36.4797 162.653 36.0373 162.047 35.7424C161.458 35.432 160.798 35.2768 160.068 35.2768C159.463 35.2768 158.912 35.3699 158.415 35.5562C157.934 35.7424 157.523 36.014 157.181 36.371C156.84 36.728 156.576 37.1549 156.39 37.6516C156.203 38.1483 156.11 38.7148 156.11 39.3512C156.11 39.9565 156.203 40.5153 156.39 41.0275C156.576 41.5242 156.84 41.951 157.181 42.308C157.523 42.665 157.926 42.9444 158.392 43.1462C158.873 43.3325 159.409 43.4256 159.999 43.4256C160.619 43.4256 161.225 43.3247 161.815 43.1229C162.404 42.9056 163.033 42.5409 163.7 42.0287L166.774 45.8004C165.78 46.4678 164.647 46.98 163.374 47.337C162.102 47.694 160.868 47.8725 159.673 47.8725ZM162.001 45.1019V38.9088H166.774V45.8004L162.001 45.1019ZM175.983 47.7328C174.431 47.7328 173.073 47.4457 171.909 46.8714C170.76 46.2971 169.868 45.5132 169.231 44.5199C168.595 43.511 168.277 42.3779 168.277 41.1206C168.277 39.8324 168.587 38.6915 169.208 37.6981C169.844 36.7048 170.706 35.9287 171.792 35.3699C172.894 34.8111 174.128 34.5317 175.494 34.5317C176.751 34.5317 177.908 34.7801 178.963 35.2768C180.034 35.7735 180.888 36.5107 181.524 37.4886C182.176 38.4665 182.502 39.6771 182.502 41.1206C182.502 41.3069 182.494 41.5164 182.479 41.7493C182.463 41.9666 182.448 42.1683 182.432 42.3546H172.63V39.8168H179.638L177.659 40.492C177.659 39.9953 177.566 39.5762 177.38 39.2348C177.209 38.8778 176.969 38.6061 176.658 38.4199C176.348 38.2181 175.975 38.1172 175.541 38.1172C175.106 38.1172 174.726 38.2181 174.4 38.4199C174.089 38.6061 173.849 38.8778 173.678 39.2348C173.507 39.5762 173.422 39.9953 173.422 40.492V41.2836C173.422 41.8269 173.531 42.2925 173.748 42.6806C173.965 43.0686 174.276 43.3635 174.679 43.5653C175.083 43.7515 175.572 43.8447 176.146 43.8447C176.736 43.8447 177.217 43.7671 177.59 43.6118C177.978 43.4566 178.381 43.2238 178.8 42.9134L181.548 45.684C180.927 46.3514 180.158 46.8636 179.243 47.2206C178.342 47.5621 177.256 47.7328 175.983 47.7328ZM193.01 34.5317C193.988 34.5317 194.873 34.7335 195.664 35.1371C196.456 35.5251 197.077 36.1382 197.527 36.9764C197.992 37.8145 198.225 38.9011 198.225 40.2359V47.5H192.963V41.1439C192.963 40.3523 192.824 39.7935 192.544 39.4676C192.265 39.1261 191.885 38.9554 191.403 38.9554C191.046 38.9554 190.713 39.0408 190.402 39.2115C190.107 39.3667 189.867 39.6306 189.681 40.0031C189.51 40.3756 189.424 40.8801 189.424 41.5164V47.5H184.163V34.7646H189.168V38.4897L188.167 37.4187C188.664 36.4564 189.331 35.7347 190.17 35.2535C191.023 34.7723 191.97 34.5317 193.01 34.5317ZM200.51 47.5V34.7646H205.772V47.5H200.51ZM203.141 33.7401C202.179 33.7401 201.411 33.484 200.836 32.9718C200.262 32.4596 199.975 31.8232 199.975 31.0627C199.975 30.3021 200.262 29.6657 200.836 29.1535C201.411 28.6413 202.179 28.3852 203.141 28.3852C204.104 28.3852 204.872 28.6258 205.446 29.107C206.02 29.5881 206.308 30.209 206.308 30.9695C206.308 31.7767 206.02 32.4441 205.446 32.9718C204.872 33.484 204.104 33.7401 203.141 33.7401ZM213.413 47.7328C212.404 47.7328 211.488 47.531 210.665 47.1275C209.858 46.7084 209.222 46.0643 208.756 45.195C208.291 44.3103 208.058 43.1772 208.058 41.7958V34.7646H213.32V40.8878C213.32 41.7881 213.467 42.4167 213.762 42.7737C214.057 43.1307 214.46 43.3092 214.973 43.3092C215.283 43.3092 215.57 43.2316 215.834 43.0764C216.113 42.9056 216.339 42.634 216.509 42.2615C216.68 41.8734 216.765 41.369 216.765 40.7481V34.7646H222.027V47.5H217.021V43.8214L218.023 44.8225C217.573 45.8159 216.928 46.5532 216.09 47.0344C215.268 47.5 214.375 47.7328 213.413 47.7328ZM229.343 47.7328C228.257 47.7328 227.186 47.6164 226.131 47.3836C225.075 47.1508 224.221 46.8481 223.569 46.4756L225.013 43.0065C225.618 43.3635 226.317 43.6429 227.108 43.8447C227.915 44.0465 228.699 44.1473 229.46 44.1473C230.096 44.1473 230.523 44.093 230.74 43.9844C230.973 43.8757 231.09 43.7283 231.09 43.542C231.09 43.3557 230.958 43.2238 230.694 43.1462C230.43 43.0531 230.081 42.9832 229.646 42.9367C229.212 42.8901 228.73 42.8358 228.203 42.7737C227.69 42.6961 227.17 42.5874 226.643 42.4477C226.115 42.308 225.634 42.0985 225.199 41.8191C224.765 41.5397 224.415 41.1672 224.152 40.7016C223.888 40.2204 223.756 39.615 223.756 38.8855C223.756 38.0784 223.996 37.3489 224.477 36.697C224.974 36.0451 225.704 35.5251 226.666 35.1371C227.644 34.7335 228.847 34.5317 230.275 34.5317C231.206 34.5317 232.137 34.6171 233.069 34.7878C234 34.9586 234.799 35.2224 235.467 35.5794L234.023 39.0485C233.371 38.6915 232.727 38.4509 232.091 38.3268C231.47 38.1871 230.888 38.1172 230.345 38.1172C229.677 38.1172 229.219 38.1793 228.971 38.3035C228.738 38.4276 228.622 38.5673 228.622 38.7226C228.622 38.9088 228.754 39.0485 229.018 39.1416C229.281 39.2348 229.631 39.3046 230.065 39.3512C230.5 39.3977 230.973 39.4598 231.485 39.5374C232.013 39.5995 232.533 39.7082 233.045 39.8634C233.573 40.0031 234.054 40.2126 234.489 40.492C234.923 40.7714 235.273 41.1517 235.537 41.6329C235.8 42.0985 235.932 42.6961 235.932 43.4256C235.932 44.1861 235.692 44.9001 235.211 45.5676C234.729 46.2195 234 46.7472 233.022 47.1508C232.044 47.5388 230.818 47.7328 229.343 47.7328Z" fill="#FFAB01"/>
<defs>
<linearGradient id="paint0_linear_2650_11105" x1="3.19509e-07" y1="39.5" x2="296.184" y2="126.075" gradientUnits="userSpaceOnUse">
<stop stop-color="#173DE7"/>
<stop offset="1" stop-color="#D96DFC"/>
</linearGradient>
</defs>
</svg>
