<svg width="318" height="79" viewBox="0 0 318 79" fill="none" xmlns="http://www.w3.org/2000/svg">
<rect x="0.872414" y="0.872414" width="316.255" height="77.2552" rx="10.469" fill="#080682"/>
<rect x="0.872414" y="0.872414" width="316.255" height="77.2552" rx="10.469" stroke="url(#paint0_linear_2414_2123)" stroke-width="1.74483"/>
<path d="M110.818 56.7392C110.749 56.912 110.622 57.2333 108.187 58.0296C107.13 58.3753 105.679 58.7792 105.069 58.7798C104.954 58.7798 104.785 58.7678 104.645 58.6694C104.236 58.3802 104.274 57.7192 104.317 56.9539C104.333 56.6652 104.358 56.2293 104.316 56.1075C104.067 55.4052 103.577 55.0334 102.819 54.9704C102.708 54.9611 102.601 54.9562 102.499 54.9562C101.832 54.9562 101.38 55.1541 101.155 55.5455C100.746 56.2543 101.07 57.4524 101.543 58.265C101.617 58.3922 101.685 58.5047 101.745 58.6042C102.013 59.0456 102.189 59.3369 102.07 59.6712C101.942 60.0311 101.589 60.1577 100.815 60.4344C100.713 60.4708 100.604 60.51 100.485 60.5529C99.663 60.8514 98.84 61.1471 98.0171 61.4428C97.592 61.5955 96.3483 62.0434 96.3483 62.0434L96.2064 61.6515C96.1102 61.3857 95.9966 60.9693 95.864 60.4866C95.5161 59.2168 94.7915 56.5756 94.0576 56.3119C93.9766 56.2831 93.9011 56.269 93.8266 56.269C93.4891 56.269 93.1531 56.5859 92.7976 56.9213C92.3448 57.3485 91.8311 57.8329 91.1196 57.8329C90.8288 57.8329 90.5298 57.7481 90.2314 57.5812C89.7726 57.3241 89.4318 56.8463 89.2964 56.2701C89.1616 55.6939 89.2524 55.1177 89.5448 54.6899C90.0085 54.0126 90.5923 53.9343 90.9908 53.9343C91.1625 53.9343 91.3321 53.9506 91.4957 53.9658C91.6539 53.9811 91.8029 53.9946 91.9485 53.9946C92.1247 53.9946 92.266 53.9734 92.3927 53.9283C92.6797 53.8256 92.8558 53.6788 92.9466 53.4668C93.2319 52.8026 92.6737 51.5436 92.2258 50.532C91.9562 49.9238 91.7018 49.3492 91.6077 48.8839L91.5963 48.8274C91.4697 48.2006 91.4061 47.8864 91.5349 47.5973C91.6855 47.2586 91.9996 47.1586 92.4758 47.008C92.6443 46.9542 92.8357 46.8939 93.0683 46.8102C93.3488 46.7096 93.7108 46.6117 94.0946 46.5085C94.9453 46.278 96.1102 45.9633 96.5429 45.5306C97.0538 45.0185 96.8886 44.7223 96.2439 43.9384C95.6742 43.2459 94.8937 42.2974 95.8792 41.1254C96.258 40.6742 96.8919 40.3943 97.5333 40.3943C98.0209 40.3943 98.4677 40.5584 98.7911 40.8569C99.4412 41.4548 99.3608 42.1794 99.2956 42.761C99.2581 43.1019 99.2222 43.4237 99.3276 43.6802C99.4184 43.9004 99.6054 44.1521 100.252 44.1521C101.358 44.1521 102.998 43.4144 104.195 42.8752C104.639 42.6757 104.352 42.779 104.639 42.6757L104.771 42.624C105.277 42.4256 105.846 42.6898 106.02 43.204C106.109 43.4503 106.094 43.266 106.282 43.6944C107.339 46.1002 108.129 48.1425 107.085 48.7687C106.799 48.9399 106.475 48.9595 106.256 48.9595C106.09 48.9595 105.921 48.9464 105.757 48.9339C105.599 48.922 105.436 48.9095 105.285 48.9095C105.027 48.9095 104.842 48.947 104.703 49.0263C104.032 49.4112 103.72 50.2086 103.925 51.0109C104.097 51.6861 104.631 52.2661 105.222 52.421C105.346 52.4531 105.461 52.4694 105.568 52.4694C105.954 52.4694 106.226 52.2525 106.569 51.9769C106.841 51.76 107.149 51.5132 107.549 51.3675C107.906 51.2376 108.132 51.1843 108.33 51.1843C108.964 51.1843 109.135 51.698 109.332 52.2927C109.378 52.4313 109.43 52.5889 109.494 52.7662C109.549 52.9167 109.686 53.2151 109.844 53.5609C110.673 55.3683 111.01 56.2559 110.818 56.7392Z" fill="#51B59F"/>
<mask id="mask0_2414_2123" style="mask-type:luminance" maskUnits="userSpaceOnUse" x="103" y="37" width="23" height="22">
<path d="M103.593 37.1553H125.401V58.7968H103.593V37.1553Z" fill="white"/>
</mask>
<g mask="url(#mask0_2414_2123)">
<path d="M125.401 51.6632L125.008 51.8045C124.773 51.8893 124.42 51.9871 123.973 52.1111C123.133 52.3432 121.983 52.6617 121.063 53.0607C119.765 53.6228 119.611 54.0495 119.605 54.2066C119.595 54.4338 119.974 54.9763 120.249 55.372C120.795 56.1558 121.414 57.0435 121.085 57.8083C120.873 58.3014 120.329 58.6085 119.421 58.7487C119.244 58.7759 119.076 58.7895 118.923 58.7895C117.336 58.7895 117.33 57.3876 117.325 56.4592C117.323 55.8585 117.319 55.2372 117.017 55.0035C116.911 54.9208 116.728 54.8774 116.49 54.8774C115.422 54.8774 113.607 55.7096 112.405 56.2597C111.935 56.4755 111.529 56.6614 111.249 56.7625L110.856 56.9033L110.714 56.5114C110.628 56.2716 110.526 55.9042 110.396 55.4389C110.167 54.6192 109.855 53.4967 109.478 52.5845C108.939 51.2794 108.549 51.0728 108.406 51.0446C108.387 51.0408 108.366 51.0391 108.344 51.0391C108.027 51.0391 107.532 51.4104 107.095 51.7387C106.512 52.1752 105.91 52.6275 105.288 52.6275C104.646 52.6275 104.157 52.1627 103.833 51.2457C103.577 50.5216 103.585 49.9699 103.857 49.559C104.281 48.9192 105.166 48.8637 106.022 48.811C106.6 48.7746 107.255 48.7344 107.446 48.4925C107.965 47.8385 107.295 46.4763 106.704 45.2745C106.206 44.2634 105.737 43.3084 105.806 42.5446L105.83 42.2804L106.08 42.1902C106.34 42.0962 106.704 41.938 107.126 41.7543C108.371 41.2107 109.921 40.5345 110.983 40.5345C111.495 40.5345 111.871 40.6921 112.1 41.0025C112.388 41.3917 112.361 41.8842 112.335 42.3609C112.306 42.8762 112.28 43.3633 112.621 43.6954C112.952 44.0183 113.368 44.1889 113.826 44.1889C114.061 44.1889 114.301 44.1444 114.54 44.0569C115.258 43.7954 115.705 43.2529 115.77 42.5691C115.818 42.0445 115.601 41.7852 115.299 41.4248C115.091 41.1764 114.855 40.8949 114.706 40.5029C114.528 40.0338 114.446 39.6805 114.594 39.3712C114.759 39.0249 115.116 38.9075 115.61 38.745C115.753 38.6977 115.915 38.6439 116.095 38.5787C116.236 38.5281 116.528 38.3949 116.867 38.2416C118.124 37.6693 119.213 37.1958 119.789 37.1958C119.911 37.1958 120.014 37.2159 120.106 37.2561C120.528 37.4404 120.826 38.1487 121.435 40.4116C121.516 40.7117 121.586 40.971 121.626 41.0873C121.676 41.2351 121.737 41.3852 121.795 41.5308C122.061 42.1897 122.425 43.0926 121.432 43.6204C121.206 43.7405 120.952 43.7965 120.633 43.7965C120.457 43.7965 120.281 43.7796 120.11 43.7633C119.943 43.7476 119.785 43.7323 119.631 43.7323C119.322 43.7323 119.11 43.7949 118.922 43.94C118.36 44.3738 118.133 45.2598 118.394 46.0018C118.655 46.7416 119.362 47.2792 120.075 47.2792L120.1 47.2787C120.507 47.2716 120.839 46.9509 121.19 46.6111C121.548 46.2654 121.918 45.9077 122.419 45.8719C122.44 45.8708 122.46 45.8697 122.482 45.8697C123.6 45.8697 124.268 47.875 124.964 50.2972C125.082 50.7059 125.183 51.0592 125.259 51.2707L125.401 51.6632Z" fill="#397DC9"/>
</g>
<mask id="mask1_2414_2123" style="mask-type:luminance" maskUnits="userSpaceOnUse" x="85" y="25" width="23" height="23">
<path d="M85.874 25.8628H107.715V47.5712H85.874V25.8628Z" fill="white"/>
</mask>
<g mask="url(#mask1_2414_2123)">
<path d="M107.358 35.5402C106.891 36.0685 106.102 36.0696 105.408 36.0707C104.963 36.0713 104.502 36.0718 104.233 36.2088C103.622 36.5181 103.748 37.1176 104.26 38.3451C104.342 38.5418 104.42 38.7283 104.484 38.9071C104.536 39.0512 104.659 39.3023 104.788 39.5681C105.296 40.6096 105.644 41.3869 105.487 41.9109C105.272 42.6257 104.478 42.8769 103.71 43.1199C103.538 43.1737 103.362 43.2291 103.198 43.2889C102.982 43.3666 102.731 43.4797 102.464 43.5993C101.845 43.8781 101.143 44.194 100.531 44.2228C100.37 44.2298 100.25 44.2336 100.15 44.2336C99.8893 44.2336 99.5952 44.2168 99.3985 44.0113C99.2038 43.8086 99.2153 43.5515 99.2261 43.303C99.2332 43.1476 99.2419 42.9535 99.2158 42.7051C99.0848 41.4326 98.4032 40.6732 97.3921 40.6732C96.7382 40.6732 96.1131 41.007 95.8 41.5239C95.4994 42.0191 95.5178 42.6192 95.8527 43.2585C95.9027 43.353 96.1038 43.5493 96.2658 43.7064C96.7034 44.1331 97.1551 44.5739 97.0589 45.074C96.942 45.6779 96.1283 45.9492 95.1569 46.2172C95.0172 46.2552 94.8857 46.2916 94.8183 46.3161C94.5959 46.3965 94.3508 46.5042 94.0915 46.6183C93.4914 46.882 92.8712 47.1548 92.2759 47.2174C91.9645 47.2505 91.8769 47.3201 91.84 47.3494C91.7954 47.3848 91.691 47.4679 91.5339 47.4679H91.5334C91.2475 47.4679 91.1382 47.2309 91.0855 47.1168C91.0387 47.0146 90.9512 46.8238 90.749 46.49C90.5321 46.1313 90.4044 45.7008 90.281 45.2849C90.2261 45.1017 90.175 44.9289 90.1196 44.7751C90.0842 44.6778 90.0011 44.4951 89.9048 44.2831C89.2884 42.9274 89.0389 42.2045 89.289 41.7614C89.5945 41.2195 90.2223 41.2195 90.4288 41.2195C90.5903 41.2195 90.7572 41.2325 90.9181 41.2445C91.0735 41.2565 91.2203 41.2679 91.3573 41.2679C91.485 41.2679 91.5856 41.2575 91.6649 41.2369C92.3319 41.064 92.8288 40.5764 92.9935 39.9334C93.1592 39.2854 92.95 38.6087 92.433 38.1238C92.0906 37.8015 91.7302 37.6455 91.3334 37.6455C91.0507 37.6455 90.7425 37.7265 90.4185 37.8863C90.3212 37.9341 90.0967 38.1651 89.9326 38.3336C89.5249 38.7538 89.1406 39.1501 88.7144 39.1501L88.6878 39.1495C87.855 39.1169 87.2554 37.5748 86.3025 34.347C86.1906 33.9676 86.0938 33.6398 86.0384 33.4855L85.8965 33.0935L86.2889 32.9522C86.7222 32.7962 87.2734 32.65 87.8572 32.4951C89.1112 32.1618 90.6718 31.7476 91.3225 31.1263C91.622 30.8404 91.7726 30.6154 91.759 30.4746C91.7454 30.336 91.5796 30.1392 91.3877 29.9125C91.2007 29.6918 90.9681 29.4168 90.767 29.0656C90.3642 28.3638 90.3658 27.4947 90.7702 26.7967C91.1132 26.2058 91.6731 25.8672 92.3069 25.8672C92.6553 25.8672 93.0098 25.9705 93.3604 26.1738C94.297 26.719 94.2535 27.6653 94.2187 28.4264C94.1834 29.1852 94.2062 29.5391 94.5698 29.7402C94.6579 29.7891 94.784 29.8136 94.9444 29.8136C95.7032 29.8136 96.8746 29.2798 97.7302 28.89C98.0661 28.7367 98.3559 28.6047 98.576 28.5253C98.775 28.453 98.937 28.385 99.0799 28.3253C99.3696 28.204 99.5789 28.116 99.8148 28.116C100.246 28.116 100.534 28.4264 100.792 28.7444C101.222 29.2716 101.456 30.1462 101.663 30.9187C101.752 31.2508 101.836 31.5644 101.924 31.8069C101.976 31.9498 102.026 32.0977 102.076 32.2466C102.38 33.1512 102.616 33.7437 103.108 33.7437C103.234 33.7437 103.382 33.711 103.548 33.6469C103.75 33.5686 103.934 33.3604 104.127 33.1403C104.41 32.8201 104.73 32.457 105.236 32.3342C105.391 32.2966 105.55 32.2771 105.708 32.2771C106.71 32.2771 107.56 33.0392 107.685 34.0491C107.767 34.7101 107.66 35.1977 107.358 35.5402Z" fill="#F8E505"/>
</g>
<path d="M118.304 26.8749C118.324 27.3381 117.894 27.6588 117.641 27.8159C117.338 28.4339 116.793 28.9688 116.264 29.4868C115.933 29.8124 115.62 30.1201 115.394 30.4212C114.719 31.3241 114.724 31.6024 114.741 31.6655C114.773 31.7802 115.115 31.9204 115.416 32.0444C115.805 32.2042 116.289 32.4026 116.762 32.7532C117.472 33.2805 117.742 34.1257 117.466 34.9596C117.181 35.8195 116.406 36.4207 115.581 36.4207H115.58C115.226 36.4207 114.881 36.3153 114.555 36.1076C113.955 35.725 113.662 35.1384 113.426 34.6671C113.191 34.1948 113.068 33.9882 112.882 33.9882C112.765 33.9882 112.54 34.0437 112.13 34.3106C111.557 34.6829 110.984 35.4678 110.478 36.1604C110.23 36.4996 109.995 36.8203 109.764 37.0931C109.189 37.7715 108.811 38.1879 108.323 38.1879C107.92 38.1879 107.625 37.9259 107.136 37.4927C106.996 37.3698 106.838 37.2301 106.655 37.0757C106.533 36.973 106.314 36.8197 106.06 36.6425C105.04 35.9288 104.245 35.3363 104.07 34.7514C103.772 33.7545 104.423 33.499 104.812 33.3462C104.999 33.2734 105.192 33.1973 105.365 33.0592C106.035 32.5238 106.397 31.7296 106.288 31.0366C106.195 30.4495 105.781 30.0011 105.091 29.7412C104.819 29.6385 104.568 29.5869 104.344 29.5869C103.243 29.5869 102.75 30.8708 102.263 32.4227L102.042 33.1261L96.6162 28.6416L96.8875 28.3203C97.0027 28.1828 97.2125 27.8985 97.4566 27.5696C99.1667 25.2562 100.244 24.0032 101.033 24.0032C101.121 24.0032 101.206 24.0179 101.285 24.0467C101.752 24.2185 101.982 24.7425 102.204 25.2496C102.365 25.616 102.546 26.0313 102.768 26.1694C103.095 26.3727 103.425 26.4759 103.748 26.4759C104.006 26.4759 104.268 26.4107 104.529 26.2819C105.213 25.9422 105.583 25.4431 105.597 24.8392C105.613 24.0989 105.087 23.3053 104.287 22.8633C103.999 22.7035 103.757 22.6019 103.564 22.5192C103.223 22.3752 102.929 22.2507 102.839 21.9278C102.734 21.5484 102.983 21.2087 103.526 20.465C103.614 20.3449 103.713 20.2052 103.82 20.0536C104.362 19.2887 105.092 18.2559 105.776 17.7776C105.907 17.483 106.196 16.9568 106.728 16.9568C107.24 16.9568 107.596 17.477 107.747 17.7216C108.218 18.1179 108.689 18.5141 109.161 18.9104C109.312 19.0376 109.489 19.2121 109.695 19.4143C110.18 19.891 110.992 20.689 111.434 20.7167C111.46 20.7184 111.485 20.7189 111.51 20.7189C111.998 20.7189 112.155 20.3917 112.42 19.5866C112.676 18.8115 113.025 17.7499 114.328 17.7499L114.371 17.7504C114.946 17.7607 115.534 18.0646 115.944 18.5636C116.329 19.0305 116.494 19.6002 116.4 20.1253C116.24 21.013 115.595 21.3147 115.077 21.5576C114.84 21.6685 114.617 21.7729 114.442 21.9224C114.137 22.1838 113.993 22.4241 114 22.6562C114.019 23.2145 114.889 23.864 115.588 24.3853C115.839 24.5729 116.077 24.7501 116.287 24.9273C116.729 25.2975 117.172 25.6704 117.615 26.0443C118.059 26.2656 118.291 26.5444 118.304 26.8749Z" fill="#EF3220"/>
<path d="M101.876 33.3265C101.924 33.3662 101.983 33.3863 102.042 33.3863C102.117 33.3863 102.191 33.3542 102.243 33.2917C102.335 33.1814 102.319 33.0167 102.208 32.9248L97.3696 28.9268C97.2587 28.8355 97.0946 28.8507 97.0027 28.9616C96.9108 29.0725 96.9261 29.2366 97.0375 29.3285L101.876 33.3265ZM110.945 57.1483C110.916 57.1592 110.886 57.1641 110.856 57.1641C110.75 57.1641 110.649 57.0983 110.611 56.9918L110.469 56.5999C110.379 56.3493 110.276 55.978 110.145 55.5084C109.918 54.6952 109.608 53.5814 109.237 52.6834C108.703 51.3891 108.36 51.301 108.356 51.3005C108.352 51.2994 108.348 51.2994 108.344 51.2994C108.115 51.2994 107.595 51.6892 107.251 51.9468C106.634 52.4094 105.996 52.8878 105.288 52.8878C104.763 52.8878 104.042 52.6181 103.587 51.3326C103.302 50.5259 103.319 49.8986 103.64 49.4148C104.135 48.6669 105.129 48.6054 106.005 48.5505C106.397 48.5266 107.123 48.4815 107.242 48.3309C107.658 47.8053 107 46.4659 106.47 45.3896C106.091 44.6188 105.733 43.8893 105.596 43.224L105.421 43.2082C104.729 43.1452 103.805 43.5991 102.826 44.0796C101.554 44.7042 100.111 45.4114 99.3271 44.7917C98.9938 44.5281 98.9536 43.8741 98.9101 43.1816C98.8612 42.3896 98.8101 41.5715 98.2774 41.2198C97.9393 40.9953 97.462 40.997 96.8195 41.2236C96.0172 41.5068 95.6101 41.9129 95.6101 42.4309C95.6101 42.9653 96.0357 43.5311 96.4477 44.0791C96.8179 44.5715 97.2 45.0803 97.2 45.4837C97.2 45.5228 97.1968 45.5609 97.1897 45.5967C97.1098 46.0017 96.5385 46.4262 95.4916 46.8573C94.5637 47.2394 93.4314 47.5542 92.6041 47.7841C92.1442 47.9118 91.7816 48.0124 91.5484 48.0961L91.156 48.238C91.1272 48.2483 91.0973 48.2532 91.0674 48.2532C90.9608 48.2532 90.8608 48.1874 90.8222 48.0814C90.7733 47.9461 90.8434 47.7966 90.9793 47.7482L91.3718 47.6063C91.6229 47.5161 91.9942 47.4128 92.4644 47.2824C93.2787 47.0557 94.3935 46.7459 95.2926 46.3757C96.589 45.8419 96.6771 45.4989 96.6782 45.4956C96.6787 45.4913 96.6787 45.4875 96.6787 45.4837C96.6787 45.2543 96.289 44.7357 96.0308 44.3927C95.5671 43.7757 95.0882 43.1387 95.0882 42.4309C95.0882 41.9069 95.3584 41.1867 96.6456 40.7322C97.4533 40.4474 98.0812 40.4648 98.5655 40.785C99.3146 41.2802 99.376 42.2722 99.4303 43.1479C99.4548 43.5387 99.4999 44.2639 99.651 44.3829C100.177 44.7993 101.518 44.1405 102.596 43.6121C103.642 43.0984 104.63 42.6125 105.468 42.6897L105.733 42.7136C105.808 42.7201 105.873 42.7592 105.916 42.8152C106.003 42.8457 106.072 42.9201 106.089 43.018C106.19 43.6393 106.553 44.378 106.938 45.1591C107.563 46.4306 108.272 47.8711 107.651 48.6544C107.388 48.987 106.733 49.0278 106.039 49.0707C105.246 49.1202 104.427 49.1708 104.075 49.7024C103.851 50.0405 103.852 50.5167 104.079 51.1586C104.362 51.9604 104.769 52.367 105.288 52.367C105.822 52.367 106.389 51.9419 106.938 51.5304C107.431 51.1603 107.94 50.7781 108.344 50.7781C108.383 50.7781 108.421 50.7819 108.458 50.789C108.863 50.8689 109.288 51.4397 109.72 52.4855C110.102 53.4118 110.417 54.543 110.648 55.3687C110.775 55.828 110.876 56.1905 110.96 56.4232L111.102 56.8151C111.15 56.9505 111.08 57.0994 110.945 57.1483Z" fill="#110F0D"/>
<path d="M135.899 47.5V31.2024H143.745C145.266 31.2024 146.578 31.4507 147.68 31.9474C148.797 32.4441 149.659 33.1581 150.264 34.0894C150.869 35.0051 151.172 36.0917 151.172 37.3489C151.172 38.6061 150.869 39.6927 150.264 40.6084C149.659 41.5242 148.797 42.2382 147.68 42.7504C146.578 43.2471 145.266 43.4954 143.745 43.4954H138.949L141.394 41.1439V47.5H135.899ZM141.394 41.7493L138.949 39.2581H143.396C144.156 39.2581 144.715 39.0873 145.072 38.7458C145.445 38.4044 145.631 37.9387 145.631 37.3489C145.631 36.7591 145.445 36.2934 145.072 35.952C144.715 35.6105 144.156 35.4398 143.396 35.4398H138.949L141.394 32.9485V41.7493ZM160.546 47.8725C158.047 47.8725 156.099 47.1973 154.703 45.847C153.306 44.4966 152.607 42.6029 152.607 40.1661V31.2024H158.102V40.0031C158.102 41.2448 158.327 42.1295 158.777 42.6573C159.227 43.1695 159.832 43.4256 160.593 43.4256C161.369 43.4256 161.974 43.1695 162.409 42.6573C162.859 42.1295 163.084 41.2448 163.084 40.0031V31.2024H168.486V40.1661C168.486 42.6029 167.787 44.4966 166.39 45.847C164.993 47.1973 163.045 47.8725 160.546 47.8725ZM170.422 47.5V44.1241L179.502 33.5539L180.178 35.463H170.655V31.2024H185.02V34.5783L175.94 45.1485L175.265 43.2393H185.393V47.5H170.422ZM186.406 47.5V44.1241L195.486 33.5539L196.161 35.463H186.639V31.2024H201.004V34.5783L191.924 45.1485L191.249 43.2393H201.377V47.5H186.406ZM202.972 47.5V31.2024H208.467V43.2393H215.824V47.5H202.972ZM222.371 37.2558H229.635V41.2138H222.371V37.2558ZM222.743 43.3557H230.892V47.5H217.342V31.2024H230.589V35.3466H222.743V43.3557Z" fill="#FFAB01"/>
<defs>
<linearGradient id="paint0_linear_2414_2123" x1="3.19509e-07" y1="39.5" x2="296.184" y2="126.075" gradientUnits="userSpaceOnUse">
<stop stop-color="#173DE7"/>
<stop offset="1" stop-color="#D96DFC"/>
</linearGradient>
</defs>
</svg>
