<svg width="174" height="81" viewBox="0 0 174 81" fill="none" xmlns="http://www.w3.org/2000/svg">
<rect x="0.892941" y="0.963498" width="172.214" height="79.0729" rx="10.7153" fill="#080682"/>
<rect x="0.892941" y="0.963498" width="172.214" height="79.0729" rx="10.7153" stroke="url(#paint0_linear_2414_2123)" stroke-width="1.78588"/>
<path d="M45.3374 58.1448C45.2673 58.3217 45.1365 58.6505 42.6451 59.4656C41.563 59.8194 40.078 60.2328 39.4532 60.2334C39.3352 60.2334 39.1622 60.2211 39.0198 60.1204C38.6008 59.8244 38.6392 59.1479 38.6837 58.3645C38.7004 58.0691 38.726 57.6229 38.6821 57.4983C38.4278 56.7794 37.9265 56.3989 37.1498 56.3343C37.0363 56.3249 36.9267 56.3199 36.8232 56.3199C36.14 56.3199 35.6777 56.5224 35.4473 56.923C35.0289 57.6485 35.36 58.8747 35.844 59.7065C35.9202 59.8367 35.9898 59.9518 36.0516 60.0537C36.3253 60.5054 36.5056 60.8036 36.3837 61.1458C36.253 61.5141 35.8913 61.6438 35.099 61.927C34.995 61.9642 34.8832 62.0043 34.7613 62.0482C33.9201 62.3537 33.0778 62.6564 32.2354 62.959C31.8003 63.1154 30.5274 63.5738 30.5274 63.5738L30.3821 63.1727C30.2837 62.9006 30.1674 62.4744 30.0316 61.9804C29.6756 60.6807 28.9339 57.9773 28.1828 57.7075C28.0999 57.678 28.0226 57.6635 27.9464 57.6635C27.6009 57.6635 27.257 57.9879 26.8932 58.3311C26.4297 58.7684 25.9039 59.2642 25.1756 59.2642C24.878 59.2642 24.572 59.1774 24.2665 59.0066C23.797 58.7434 23.4481 58.2544 23.3096 57.6646C23.1716 57.0749 23.2645 56.4851 23.5638 56.0472C24.0384 55.354 24.636 55.2739 25.0438 55.2739C25.2196 55.2739 25.3932 55.2906 25.5607 55.3062C25.7226 55.3217 25.875 55.3356 26.0241 55.3356C26.2044 55.3356 26.349 55.3139 26.4787 55.2678C26.7724 55.1626 26.9527 55.0124 27.0456 54.7954C27.3377 54.1155 26.7663 52.827 26.3079 51.7916C26.0319 51.169 25.7715 50.5809 25.6753 50.1047L25.6636 50.0468C25.5339 49.4053 25.4689 49.0837 25.6007 48.7877C25.7548 48.4411 26.0764 48.3387 26.5638 48.1846C26.7363 48.1295 26.9321 48.0678 27.1702 47.9821C27.4573 47.8792 27.8279 47.779 28.2207 47.6733C29.0914 47.4374 30.2837 47.1153 30.7265 46.6724C31.2495 46.1483 31.0804 45.8451 30.4205 45.0428C29.8375 44.334 29.0385 43.3631 30.0472 42.1636C30.435 41.7018 31.0837 41.4153 31.7402 41.4153C32.2393 41.4153 32.6966 41.5833 33.0277 41.8888C33.6931 42.5008 33.6108 43.2424 33.544 43.8377C33.5056 44.1866 33.4689 44.5159 33.5768 44.7785C33.6697 45.0039 33.8611 45.2615 34.5232 45.2615C35.6549 45.2615 37.3334 44.5065 38.5591 43.9546C39.0131 43.7504 38.7199 43.8561 39.0131 43.7504L39.1483 43.6975C39.6657 43.4944 40.2488 43.7648 40.4268 44.2912C40.5175 44.5432 40.502 44.3546 40.6945 44.793C41.7766 47.2555 42.585 49.3458 41.5162 49.9867C41.2241 50.162 40.892 50.182 40.6677 50.182C40.4986 50.182 40.325 50.1686 40.157 50.1558C39.9957 50.1436 39.8293 50.1308 39.6746 50.1308C39.4098 50.1308 39.2206 50.1692 39.0788 50.2504C38.3922 50.6443 38.0723 51.4605 38.282 52.2817C38.4584 52.9727 39.0048 53.5664 39.6101 53.725C39.7364 53.7578 39.8549 53.7745 39.9639 53.7745C40.3595 53.7745 40.6371 53.5525 40.9888 53.2704C41.267 53.0484 41.5819 52.7958 41.9919 52.6467C42.3569 52.5137 42.5883 52.4592 42.7914 52.4592C43.4401 52.4592 43.6148 52.985 43.8168 53.5937C43.8635 53.7355 43.9169 53.8969 43.9826 54.0783C44.0382 54.2324 44.1784 54.5378 44.3403 54.8917C45.1888 56.7416 45.5338 57.6501 45.3374 58.1448Z" fill="#51B59F"/>
<mask id="mask0_2414_2123" style="mask-type:luminance" maskUnits="userSpaceOnUse" x="37" y="38" width="24" height="23">
<path d="M37.9424 38.1001H60.2639V60.2508H37.9424V38.1001Z" fill="white"/>
</mask>
<g mask="url(#mask0_2414_2123)">
<path d="M60.2637 52.9494L59.8615 53.094C59.6211 53.1808 59.2595 53.281 58.8016 53.4078C57.942 53.6454 56.7647 53.9714 55.8233 54.3798C54.4953 54.9551 54.3373 55.3918 54.3306 55.5526C54.3211 55.7852 54.7084 56.3404 54.9905 56.7455C55.549 57.5478 56.1822 58.4563 55.8462 59.2391C55.6292 59.7438 55.0722 60.0581 54.1425 60.2017C53.9612 60.2295 53.7898 60.2434 53.6335 60.2434C52.0089 60.2434 52.0022 58.8085 51.9977 57.8582C51.995 57.2434 51.9916 56.6075 51.6823 56.3683C51.5732 56.2837 51.3869 56.2392 51.1432 56.2392C50.0499 56.2392 48.1916 57.091 46.9615 57.654C46.4802 57.8749 46.0646 58.0652 45.7781 58.1687L45.3764 58.3128L45.2312 57.9116C45.1433 57.6663 45.0381 57.2902 44.9051 56.8139C44.6715 55.9749 44.3516 54.826 43.966 53.8924C43.4141 52.5566 43.0152 52.3452 42.8688 52.3162C42.8488 52.3123 42.8277 52.3107 42.8054 52.3107C42.481 52.3107 41.9736 52.6907 41.5263 53.0267C40.9299 53.4735 40.3134 53.9364 39.6769 53.9364C39.0204 53.9364 38.5197 53.4607 38.1875 52.5221C37.9255 51.781 37.9338 51.2163 38.2126 50.7957C38.6465 50.1408 39.5523 50.0841 40.4286 50.0301C41.02 49.9928 41.6904 49.9517 41.8863 49.7041C42.4171 49.0348 41.7316 47.6405 41.1263 46.4104C40.6172 45.3755 40.1365 44.398 40.2072 43.6163L40.2322 43.3459L40.4881 43.2535C40.7541 43.1573 41.1268 42.9954 41.558 42.8073C42.8327 42.2509 44.4189 41.5588 45.5066 41.5588C46.0301 41.5588 46.4151 41.7202 46.6499 42.0379C46.9442 42.4362 46.917 42.9403 46.8903 43.4282C46.8608 43.9557 46.8341 44.4542 47.1824 44.7941C47.5212 45.1246 47.9474 45.2993 48.4158 45.2993C48.6562 45.2993 48.9021 45.2537 49.1469 45.1641C49.8813 44.8965 50.3398 44.3412 50.4054 43.6413C50.4549 43.1044 50.2324 42.839 49.9236 42.4702C49.7105 42.2159 49.469 41.9277 49.3166 41.5266C49.1341 41.0464 49.0507 40.6848 49.202 40.3682C49.3706 40.0138 49.7361 39.8936 50.2418 39.7273C50.3882 39.6789 50.554 39.6238 50.7387 39.557C50.8828 39.5053 51.1816 39.369 51.5282 39.2121C52.8156 38.6262 53.93 38.1416 54.5192 38.1416C54.6438 38.1416 54.7501 38.1622 54.8441 38.2034C55.2759 38.392 55.5808 39.1169 56.2045 41.4331C56.2874 41.7402 56.3586 42.0056 56.3992 42.1247C56.4509 42.276 56.5132 42.4295 56.5728 42.5786C56.8448 43.253 57.2176 44.1771 56.2006 44.7173C55.9697 44.8403 55.7098 44.8976 55.3833 44.8976C55.2035 44.8976 55.0227 44.8803 54.848 44.8637C54.6772 44.8475 54.5153 44.8319 54.3579 44.8319C54.0418 44.8319 53.8243 44.8959 53.6318 45.0445C53.0565 45.4885 52.824 46.3953 53.0916 47.1548C53.3586 47.912 54.0819 48.4623 54.8119 48.4623L54.838 48.4617C55.2547 48.4545 55.5941 48.1262 55.9535 47.7785C56.3196 47.4246 56.6985 47.0585 57.2109 47.0218C57.2326 47.0207 57.2538 47.0196 57.2755 47.0196C58.4205 47.0196 59.1037 49.072 59.8164 51.5512C59.9366 51.9696 60.0406 52.3312 60.1185 52.5477L60.2637 52.9494Z" fill="#397DC9"/>
</g>
<mask id="mask1_2414_2123" style="mask-type:luminance" maskUnits="userSpaceOnUse" x="19" y="26" width="24" height="23">
<path d="M19.8066 26.542H42.1616V48.7612H19.8066V26.542Z" fill="white"/>
</mask>
<g mask="url(#mask1_2414_2123)">
<path d="M41.7951 36.447C41.3172 36.9878 40.5105 36.9889 39.7994 36.99C39.3438 36.9906 38.8725 36.9911 38.5966 37.1313C37.9718 37.4479 38.1003 38.0616 38.6244 39.3178C38.7089 39.5193 38.7885 39.7101 38.8542 39.8931C38.907 40.0406 39.0327 40.2976 39.1652 40.5697C39.6854 41.6357 40.0409 42.4313 39.8801 42.9676C39.6603 43.6993 38.8475 43.9563 38.0613 44.205C37.8861 44.2601 37.7053 44.3168 37.5372 44.378C37.3163 44.4576 37.0593 44.5733 36.7867 44.6957C36.1524 44.9811 35.4342 45.3044 34.8082 45.3339C34.6435 45.3411 34.52 45.345 34.4182 45.345C34.1512 45.345 33.8502 45.3277 33.6488 45.1174C33.4496 44.9099 33.4613 44.6468 33.4724 44.3925C33.4796 44.2334 33.4885 44.0347 33.4618 43.7805C33.3277 42.478 32.63 41.7008 31.5952 41.7008C30.9259 41.7008 30.2861 42.0424 29.9656 42.5715C29.6579 43.0783 29.6768 43.6926 30.0196 44.3469C30.0708 44.4437 30.2766 44.6445 30.4424 44.8053C30.8903 45.2421 31.3526 45.6933 31.2541 46.2051C31.1345 46.8233 30.3016 47.1009 29.3074 47.3752C29.1644 47.4141 29.0298 47.4514 28.9608 47.4764C28.7332 47.5588 28.4823 47.669 28.2169 47.7858C27.6027 48.0556 26.9679 48.3349 26.3587 48.3989C26.0399 48.4328 25.9503 48.5041 25.9124 48.5341C25.8668 48.5703 25.76 48.6554 25.5992 48.6554H25.5987C25.306 48.6554 25.1942 48.4128 25.1402 48.296C25.0924 48.1914 25.0028 47.9961 24.7958 47.6545C24.5738 47.2873 24.4431 46.8466 24.3168 46.421C24.2606 46.2335 24.2083 46.0566 24.1515 45.8991C24.1154 45.7996 24.0302 45.6126 23.9318 45.3956C23.3008 44.008 23.0455 43.2681 23.3014 42.8146C23.6141 42.2599 24.2567 42.2599 24.4681 42.2599C24.6334 42.2599 24.8042 42.2733 24.9688 42.2855C25.128 42.2978 25.2782 42.3094 25.4184 42.3094C25.5491 42.3094 25.6521 42.2989 25.7333 42.2777C26.416 42.1008 26.9245 41.6017 27.0931 40.9436C27.2628 40.2804 27.0486 39.5877 26.5194 39.0914C26.1689 38.7615 25.8001 38.6018 25.3939 38.6018C25.1046 38.6018 24.7891 38.6847 24.4575 38.8483C24.3579 38.8972 24.1282 39.1337 23.9601 39.3062C23.5429 39.7362 23.1495 40.1418 22.7133 40.1418L22.6861 40.1413C21.8337 40.1079 21.22 38.5295 20.2447 35.2257C20.1301 34.8374 20.0311 34.5019 19.9743 34.3439L19.8291 33.9428L20.2308 33.7981C20.6742 33.6384 21.2384 33.4888 21.8359 33.3302C23.1195 32.9891 24.7168 32.5652 25.3828 31.9293C25.6893 31.6366 25.8435 31.4063 25.8295 31.2622C25.8156 31.1203 25.6459 30.9189 25.4495 30.6869C25.2582 30.461 25.02 30.1795 24.8142 29.8201C24.4019 29.1018 24.4036 28.2122 24.8175 27.4978C25.1686 26.893 25.7416 26.5464 26.3904 26.5464C26.747 26.5464 27.1098 26.6521 27.4686 26.8602C28.4272 27.4182 28.3827 28.3869 28.3471 29.1658C28.311 29.9425 28.3343 30.3047 28.7065 30.5105C28.7967 30.5606 28.9257 30.5856 29.0899 30.5856C29.8666 30.5856 31.0655 30.0393 31.9413 29.6404C32.2851 29.4835 32.5816 29.3483 32.807 29.267C33.0106 29.193 33.1764 29.1235 33.3227 29.0623C33.6193 28.9382 33.8335 28.8481 34.0749 28.8481C34.5161 28.8481 34.811 29.1658 35.0753 29.4913C35.5148 30.0309 35.7546 30.9261 35.9666 31.7167C36.0573 32.0567 36.1435 32.3777 36.2337 32.6258C36.2865 32.7722 36.3377 32.9235 36.3889 33.0759C36.7004 34.0017 36.9425 34.6082 37.446 34.6082C37.5745 34.6082 37.7258 34.5748 37.8961 34.5091C38.1025 34.429 38.2906 34.2159 38.4886 33.9906C38.7779 33.6629 39.1056 33.2913 39.6236 33.1655C39.7827 33.1271 39.9452 33.1071 40.1071 33.1071C41.1325 33.1071 42.0021 33.8871 42.1306 34.9209C42.2146 35.5974 42.105 36.0965 41.7951 36.447Z" fill="#F8E505"/>
</g>
<path d="M53.0003 27.5778C53.0204 28.0518 52.5803 28.3801 52.3216 28.5409C52.0111 29.1735 51.4531 29.7209 50.9123 30.2511C50.5735 30.5844 50.2524 30.8993 50.0215 31.2075C49.3305 32.1317 49.3355 32.4165 49.3533 32.4811C49.3862 32.5985 49.7356 32.742 50.0438 32.8689C50.4422 33.0324 50.9373 33.2355 51.4214 33.5944C52.1485 34.134 52.4251 34.9992 52.1424 35.8527C51.8509 36.7328 51.0569 37.3482 50.2124 37.3482H50.2118C49.8496 37.3482 49.4963 37.2403 49.1631 37.0277C48.5483 36.636 48.2489 36.0357 48.0075 35.5533C47.7666 35.0699 47.6408 34.8584 47.4506 34.8584C47.3304 34.8584 47.1 34.9152 46.6805 35.1884C46.0941 35.5695 45.5072 36.3729 44.9897 37.0817C44.7355 37.4289 44.4957 37.7571 44.2592 38.0364C43.67 38.7308 43.2839 39.1569 42.7837 39.1569C42.372 39.1569 42.0699 38.8888 41.5686 38.4454C41.4256 38.3196 41.2643 38.1766 41.0768 38.0186C40.9522 37.9135 40.7274 37.7566 40.4676 37.5752C39.4233 36.8447 38.6104 36.2382 38.4313 35.6396C38.1264 34.6192 38.7923 34.3577 39.1907 34.2014C39.3815 34.1268 39.5796 34.0489 39.7565 33.9076C40.4425 33.3596 40.8131 32.5467 40.7007 31.8374C40.6055 31.2365 40.1821 30.7775 39.4756 30.5115C39.1979 30.4064 38.9409 30.3535 38.7111 30.3535C37.5845 30.3535 37.0798 31.6677 36.5819 33.2561L36.3554 33.976L30.8018 29.386L31.0794 29.0572C31.1973 28.9164 31.4121 28.6254 31.6619 28.2888C33.4122 25.9209 34.5144 24.6385 35.3228 24.6385C35.4124 24.6385 35.4992 24.6535 35.5804 24.683C36.0589 24.8588 36.2937 25.3951 36.5212 25.9142C36.6854 26.2892 36.8712 26.7143 37.0982 26.8556C37.4326 27.0637 37.7703 27.1694 38.1013 27.1694C38.365 27.1694 38.6338 27.1026 38.9003 26.9708C39.6013 26.6231 39.9796 26.1123 39.9935 25.4942C40.0102 24.7364 39.4717 23.9241 38.6527 23.4718C38.3578 23.3082 38.1108 23.2042 37.9127 23.1196C37.5639 22.9722 37.2629 22.8448 37.1711 22.5143C37.0637 22.1259 37.318 21.7782 37.8743 21.0171C37.9639 20.8941 38.0657 20.7511 38.1753 20.5959C38.7295 19.8131 39.4767 18.756 40.1771 18.2664C40.3112 17.9648 40.6072 17.4263 41.1519 17.4263C41.6754 17.4263 42.0399 17.9587 42.1945 18.2091C42.6764 18.6147 43.1587 19.0203 43.6417 19.4259C43.7958 19.5561 43.9777 19.7346 44.1886 19.9416C44.6848 20.4296 45.5161 21.2463 45.9684 21.2747C45.9951 21.2763 46.0207 21.2769 46.0457 21.2769C46.5459 21.2769 46.7061 20.942 46.9776 20.118C47.2391 19.3246 47.5969 18.238 48.9305 18.238L48.9739 18.2386C49.5631 18.2491 50.1651 18.5602 50.5846 19.0709C50.9779 19.5488 51.1476 20.1319 51.0514 20.6693C50.8873 21.5779 50.2274 21.8867 49.6972 22.1354C49.4546 22.2489 49.2259 22.3557 49.0468 22.5087C48.7352 22.7763 48.5872 23.0222 48.595 23.2598C48.6145 23.8312 49.5047 24.4961 50.2202 25.0296C50.4772 25.2216 50.7203 25.4029 50.9351 25.5843C51.388 25.9632 51.8414 26.3449 52.2943 26.7277C52.7489 26.9541 52.9864 27.2395 53.0003 27.5778Z" fill="#EF3220"/>
<path d="M36.1852 34.1812C36.2347 34.2218 36.2948 34.2424 36.3549 34.2424C36.4317 34.2424 36.5079 34.2096 36.5607 34.1456C36.6548 34.0326 36.6386 33.8641 36.5251 33.77L31.5729 29.6779C31.4594 29.5845 31.2914 29.6 31.1973 29.7135C31.1033 29.827 31.1189 29.9951 31.2329 30.0891L36.1852 34.1812ZM45.4677 58.5635C45.4376 58.5747 45.407 58.5797 45.377 58.5797C45.2679 58.5797 45.165 58.5123 45.126 58.4033L44.9808 58.0021C44.8885 57.7457 44.7828 57.3657 44.6487 56.885C44.4167 56.0526 44.099 54.9126 43.7195 53.9935C43.1726 52.6688 42.8216 52.5787 42.8177 52.5781C42.8138 52.577 42.8099 52.577 42.806 52.577C42.5706 52.577 42.0387 52.9759 41.6871 53.2396C41.0556 53.7131 40.4025 54.2027 39.6775 54.2027C39.1401 54.2027 38.4023 53.9267 37.9366 52.6109C37.6445 51.7853 37.6623 51.1432 37.9906 50.6481C38.4975 49.8825 39.5151 49.8196 40.4119 49.7634C40.8125 49.739 41.5553 49.6928 41.6777 49.5387C42.1038 49.0006 41.4295 47.6298 40.8876 46.5281C40.4998 45.7392 40.1326 44.9926 39.993 44.3116L39.8133 44.2954C39.105 44.2309 38.1597 44.6955 37.1577 45.1873C35.8553 45.8266 34.3792 46.5504 33.5764 45.9161C33.2353 45.6463 33.1941 44.977 33.1496 44.2682C33.0996 43.4575 33.0473 42.6202 32.502 42.2602C32.156 42.0305 31.6675 42.0321 31.0098 42.2641C30.1886 42.554 29.7719 42.9696 29.7719 43.4998C29.7719 44.0467 30.2076 44.6259 30.6293 45.1867C31.0082 45.6908 31.3993 46.2116 31.3993 46.6244C31.3993 46.6645 31.396 46.7034 31.3887 46.7401C31.3069 47.1546 30.7222 47.5891 29.6506 48.0303C28.7009 48.4215 27.542 48.7436 26.6952 48.9789C26.2245 49.1097 25.8534 49.2126 25.6147 49.2983L25.213 49.4435C25.1835 49.4541 25.1529 49.4591 25.1223 49.4591C25.0133 49.4591 24.9109 49.3918 24.8714 49.2833C24.8213 49.1447 24.8931 48.9917 25.0322 48.9422L25.4339 48.797C25.6909 48.7047 26.0709 48.5989 26.5522 48.4654C27.3856 48.2334 28.5268 47.9163 29.447 47.5374C30.7739 46.991 30.8641 46.64 30.8652 46.6366C30.8657 46.6322 30.8657 46.6283 30.8657 46.6244C30.8657 46.3896 30.4668 45.8588 30.2025 45.5078C29.728 44.8763 29.2378 44.2242 29.2378 43.4998C29.2378 42.9635 29.5143 42.2263 30.8318 41.7612C31.6586 41.4696 32.3012 41.4874 32.7969 41.8151C33.5636 42.322 33.6264 43.3374 33.6821 44.2337C33.7071 44.6337 33.7533 45.3759 33.908 45.4977C34.446 45.9239 35.8191 45.2496 36.9218 44.7088C37.9928 44.183 39.0043 43.6857 39.8617 43.7647L40.1326 43.7891C40.21 43.7958 40.2762 43.8359 40.3201 43.8932C40.4097 43.9243 40.4804 44.0006 40.497 44.1007C40.6011 44.7366 40.9727 45.4927 41.3661 46.2922C42.0065 47.5936 42.7314 49.068 42.0961 49.8697C41.8268 50.2102 41.1563 50.2519 40.4464 50.2959C39.6347 50.3465 38.7962 50.3982 38.4357 50.9424C38.2065 51.2884 38.2076 51.7758 38.4401 52.4329C38.73 53.2535 39.1462 53.6697 39.6775 53.6697C40.2244 53.6697 40.8047 53.2346 41.3661 52.8134C41.8707 52.4346 42.392 52.0434 42.806 52.0434C42.8455 52.0434 42.8844 52.0473 42.9217 52.0546C43.3368 52.1363 43.7713 52.7205 44.2136 53.791C44.6047 54.739 44.9274 55.8968 45.1633 56.742C45.2941 57.2121 45.3975 57.5832 45.4832 57.8213L45.6279 58.2225C45.678 58.361 45.6062 58.5135 45.4677 58.5635Z" fill="#110F0D"/>
<path d="M70.8159 48V33.8936H77.6072C78.9238 33.8936 80.059 34.1085 81.0129 34.5384C81.9802 34.9683 82.7258 35.5863 83.2498 36.3924C83.7737 37.1851 84.0357 38.1255 84.0357 39.2137C84.0357 40.3019 83.7737 41.2423 83.2498 42.035C82.7258 42.8276 81.9802 43.4456 81.0129 43.889C80.059 44.3189 78.9238 44.5338 77.6072 44.5338H73.4559L75.5718 42.4985V48H70.8159ZM75.5718 43.0224L73.4559 40.8662H77.3049C77.9632 40.8662 78.4469 40.7184 78.7559 40.4228C79.0783 40.1273 79.2395 39.7242 79.2395 39.2137C79.2395 38.7032 79.0783 38.3001 78.7559 38.0046C78.4469 37.709 77.9632 37.5612 77.3049 37.5612H73.4559L75.5718 35.405V43.0224ZM92.1496 48.3224C89.9866 48.3224 88.3005 47.738 87.0914 46.5692C85.8823 45.4004 85.2777 43.7614 85.2777 41.6521V33.8936H90.0336V41.511C90.0336 42.5858 90.2284 43.3516 90.618 43.8084C91.0076 44.2517 91.5316 44.4734 92.1899 44.4734C92.8616 44.4734 93.3856 44.2517 93.7617 43.8084C94.1513 43.3516 94.3461 42.5858 94.3461 41.511V33.8936H99.0214V41.6521C99.0214 43.7614 98.4169 45.4004 97.2077 46.5692C95.9986 47.738 94.3126 48.3224 92.1496 48.3224ZM100.698 48V45.078L108.557 35.9289L109.141 37.5814H100.899V33.8936H113.333V36.8156L105.474 45.9646L104.889 44.3122H113.655V48H100.698ZM114.533 48V45.078L122.392 35.9289L122.976 37.5814H114.734V33.8936H127.168V36.8156L119.309 45.9646L118.724 44.3122H127.49V48H114.533ZM128.871 48V33.8936H133.627V44.3122H139.995V48H128.871ZM145.662 39.1331H151.949V42.5589H145.662V39.1331ZM145.984 44.4129H153.037V48H141.309V33.8936H152.775V37.4806H145.984V44.4129Z" fill="#FFAB01"/>
<defs>
<linearGradient id="paint0_linear_2414_2123" x1="1.74826e-07" y1="40.5" x2="171.717" y2="67.3328" gradientUnits="userSpaceOnUse">
<stop stop-color="#173DE7"/>
<stop offset="1" stop-color="#D96DFC"/>
</linearGradient>
</defs>
</svg>
