<svg width="162" height="41" viewBox="0 0 162 41" fill="none" xmlns="http://www.w3.org/2000/svg">
<rect x="1" y="1" width="160" height="39" rx="7" fill="#4E07AD"/>
<rect x="1" y="1" width="160" height="39" rx="7" stroke="#DC01FD" stroke-width="2"/>
<g filter="url(#filter0_d_2725_3667)">
<path d="M60.461 27.304C59.397 27.304 58.409 27.1393 57.497 26.81C56.5977 26.468 55.8123 25.9867 55.141 25.366C54.4823 24.7453 53.9693 24.0107 53.602 23.162C53.2347 22.3133 53.051 21.376 53.051 20.35C53.051 19.324 53.2347 18.3867 53.602 17.538C53.9693 16.6893 54.4823 15.9547 55.141 15.334C55.8123 14.7133 56.5977 14.2383 57.497 13.909C58.409 13.567 59.397 13.396 60.461 13.396C61.7657 13.396 62.9183 13.624 63.919 14.08C64.9323 14.536 65.7683 15.1947 66.427 16.056L63.596 18.583C63.2033 18.089 62.7663 17.709 62.285 17.443C61.8163 17.1643 61.2843 17.025 60.689 17.025C60.2203 17.025 59.796 17.101 59.416 17.253C59.036 17.405 58.7067 17.6267 58.428 17.918C58.162 18.2093 57.953 18.564 57.801 18.982C57.649 19.3873 57.573 19.8433 57.573 20.35C57.573 20.8567 57.649 21.319 57.801 21.737C57.953 22.1423 58.162 22.4907 58.428 22.782C58.7067 23.0733 59.036 23.295 59.416 23.447C59.796 23.599 60.2203 23.675 60.689 23.675C61.2843 23.675 61.8163 23.542 62.285 23.276C62.7663 22.9973 63.2033 22.611 63.596 22.117L66.427 24.644C65.7683 25.4927 64.9323 26.1513 63.919 26.62C62.9183 27.076 61.7657 27.304 60.461 27.304ZM68.3487 27V12.902H72.6427V27H68.3487ZM81.0439 27.19C79.7773 27.19 78.6689 26.9557 77.7189 26.487C76.7816 26.0183 76.0533 25.3787 75.5339 24.568C75.0146 23.7447 74.7549 22.82 74.7549 21.794C74.7549 20.7427 75.0083 19.8117 75.5149 19.001C76.0343 18.1903 76.7373 17.557 77.6239 17.101C78.5233 16.645 79.5303 16.417 80.6449 16.417C81.6709 16.417 82.6146 16.6197 83.4759 17.025C84.3499 17.4303 85.0466 18.032 85.5659 18.83C86.0979 19.628 86.3639 20.616 86.3639 21.794C86.3639 21.946 86.3576 22.117 86.3449 22.307C86.3323 22.4843 86.3196 22.649 86.3069 22.801H78.3079V20.73H84.0269L82.4119 21.281C82.4119 20.8757 82.3359 20.5337 82.1839 20.255C82.0446 19.9637 81.8483 19.742 81.5949 19.59C81.3416 19.4253 81.0376 19.343 80.6829 19.343C80.3283 19.343 80.0179 19.4253 79.7519 19.59C79.4986 19.742 79.3023 19.9637 79.1629 20.255C79.0236 20.5337 78.9539 20.8757 78.9539 21.281V21.927C78.9539 22.3703 79.0426 22.7503 79.2199 23.067C79.3973 23.3837 79.6506 23.6243 79.9799 23.789C80.3093 23.941 80.7083 24.017 81.1769 24.017C81.6583 24.017 82.0509 23.9537 82.3549 23.827C82.6716 23.7003 83.0009 23.5103 83.3429 23.257L85.5849 25.518C85.0783 26.0627 84.4513 26.4807 83.7039 26.772C82.9693 27.0507 82.0826 27.19 81.0439 27.19ZM94.4897 27V25.157L94.1857 24.663V21.167C94.1857 20.6603 94.0274 20.274 93.7107 20.008C93.4067 19.742 92.9064 19.609 92.2097 19.609C91.741 19.609 91.266 19.685 90.7847 19.837C90.3034 19.9763 89.8917 20.1727 89.5497 20.426L88.1817 17.595C88.7897 17.215 89.518 16.9237 90.3667 16.721C91.2154 16.5183 92.045 16.417 92.8557 16.417C94.6417 16.417 96.0224 16.816 96.9977 17.614C97.9857 18.412 98.4797 19.6787 98.4797 21.414V27H94.4897ZM91.5447 27.19C90.696 27.19 89.9867 27.0443 89.4167 26.753C88.8467 26.4617 88.416 26.0753 88.1247 25.594C87.8334 25.1 87.6877 24.5553 87.6877 23.96C87.6877 23.2887 87.8587 22.7187 88.2007 22.25C88.5427 21.7813 89.062 21.4267 89.7587 21.186C90.468 20.9453 91.361 20.825 92.4377 20.825H94.6037V22.896H93.1217C92.6657 22.896 92.33 22.972 92.1147 23.124C91.912 23.2633 91.8107 23.4787 91.8107 23.77C91.8107 24.0107 91.8994 24.2133 92.0767 24.378C92.2667 24.53 92.52 24.606 92.8367 24.606C93.128 24.606 93.394 24.53 93.6347 24.378C93.888 24.2133 94.0717 23.96 94.1857 23.618L94.7367 24.891C94.572 25.6637 94.2237 26.24 93.6917 26.62C93.1597 27 92.444 27.19 91.5447 27.19ZM101.095 27V16.607H105.18V19.742L104.515 18.849C104.832 18.0383 105.339 17.4303 106.035 17.025C106.732 16.6197 107.568 16.417 108.543 16.417V20.217C108.353 20.1917 108.182 20.1727 108.03 20.16C107.891 20.1473 107.745 20.141 107.593 20.141C106.947 20.141 106.415 20.312 105.997 20.654C105.592 20.9833 105.389 21.5597 105.389 22.383V27H101.095Z" fill="white"/>
</g>
<defs>
<filter id="filter0_d_2725_3667" x="53.0508" y="12.9019" width="55.4932" height="15.4023" filterUnits="userSpaceOnUse" color-interpolation-filters="sRGB">
<feFlood flood-opacity="0" result="BackgroundImageFix"/>
<feColorMatrix in="SourceAlpha" type="matrix" values="0 0 0 0 0 0 0 0 0 0 0 0 0 0 0 0 0 0 127 0" result="hardAlpha"/>
<feOffset dy="1"/>
<feComposite in2="hardAlpha" operator="out"/>
<feColorMatrix type="matrix" values="0 0 0 0 0 0 0 0 0 0 0 0 0 0 0 0 0 0 0.15 0"/>
<feBlend mode="normal" in2="BackgroundImageFix" result="effect1_dropShadow_2725_3667"/>
<feBlend mode="normal" in="SourceGraphic" in2="effect1_dropShadow_2725_3667" result="shape"/>
</filter>
</defs>
</svg>
