<svg width="162" height="41" viewBox="0 0 162 41" fill="none" xmlns="http://www.w3.org/2000/svg">
<rect x="1" y="1" width="160" height="39" rx="7" fill="#002799"/>
<rect x="1" y="1" width="160" height="39" rx="7" stroke="#0DA7F6" stroke-width="2"/>
<g filter="url(#filter0_d_2725_3665)">
<path d="M48.042 27.304C46.9273 27.304 45.8507 27.1773 44.812 26.924C43.7733 26.6707 42.9183 26.3413 42.247 25.936L43.691 22.668C44.3243 23.0353 45.0273 23.333 45.8 23.561C46.5853 23.7763 47.3453 23.884 48.08 23.884C48.5107 23.884 48.8463 23.8587 49.087 23.808C49.3403 23.7447 49.524 23.6623 49.638 23.561C49.752 23.447 49.809 23.314 49.809 23.162C49.809 22.9213 49.676 22.7313 49.41 22.592C49.144 22.4527 48.7893 22.3387 48.346 22.25C47.9153 22.1487 47.4403 22.0473 46.921 21.946C46.4017 21.832 45.876 21.6863 45.344 21.509C44.8247 21.3317 44.3433 21.0973 43.9 20.806C43.4693 20.5147 43.121 20.1347 42.855 19.666C42.589 19.1847 42.456 18.5893 42.456 17.88C42.456 17.0567 42.684 16.3093 43.14 15.638C43.6087 14.954 44.299 14.4093 45.211 14.004C46.1357 13.5987 47.282 13.396 48.65 13.396C49.5493 13.396 50.436 13.491 51.31 13.681C52.184 13.871 52.9693 14.1623 53.666 14.555L52.317 17.804C51.6583 17.4747 51.0187 17.2277 50.398 17.063C49.79 16.8983 49.1947 16.816 48.612 16.816C48.1813 16.816 47.8393 16.854 47.586 16.93C47.3327 17.006 47.149 17.1073 47.035 17.234C46.9337 17.3607 46.883 17.5 46.883 17.652C46.883 17.88 47.016 18.0637 47.282 18.203C47.548 18.3297 47.8963 18.4373 48.327 18.526C48.7703 18.6147 49.2517 18.7097 49.771 18.811C50.303 18.9123 50.8287 19.0517 51.348 19.229C51.8673 19.4063 52.3423 19.6407 52.773 19.932C53.2163 20.2233 53.571 20.6033 53.837 21.072C54.103 21.5407 54.236 22.1233 54.236 22.82C54.236 23.6307 54.0017 24.378 53.533 25.062C53.077 25.7333 52.393 26.278 51.481 26.696C50.569 27.1013 49.4227 27.304 48.042 27.304ZM60.5293 27.19C59.706 27.19 58.9586 27.0253 58.2873 26.696C57.6286 26.354 57.1093 25.8283 56.7293 25.119C56.3493 24.397 56.1593 23.4723 56.1593 22.345V16.607H60.4533V21.604C60.4533 22.3387 60.5736 22.8517 60.8143 23.143C61.055 23.4343 61.3843 23.58 61.8023 23.58C62.0556 23.58 62.29 23.5167 62.5053 23.39C62.7333 23.2507 62.917 23.029 63.0563 22.725C63.1956 22.4083 63.2653 21.9967 63.2653 21.49V16.607H67.5593V27H63.4743V23.998L64.2913 24.815C63.924 25.6257 63.3983 26.2273 62.7143 26.62C62.043 27 61.3146 27.19 60.5293 27.19ZM77.1589 27.19C76.2089 27.19 75.4426 27 74.8599 26.62C74.2772 26.24 73.8529 25.651 73.5869 24.853C73.3336 24.055 73.2069 23.0353 73.2069 21.794C73.2069 20.5653 73.3462 19.5583 73.6249 18.773C73.9036 17.975 74.3342 17.386 74.9169 17.006C75.5122 16.6133 76.2596 16.417 77.1589 16.417C78.0709 16.417 78.9069 16.6323 79.6669 17.063C80.4269 17.4937 81.0349 18.1143 81.4909 18.925C81.9469 19.723 82.1749 20.6793 82.1749 21.794C82.1749 22.9087 81.9469 23.8713 81.4909 24.682C81.0349 25.48 80.4269 26.1007 79.6669 26.544C78.9069 26.9747 78.0709 27.19 77.1589 27.19ZM70.2239 27V12.902H74.5179V17.994L74.3279 21.794L74.3089 25.594V27H70.2239ZM76.1329 23.846C76.4496 23.846 76.7346 23.77 76.9879 23.618C77.2412 23.466 77.4439 23.238 77.5959 22.934C77.7479 22.6173 77.8239 22.2373 77.8239 21.794C77.8239 21.338 77.7479 20.9643 77.5959 20.673C77.4439 20.369 77.2412 20.141 76.9879 19.989C76.7346 19.837 76.4496 19.761 76.1329 19.761C75.8162 19.761 75.5312 19.837 75.2779 19.989C75.0246 20.141 74.8219 20.369 74.6699 20.673C74.5179 20.9643 74.4419 21.338 74.4419 21.794C74.4419 22.2373 74.5179 22.6173 74.6699 22.934C74.8219 23.238 75.0246 23.466 75.2779 23.618C75.5312 23.77 75.8162 23.846 76.1329 23.846ZM98.0436 16.417C98.8289 16.417 99.5319 16.5817 100.153 16.911C100.786 17.2277 101.28 17.728 101.635 18.412C102.002 19.096 102.186 19.9827 102.186 21.072V27H97.8916V21.813C97.8916 21.167 97.7839 20.711 97.5686 20.445C97.3533 20.1663 97.0746 20.027 96.7326 20.027C96.4793 20.027 96.2513 20.0903 96.0486 20.217C95.846 20.3437 95.6813 20.5463 95.5546 20.825C95.4406 21.091 95.3836 21.4583 95.3836 21.927V27H91.0896V21.813C91.0896 21.167 90.9883 20.711 90.7856 20.445C90.5829 20.1663 90.2979 20.027 89.9306 20.027C89.6773 20.027 89.4493 20.0903 89.2466 20.217C89.0439 20.3437 88.8793 20.5463 88.7526 20.825C88.6386 21.091 88.5816 21.4583 88.5816 21.927V27H84.2876V16.607H88.3726V19.59L87.5366 18.754C87.9293 17.9687 88.4549 17.386 89.1136 17.006C89.7723 16.6133 90.5069 16.417 91.3176 16.417C92.2296 16.417 93.0339 16.6577 93.7306 17.139C94.44 17.6077 94.915 18.355 95.1556 19.381L93.8446 19.172C94.2246 18.3107 94.7756 17.6393 95.4976 17.158C96.2323 16.664 97.0809 16.417 98.0436 16.417ZM104.808 27V16.607H109.102V27H104.808ZM106.955 15.771C106.17 15.771 105.543 15.562 105.074 15.144C104.606 14.726 104.371 14.2067 104.371 13.586C104.371 12.9653 104.606 12.446 105.074 12.028C105.543 11.61 106.17 11.401 106.955 11.401C107.741 11.401 108.368 11.5973 108.836 11.99C109.305 12.3827 109.539 12.8893 109.539 13.51C109.539 14.1687 109.305 14.7133 108.836 15.144C108.368 15.562 107.741 15.771 106.955 15.771ZM116.782 27.19C115.35 27.19 114.236 26.848 113.438 26.164C112.64 25.4673 112.241 24.4033 112.241 22.972V14.27H116.535V22.934C116.535 23.2507 116.617 23.4977 116.782 23.675C116.959 23.8523 117.174 23.941 117.428 23.941C117.795 23.941 118.118 23.846 118.397 23.656L119.423 26.639C119.093 26.829 118.694 26.9683 118.226 27.057C117.77 27.1457 117.288 27.19 116.782 27.19ZM110.816 20.312V17.177H118.663V20.312H110.816Z" fill="white"/>
</g>
<defs>
<filter id="filter0_d_2725_3665" x="42.2471" y="11.4009" width="77.1758" height="16.9033" filterUnits="userSpaceOnUse" color-interpolation-filters="sRGB">
<feFlood flood-opacity="0" result="BackgroundImageFix"/>
<feColorMatrix in="SourceAlpha" type="matrix" values="0 0 0 0 0 0 0 0 0 0 0 0 0 0 0 0 0 0 127 0" result="hardAlpha"/>
<feOffset dy="1"/>
<feComposite in2="hardAlpha" operator="out"/>
<feColorMatrix type="matrix" values="0 0 0 0 0 0 0 0 0 0 0 0 0 0 0 0 0 0 0.15 0"/>
<feBlend mode="normal" in2="BackgroundImageFix" result="effect1_dropShadow_2725_3665"/>
<feBlend mode="normal" in="SourceGraphic" in2="effect1_dropShadow_2725_3665" result="shape"/>
</filter>
</defs>
</svg>
